<svg width="925" height="705" viewBox="0 0 925 705" fill="none" xmlns="http://www.w3.org/2000/svg">
<path d="M892.703 430.739H795.415C787.503 430.739 781.089 424.418 781.089 416.622V320.332C781.089 295.751 770.968 273.487 754.646 257.333C738.253 241.25 715.517 231.066 690.642 231.066C665.768 231.066 643.031 241.179 626.638 257.333C610.245 273.416 599.982 295.68 599.982 320.332V615.944C599.982 622.967 597.06 629.499 592.284 634.415C587.295 639.121 580.738 642 573.539 642C566.341 642 559.57 639.121 554.794 634.415C550.019 629.499 546.883 623.037 546.883 615.944V257.544C546.883 232.962 536.762 210.698 520.441 194.545C503.905 178.461 481.311 168.277 456.437 168.277C431.562 168.277 408.826 178.391 392.433 194.545C375.898 210.628 365.777 232.892 365.777 257.544V562.777C365.777 569.8 362.854 576.332 357.865 581.248C353.09 585.954 346.461 588.834 339.263 588.834C332.064 588.834 325.293 585.954 320.518 581.248C315.529 576.332 312.606 569.871 312.606 562.777V403.067C312.606 378.626 302.486 356.362 285.95 340.068C269.557 323.984 246.963 314.011 221.946 314.011C196.929 314.011 174.478 323.984 157.943 340.068C141.55 356.362 131.5 378.626 131.5 403.067V416.692C131.5 424.488 125.085 430.809 117.174 430.809H32.0019C14.326 430.809 0 444.926 0 462.344C0 479.762 14.326 493.878 32.0019 493.878H131.571C166.923 493.878 195.575 465.645 195.575 430.809V403.067C195.575 396.044 198.497 389.512 203.486 384.806C208.262 379.89 214.89 377.01 222.089 377.01C229.287 377.01 236.059 379.89 240.834 384.806C245.823 389.512 248.745 396.044 248.745 403.067V562.777C248.745 587.218 258.866 609.623 275.188 625.776C291.723 641.86 314.317 651.833 339.334 651.833C364.351 651.833 386.802 641.86 403.338 625.776C419.731 609.693 429.78 587.218 429.78 562.777V257.544C429.78 250.31 432.703 243.778 437.692 239.072C442.467 234.367 449.096 231.277 456.437 231.277C463.778 231.277 470.193 234.367 475.039 239.072C480.028 243.778 482.951 250.31 482.951 257.544V615.944C482.951 640.385 493.071 662.789 509.607 678.943C526 695.026 548.594 704.999 573.611 704.999C598.628 704.999 621.222 695.026 637.615 678.943C654.008 662.859 664.057 640.385 664.057 615.944V320.332C664.057 313.098 667.193 306.566 671.968 301.861C676.744 297.155 683.372 294.065 690.713 294.065C698.055 294.065 704.469 297.155 709.458 301.861C714.234 306.566 717.156 313.098 717.156 320.332V430.809C717.156 465.645 745.808 493.878 781.16 493.878H892.774C910.45 493.878 924.776 479.762 924.776 462.344C924.776 444.926 910.45 430.809 892.774 430.809L892.703 430.739Z" fill="#F36B21"/>
<path d="M690.571 62.7188C655.361 62.7188 626.781 90.8823 626.781 125.507C626.781 160.132 655.361 188.155 690.571 188.155C725.78 188.155 754.218 160.132 754.218 125.507C754.218 90.8823 725.78 62.7188 690.571 62.7188Z" fill="#F36B21"/>
<path d="M452.302 0C417.093 0 388.512 28.1635 388.512 62.7885C388.512 97.4134 417.093 125.436 452.302 125.436C487.511 125.436 515.95 97.4134 515.95 62.7885C515.95 28.1635 487.511 0 452.302 0Z" fill="#F36B21"/>
<path d="M222.16 145.523C186.95 145.523 158.37 173.687 158.37 208.312C158.37 242.937 186.95 270.96 222.16 270.96C257.369 270.96 285.807 242.937 285.807 208.312C285.807 173.687 257.369 145.523 222.16 145.523Z" fill="#F36B21"/>
</svg>
