<svg width="135" height="56" viewBox="0 0 135 56" fill="none" xmlns="http://www.w3.org/2000/svg">
<path d="M133.586 34.3023C132.893 30.7901 130.69 27.8527 127.541 26.2563C126.597 25.7454 125.527 25.3623 124.771 24.9792C125.967 24.0213 127.479 23.1912 128.486 21.9779C131.004 19.0405 131.823 15.6561 131.067 11.8247C130.5 8.37645 128.36 5.43905 125.338 3.84262C122.19 2.05464 118.727 1.47993 115.201 1.41608C109.409 1.35222 103.554 1.41608 97.7613 1.41608C96.3135 1.41608 95.9985 1.73536 95.9985 3.20406V49.6918C95.9985 51.0328 96.3762 51.4795 97.6986 51.4795C100.217 51.4795 102.735 51.5434 105.254 51.4795C110.291 51.352 115.264 51.2881 120.301 51.0328C123.071 50.905 125.779 50.011 128.108 48.5421C130.249 47.265 131.949 45.2856 132.83 42.923C133.963 40.2409 134.215 37.1758 133.586 34.3023ZM106.953 10.4837C110.228 10.803 113.438 9.97284 116.586 10.9946C118.979 11.7609 120.238 13.6127 120.049 16.2946C119.86 18.4019 118.916 20.5092 116.146 20.8923C113.187 21.3393 110.101 21.3393 106.953 21.5948V10.4837ZM122.253 37.2397C122.001 39.7939 120.049 41.8373 117.531 42.0926C114.068 42.5396 110.542 42.5396 106.953 42.7952V29.7684C110.731 30.0238 114.446 29.2575 118.097 30.4708C120.742 31.3648 122.568 33.1527 122.253 37.2397Z" fill="#0038A8"/>
<path d="M73.9617 0.458008C79.9429 0.649577 85.4204 2.43756 90.0165 6.46052C90.3941 6.77981 90.7091 7.03524 91.0867 7.35451C92.0942 8.18466 92.22 8.95094 91.2125 10.0365C89.7016 11.7606 88.1276 13.357 86.4906 14.8896C86.1757 15.2089 85.798 15.4005 85.3573 15.4005C84.9167 15.4005 84.476 15.2089 84.2241 14.8896C82.1464 13.0377 79.628 11.8245 76.9208 11.3136C73.3322 10.7389 69.6175 11.6329 66.6584 13.804C62.4399 16.8691 60.1734 21.3391 60.0477 26.8946C60.1104 33.9827 64.14 39.8574 70.3728 41.9647C75.6614 43.7527 80.3206 42.4117 84.476 38.7081C85.3573 37.9419 85.9241 37.878 86.6794 38.7081C88.3164 40.3684 89.8904 42.0286 91.5274 43.6888C92.3461 44.5828 92.3461 45.413 91.4643 46.2431C84.7909 52.7565 75.2838 55.0555 66.5323 52.3734C63.0695 51.2877 59.8585 49.4361 57.1513 46.9457C52.6813 42.9865 49.7222 37.5588 48.8408 31.62C47.6445 23.7657 49.2185 16.486 54.1922 10.2919C57.97 5.50269 62.8806 2.24599 68.9249 1.16043C70.4989 0.713434 72.1986 0.458008 73.9617 0.458008Z" fill="#0038A8"/>
<path fill-rule="evenodd" clip-rule="evenodd" d="M84.4742 27.0866C84.4112 30.3433 82.6484 33.3444 79.8151 34.9411C76.9821 36.5374 73.582 36.4735 70.8121 34.8133C68.0418 33.153 66.4048 30.0879 66.4048 26.8312C66.4048 24.4046 67.3492 22.1058 69.0489 20.3817C70.749 18.6576 73.0155 17.7636 75.4081 17.8274C80.3819 17.8274 84.5373 21.5311 84.4742 27.0866Z" fill="#00AFFF"/>
<path d="M25.8588 13.8048C23.844 19.9989 21.8923 26.0015 19.8776 32.0678H31.6511L25.8588 13.8048ZM33.0993 3.90705C36.0583 12.2084 39.0805 20.5098 42.1023 28.8111C44.7468 36.0908 47.3909 43.3066 50.0354 50.5223C50.6019 52.1187 50.35 52.4382 48.6503 52.4382H39.8988C38.8286 52.5018 37.8842 51.7995 37.6323 50.778C36.6248 47.7128 35.5546 44.7115 34.6102 41.6463C34.6102 41.3907 34.4844 41.1993 34.2952 41.0715C34.1064 40.944 33.8545 40.8801 33.6657 40.8801H17.9258C17.2962 40.8801 17.1073 41.1354 16.9185 41.6463C15.9111 44.7115 14.8408 47.7767 13.8964 50.9054C13.6445 51.8634 12.7631 52.5018 11.8187 52.3743C8.92255 52.3743 6.02638 52.3743 3.13024 52.3743C1.87104 52.3743 1.55624 51.9273 1.99696 50.7141C4.20055 44.9029 6.3412 39.156 8.48182 33.3448C10.2447 28.6834 11.9446 24.0219 13.6445 19.3604C15.5333 14.3157 17.3592 9.20716 19.248 4.16248C19.8146 2.75765 20.4442 2.37451 21.9552 2.37451H30.8326C31.9029 2.31065 32.7843 2.94922 33.0993 3.90705Z" fill="#0038A8"/>
</svg>
