<?xml version="1.0" standalone="no"?>
<!DOCTYPE svg PUBLIC "-//W3C//DTD SVG 20010904//EN" "http://www.w3.org/TR/2001/REC-SVG-20010904/DTD/svg10.dtd">
<svg version="1.0" xmlns="http://www.w3.org/2000/svg"
    width="14" height="14" viewBox="0 0 512.000000 512.000000"
    preserveAspectRatio="xMidYMid meet">

    <g transform="translate(0.000000,512.000000) scale(0.100000,-0.100000)"
        fill="#000000" stroke="none">
        <path
            d="M678 5099 c-58 -30 -78 -79 -78 -189 l0 -90 -89 0 c-113 0 -180 -13
-259 -50 -120 -56 -216 -183 -242 -319 -14 -74 -14 -4008 0 -4082 34 -180 179
-325 359 -359 74 -14 4308 -14 4382 0 180 34 325 179 359 359 14 74 14 4008 0
4082 -34 180 -179 325 -359 359 -30 5 -94 10 -142 10 l-89 0 0 90 c0 112 -20
159 -80 190 -50 25 -90 25 -140 0 -60 -31 -80 -78 -80 -190 l0 -90 -305 0
-305 0 0 90 c0 112 -20 159 -80 190 -50 25 -90 25 -140 0 -60 -31 -80 -78 -80
-190 l0 -90 -300 0 -300 0 0 90 c0 112 -20 159 -80 190 -50 25 -90 25 -140 0
-60 -31 -80 -78 -80 -190 l0 -90 -300 0 -300 0 0 90 c0 71 -4 99 -20 130 -23
45 -80 80 -130 80 -50 0 -107 -35 -130 -80 -16 -31 -20 -59 -20 -130 l0 -90
-305 0 -305 0 0 90 c0 112 -20 159 -80 190 -49 25 -94 25 -142 -1z m-78 -669
c0 -71 4 -99 20 -130 23 -45 80 -80 130 -80 50 0 107 35 130 80 16 31 20 59
20 130 l0 90 305 0 305 0 0 -90 c0 -71 4 -99 20 -130 23 -45 80 -80 130 -80
50 0 107 35 130 80 16 31 20 59 20 130 l0 90 300 0 300 0 0 -90 c0 -71 4 -99
20 -130 23 -45 80 -80 130 -80 50 0 107 35 130 80 16 31 20 59 20 130 l0 90
300 0 300 0 0 -90 c0 -112 20 -159 80 -190 50 -25 90 -25 140 0 60 31 80 78
80 190 l0 90 305 0 305 0 0 -90 c0 -71 4 -99 20 -130 23 -45 80 -80 130 -80
50 0 107 35 130 80 16 31 20 59 20 130 l0 90 90 0 c112 0 159 -20 190 -80 18
-36 20 -58 20 -280 l0 -240 -2260 0 -2260 0 0 240 c0 222 2 244 20 280 31 60
75 79 188 80 l92 0 0 -90z m4220 -2410 c0 -1585 0 -1601 -20 -1640 -13 -26
-34 -47 -60 -60 -39 -20 -54 -20 -2180 -20 -2126 0 -2141 0 -2180 20 -26 13
-47 34 -60 60 -20 39 -20 55 -20 1640 l0 1600 2260 0 2260 0 0 -1600z" />
        <path
            d="M2490 3289 c-46 -28 -39 -19 -195 -291 -163 -285 -173 -306 -181
-394 -17 -178 78 -356 231 -435 l65 -34 0 -167 0 -168 -239 0 c-131 0 -262 -5
-292 -10 -180 -34 -325 -179 -359 -359 -5 -30 -10 -161 -10 -292 l0 -239 -90
0 c-71 0 -99 -4 -130 -20 -45 -23 -80 -80 -80 -130 0 -50 35 -107 80 -130 39
-20 56 -20 1270 -20 1214 0 1231 0 1270 20 45 23 80 80 80 130 0 50 -35 107
-80 130 -31 16 -59 20 -130 20 l-90 0 0 239 c0 131 -5 262 -10 292 -34 180
-179 325 -359 359 -30 5 -161 10 -292 10 l-239 0 0 168 0 167 65 34 c184 95
279 334 211 530 -12 37 -279 513 -309 552 -22 29 -81 59 -117 59 -19 0 -51
-10 -70 -21z m144 -560 c37 -66 70 -137 73 -158 11 -79 -64 -161 -147 -161
-83 0 -158 82 -147 161 4 33 134 279 147 279 3 0 36 -54 74 -121z m596 -1249
c26 -13 47 -34 60 -60 18 -36 20 -58 20 -280 l0 -240 -750 0 -750 0 0 240 c0
222 2 244 20 280 12 24 35 47 58 59 36 19 60 20 670 21 615 0 634 -1 672 -20z" />
    </g>
</svg>