<?xml version="1.0" encoding="UTF-8"?>
<svg version="1.1" viewBox="0 0 2048 2048" width="1280" height="1280"
    xmlns="http://www.w3.org/2000/svg">
    <path transform="translate(1022)"
        d="m0 0h8l3 3 27 15 17 10 52 30 24 14 28 16 24 14 28 16 24 14 28 16 24 14 28 16 24 14 28 16 17 10 130 75 24 14 28 16 24 14 52 30 28 16 4-1 15-11 21-12 15-6 20-6 17-3 11-1h24l18 2 17 4 20 7 17 8 17 11 14 11 12 11v2h2l9 11 10 14 9 16 7 15 6 19 4 19 2 20v14l-3 24-5 20-8 21-9 17-8 12-10 13-19 19-12 9-18 11-16 8-7 2-1 774-13 8-28 16-24 14-45 26-45 26-26 15-24 14-78 45-24 14-21 12-24 14-49 28-26 15-14 8-17 10-52 30-24 14-28 16-26 15-24 14-28 16-24 14-8 5 1 10v28l-2 17-6 25-7 18-8 16-9 14-14 18h-2l-2 4-4 4h-2v2l-11 9-16 11-18 10-20 8-22 6-9 2h-47l-30-8-19-7-21-11-16-12-10-9-8-7-7-8-11-14-12-20-9-21-5-17-4-22-1-11v-17l2-18 1-7-5-2-24-14-28-16-24-14-52-30-28-16-24-14-78-45-24-14-26-15-28-16-26-15-24-14-26-15-28-16-24-14-156-90-36-21-2-2v-771l-9-3-19-9-17-11-10-8-10-9-12-12-14-19-9-16-7-15-6-18-5-25-1-9v-22l3-23 5-20 8-21 9-17 12-17 13-15 9-9 17-13 16-10 21-10 20-6 21-4 11-1h23l23 3 25 7 20 9 14 8 17 12 2 2 6-1 21-12 24-14 26-15 28-16 24-14 234-135 24-14 21-12 24-14 28-16 24-14 23-13 48-28 28-16 26-15 21-12 24-14 10-6 3-1zm2 140-26 15-28 16-24 14-28 16-24 14-78 45-24 14-28 16-52 30-24 14-28 16-78 45-24 14-28 16-26 15-24 14-26 15-28 16-11 7 1 15v17l-2 23-6 25-7 18-8 16-7 11-8 11-9 10v2h-2l-6 7-14 11-10 7-17 10-14 7v705l8 5 26 15 28 16 24 14 52 30 28 16 45 26 24 14 28 16 24 14 28 16 17 10 26 15 24 14 23 13 24 14 28 16 17 10 104 60 21 12 3 2 5-1 14-10 18-10 15-6 20-6 24-4h31l21 3 19 5 20 8 20 11 16 12 2 2 5-1 23-13 24-14 49-28 43-25 208-120 24-14 21-12 24-14 28-16 71-41 24-14 23-13 24-14 18-10 4-3v-703l-16-8-15-8-17-12-13-12-12-12-12-16-11-19-7-16-5-15-5-25-1-10v-24l1-17-9-6-26-15-24-14-28-16-24-14-26-15-28-16-78-45-24-14-52-30-24-14-23-13-24-14-130-75-24-14-23-13-24-14-14-8z" />
    <path transform="translate(568,778)"
        d="m0 0 5 2 27 15 27 16 25 14 24 14 28 16 24 14 104 60 24 14 28 16 24 14 28 16 27 16 2 5v452l-1 2-5-2-17-10-104-60-45-26-24-14-28-16-24-14-130-75-19-11-1-15v-440z" />
    <path transform="translate(1022,445)"
        d="m0 0 5 1 28 16 26 15 24 14 21 12 24 14 21 12 26 15 24 14 28 16 24 14 28 16 24 14 28 16 67 39v2l-21 12-24 14-21 12-24 14-286 165-17 10-5 1-9-6-25-14-17-10-234-135-24-14-28-16-24-14-26-15-7-4 1-3 22-12 22-13 24-14 130-75 24-14 14-8 24-14 28-16 52-30 24-14 26-15z" />
    <path transform="translate(1477,778)"
        d="m0 0h3v457l-9 6-21 12-26 15-17 10-78 45-24 14-28 16-24 14-26 15-28 16-24 14-28 16-24 14-28 16-8 5h-3l-1-2v-453l5-5 52-30 24-14 28-16 24-14 156-90 21-12 19-11 26-15 23-13z" />
    <path transform="translate(990,2047)" d="m0 0 3 1z" />
</svg>