<?xml version="1.0" encoding="UTF-8"?>
<svg version="1.1" viewBox="0 0 2048 2048" width="512" height="512" xmlns="http://www.w3.org/2000/svg">
<path transform="translate(1007)" d="m0 0h36v2l24 9 36 15 44 18 83 34 39 16 41 17 37 15 92 38 37 15 41 17 27 11 173 71 41 17 37 15 80 33 46 19 32 13 12 7 10 8 9 11 7 15 2 10 1 17v1155l-1 23-2 10-4 10-7 11-7 8-10 7-16 8-49 20-36 15-37 15-36 15-37 15-36 15-39 16-207 85-44 18-24 10-156 64-37 15-41 17-88 36-37 15-5 2h-28l-37-15-207-85-41-17-54-22-34-14-46-19-37-15-41-17-44-18-112-46-134-55-124-51-16-8-12-11-8-10-6-13-3-16-1-62 1-1123 3-15 5-12 8-11 8-8 13-8 28-12 32-13 29-12 39-16 49-20 36-15 37-15 41-17 124-51 54-22 41-17 37-15 41-17 168-69 37-15 41-17 32-13 36-15 13-5zm17 134-16 6-54 22-41 17-163 67-73 30-95 39-156 64-124 51-18 7v2l38 16 44 18 39 16 73 30 36 15 10 4 4-1 17-7 25-11 87-38 85-37 43-19 37-16 41-18 37-16 32-14 60-26 41-18 30-13 41-18 131-57 8-4-4-3-30-13-37-15-41-17-49-20-46-19-10-4zm386 159-60 26-41 18-142 62-142 62-94 41-133 58-30 13-41 18-28 12-6 3 2 2 82 34 27 11 44 18 78 32 97 40 9-3 80-33 37-15 41-17 34-14 134-55 124-51 44-18 71-29 41-17 117-48 9-4-1-2-82-34-32-13-85-35-41-17-37-15-41-17-32-13zm-1226 245-1 16v1011l2 5 25 10 44 18 73 30 46 19 37 15 73 30 46 19 37 15 36 15 27 11 29 12 37 15 158 65 29 12 27 11 39 16 9 4h2v-1031l-13-6-83-34-41-17-44-18-78-32-95-39-6-1-1 289-3 12-9 17-7 8-11 8-11 5-11 3-7 1h-9l-16-3-14-7-12-10-8-11-5-10-4-16-1-37v-302l-4-3-36-15-83-34-41-17-120-49zm1678 0-37 15-41 17-34 14-44 18-41 17-124 51-39 16-32 13-41 17-71 29-41 17-39 16-32 13-46 19-83 34-27 11-1 1-1 1031 6-1 23-10 27-11 46-19 158-65 88-36 41-17 88-36 41-17 34-14 134-55 37-15 42-17 11-5v-1031z"/>
<path transform="translate(1042,2047)" d="m0 0"/>
<path transform="translate(1006,2047)" d="m0 0"/>
</svg>
