<svg xmlns="http://www.w3.org/2000/svg" xmlns:xlink="http://www.w3.org/1999/xlink" viewBox="0 0 512 512"><defs><style>.cls-1{isolation:isolate;}.cls-2{fill:#a9afc4;}.cls-3{fill:#5e6175;}.cls-4,.cls-5{mix-blend-mode:multiply;}.cls-4{fill:url(#linear-gradient);}.cls-5{fill:url(#linear-gradient-2);}.cls-6{fill:#f5f5f5;}.cls-7{fill:url(#linear-gradient-3);}.cls-8{fill:#e1830e;}</style><linearGradient id="linear-gradient" x1="243.46" y1="281.17" x2="243.46" y2="129.1" gradientUnits="userSpaceOnUse"><stop offset="0" stop-color="#cacfdd"/><stop offset="1" stop-color="#eef0f1"/></linearGradient><linearGradient id="linear-gradient-2" x1="330.01" y1="332.29" x2="410.9" y2="332.29" xlink:href="#linear-gradient"/><linearGradient id="linear-gradient-3" x1="243.46" y1="249.56" x2="243.46" y2="139.51" xlink:href="#linear-gradient"/></defs><title>Briefcase</title><g class="cls-1"><g id="Briefcase"><rect class="cls-2" x="76.01" y="156.92" width="334.89" height="215.82"/><polygon class="cls-3" points="141.23 231.42 141.23 372.75 160.32 372.75 160.32 237.41 141.23 231.42"/><polygon class="cls-3" points="345.69 231.42 345.69 372.75 326.61 372.75 326.61 237.41 345.69 231.42"/><polygon class="cls-4" points="410.9 156.92 410.9 228.36 287.89 266.97 199.02 266.97 76.02 228.36 76.02 156.92 410.9 156.92"/><path class="cls-5" d="M410.9,291.84v80.9H330A81,81,0,0,1,410.9,291.84Z"/><rect class="cls-3" x="353.47" y="93.99" width="19.5" height="6" transform="translate(37.8 285.24) rotate(-45)"/><rect class="cls-3" x="337.25" y="74.17" width="6" height="19.5"/><rect class="cls-3" x="367.07" y="115.78" width="19.5" height="6"/><path class="cls-3" d="M413.91,375.74H73V153.92H413.91ZM79,369.74H407.91V159.92H79Z"/><path class="cls-3" d="M308.74,139.17H289V112.92a19,19,0,0,0-19-19H210.55a19,19,0,0,0-19,19v26.25H171.8V112.92a38.75,38.75,0,0,1,38.75-38.75H270a38.75,38.75,0,0,1,38.75,38.75Z"/><path class="cls-3" d="M174.8,142.51H137.3V118.42h37.5Zm-31.5-6h25.5V124.42H143.3Z"/><path class="cls-3" d="M343.25,142.51H305.74V118.42h37.51Zm-31.51-6h25.51V124.42H311.74Z"/><circle class="cls-6" cx="410.91" cy="372.74" r="65.09"/><path class="cls-3" d="M410.91,440.83A68.09,68.09,0,1,1,479,372.74,68.16,68.16,0,0,1,410.91,440.83Zm0-130.18A62.09,62.09,0,1,0,473,372.74,62.16,62.16,0,0,0,410.91,310.65Z"/><path class="cls-7" d="M58,139.51v65.78L199,249.56H287.9L429,205.29V139.51Z"/><path class="cls-3" d="M288.36,252.56H198.57L55,207.49v-71H432v71Zm-88.87-6h87.95L426,203.09V142.51H61v60.58Z"/><rect class="cls-6" x="214.99" y="232.48" width="56.94" height="34.16" rx="10.74"/><path class="cls-3" d="M261.19,269.64H225.74A13.76,13.76,0,0,1,212,255.9V243.22a13.76,13.76,0,0,1,13.75-13.74h35.45a13.75,13.75,0,0,1,13.74,13.74V255.9A13.75,13.75,0,0,1,261.19,269.64Zm-35.45-34.16a7.75,7.75,0,0,0-7.75,7.74V255.9a7.75,7.75,0,0,0,7.75,7.74h35.45a7.75,7.75,0,0,0,7.74-7.74V243.22a7.75,7.75,0,0,0-7.74-7.74Z"/><polygon class="cls-8" points="438.01 340.27 438.01 409.68 401.56 409.68 385.62 394.13 385.62 340.27 438.01 340.27"/><polygon class="cls-6" points="391.21 390.33 405.77 390.33 405.77 404.16 391.21 390.33"/><path class="cls-3" d="M42.56,380a9.56,9.56,0,1,1,9.56-9.56A9.57,9.57,0,0,1,42.56,380Zm0-13.12a3.56,3.56,0,1,0,3.56,3.56A3.56,3.56,0,0,0,42.56,366.83Z"/><path class="cls-3" d="M90.81,423A13.15,13.15,0,1,1,104,409.88,13.17,13.17,0,0,1,90.81,423Zm0-20.29A7.15,7.15,0,1,0,98,409.88,7.15,7.15,0,0,0,90.81,402.74Z"/><path class="cls-2" d="M457,305.69h-6v-6h6Zm0-16h-6v-6h6Zm0-16h-6v-6h6Zm0-16h-6v-6h6Zm0-16h-6v-6h6Zm0-16h-6v-6h6Zm0-16h-6c0-5,0-5.14,0-5.89l6-.23C457,204.59,457,205,457,209.69ZM449.19,195a28.36,28.36,0,0,0-2.37-4.86l5.11-3.14a33.54,33.54,0,0,1,2.88,5.9ZM441,183.28a28.29,28.29,0,0,0-4.45-3.09l2.94-5.23a35.52,35.52,0,0,1,5.39,3.74Z"/><path class="cls-2" d="M416.62,176.58h-6v-6h6Zm-16,0h-6v-6h6Z"/></g></g></svg>