<?xml version="1.0" encoding="UTF-8"?>
<svg version="1.1" viewBox="0 0 2048 2048" width="512" height="512" xmlns="http://www.w3.org/2000/svg">
<path transform="translate(781,123)" d="m0 0 14 1 13 4 12 7 9 8 9 13 5 13 1 6v68h299v-63l2-12 7-16 7-9 7-7 11-7 15-5 15-1 16 3 14 7 10 8 8 10 6 12 3 12v68h303v-63l2-12 7-16 7-9 7-7 11-7 15-5 15-1 16 3 14 7 10 8 8 10 6 12 3 12v68h300l16 2 12 5 9 6 8 7 7 10 8 16v1593h-2l-8 16-8 10-8 6-12 6-9 3-7 1h-1582l-13-3-12-6-10-9-8-9-6-12-3-10-1-13-1-177-306-1-13-3-12-6-11-9-9-12-7-16v-30h2l1-6 7-13 9-10 17-16 8-7 19-19 1-2h2l2-4 13-14 9-11 10-12 13-17 12-16 14-20 17-26 14-23 14-24 13-24 10-19 15-30 15-33 14-33 11-28 11-30 14-41 11-36 12-43 13-55 7-33 9-51 7-48 5-46 3-33 3-53 1-28 1-403 2-13 7-16 8-10 9-8 16-8 7-2 10-1h305v-63l2-12 7-16 7-9 7-7 11-7 15-5zm-300 241-1 41v198l6 1h1439l2-1v-239h-238l-1 19-1 50-4 14-6 11-7 9-13 9-12 5-9 2h-17l-12-3-12-6-10-8-8-11-5-10-3-10-1-14-1-57h-302l-1 19-1 50-4 14-6 11-7 9-13 9-12 5-9 2h-17l-12-3-12-6-10-8-8-11-5-10-3-10-1-14-1-57h-298l-1 19-1 50-4 14-6 11-7 9-13 9-12 5-9 2h-17l-12-3-12-6-10-8-8-11-5-10-3-10-1-13-1-58zm-1 360-1 1-4 68-4 47-6 51-8 54-8 44-7 34-9 40-14 53-15 49-18 53-17 44-11 26-13 30-16 34-14 28-18 33-12 21-17 28-15 23-16 24-20 28-16 21-3 5h1406l8-7 9-9 7-8 6-6v-2h2l7-8 9-11 6-7v-2h2l11-14 3-4v-2h2l11-15 13-18 10-14 15-23 12-19 13-22 13-23 17-32 12-24 13-28 13-30 14-35 13-35 12-36 13-42 12-45 10-42 9-44 7-40 7-48 5-46 3-33 3-50v-14l-2-1zm1446 564-12 27-14 30-18 36-10 18-6 11-13 23-21 35-10 15-9 14-11 16-8 12-9 12-10 14-7 9-11 14-13 16-12 14-7 8-9 10-14 15-16 16-2 1v2l-4 2-12 11-13 8-10 4-11 2-1153 1-1 19v100l5 1h1440l2-1v-515z"/>
</svg>
