<?xml version="1.0" encoding="utf-8"?>
<!-- Generator: Adobe Illustrator 27.5.0, SVG Export Plug-In . SVG Version: 6.00 Build 0)  -->
<svg version="1.1" id="Layer_1" width="72" height="72" xmlns="http://www.w3.org/2000/svg"
	xmlns:xlink="http://www.w3.org/1999/xlink" x="0px" y="0px"
	viewBox="0 0 4000 4000" style="enable-background:new 0 0 4000 4000;border-radius:50%;"
	xml:space="preserve">
<rect x="-0.5" y="-0.5" style="fill:#FFFFFF;stroke:#000000;stroke-miterlimit:10;" width="4000" height="4000"/>
<g>
	<g>
		<defs>
			<path id="SVGID_1_" d="M1540.555,2678.25c385.725-89.442,592.874-278.657,676.969-538.611
				c-118.322,16.181-171.823,42.794-223.634,52.311C1896.734,2430.107,1699.5,2590.532,1540.555,2678.25"/>
		</defs>
		<clipPath id="SVGID_00000004545422731033538520000011070970532524046750_">
			<use xlink:href="#SVGID_1_"  style="overflow:visible;"/>
		</clipPath>
		
			<linearGradient id="SVGID_00000170241425184985910100000000321952294697271213_" gradientUnits="userSpaceOnUse" x1="1982.7251" y1="2330.7644" x2="1307.2006" y2="2840.1157">
			<stop  offset="0" style="stop-color:#00478F"/>
			<stop  offset="1" style="stop-color:#29C4FF"/>
		</linearGradient>
		
			<rect x="1540.555" y="2139.639" style="clip-path:url(#SVGID_00000004545422731033538520000011070970532524046750_);fill:url(#SVGID_00000170241425184985910100000000321952294697271213_);" width="676.969" height="538.611"/>
	</g>
	<g>
		<defs>
			<path id="SVGID_00000034058806811573836100000011691621714839327881_" d="M1699.186,2837.776
				c352.004-181.318,506.417-415.561,524.183-688.2c-110.739,44.708-156.079,83.63-203.972,105.564
				C1983.621,2509.852,1831.759,2713.752,1699.186,2837.776"/>
		</defs>
		<clipPath id="SVGID_00000099663554298773801780000002073338125721823111_">
			<use xlink:href="#SVGID_00000034058806811573836100000011691621714839327881_"  style="overflow:visible;"/>
		</clipPath>
		
			<linearGradient id="SVGID_00000005948202504343815690000013334455903921651888_" gradientUnits="userSpaceOnUse" x1="2089.5769" y1="2322.4214" x2="1531.0989" y2="3067.877">
			<stop  offset="0" style="stop-color:#00478F"/>
			<stop  offset="1" style="stop-color:#29C4FF"/>
		</linearGradient>
		
			<rect x="1699.186" y="2149.576" style="clip-path:url(#SVGID_00000099663554298773801780000002073338125721823111_);fill:url(#SVGID_00000005948202504343815690000013334455903921651888_);" width="524.183" height="688.2"/>
	</g>
	<g>
		<defs>
			<path id="SVGID_00000078763327759310318600000012234539901563525776_" d="M1931.942,2902.022
				c243.14-224.747,315.237-447.999,268.644-671.663c-79.247,60.766-107.086,102.259-140.779,130.633
				C2087.883,2574.234,2011.064,2772.466,1931.942,2902.022"/>
		</defs>
		<clipPath id="SVGID_00000132078587201905540080000000245888888171927454_">
			<use xlink:href="#SVGID_00000078763327759310318600000012234539901563525776_"  style="overflow:visible;"/>
		</clipPath>
		
			<linearGradient id="SVGID_00000034052122111895615690000016497954266025583529_" gradientUnits="userSpaceOnUse" x1="2153.2004" y1="2318.186" x2="1988.543" y2="2959.8569">
			<stop  offset="0" style="stop-color:#00478F"/>
			<stop  offset="1" style="stop-color:#29C4FF"/>
		</linearGradient>
		
			<rect x="1931.942" y="2230.36" style="clip-path:url(#SVGID_00000132078587201905540080000000245888888171927454_);fill:url(#SVGID_00000034052122111895615690000016497954266025583529_);" width="315.237" height="671.663"/>
	</g>
	<g>
		<defs>
			<path id="SVGID_00000167372417971982125830000016525022777321207987_" d="M1071.983,1526.347
				c133.695-622.793,962.653,167.097,1084.052,401.224c0,0,269.139,533.298-69.78,951.962
				c224.685-462.984-147.001-662.166-477.11-779.914c-368.351-131.395-312.557-403.894-442.091-469.35
				c-64.057-32.368-132.119,0.045-168.58,65.538C988.786,1638.504,993.955,1594.259,1071.983,1526.347"/>
		</defs>
		<clipPath id="SVGID_00000082353143797315056650000005078917921345291904_">
			<use xlink:href="#SVGID_00000167372417971982125830000016525022777321207987_"  style="overflow:visible;"/>
		</clipPath>
		
			<linearGradient id="SVGID_00000001633660919210892180000007278584244061708476_" gradientUnits="userSpaceOnUse" x1="1627.6412" y1="1022.802" x2="1727.3246" y2="2114.3174">
			<stop  offset="0" style="stop-color:#FFCE4B"/>
			<stop  offset="1" style="stop-color:#D3226F"/>
		</linearGradient>
		
			<rect x="988.786" y="903.555" style="clip-path:url(#SVGID_00000082353143797315056650000005078917921345291904_);fill:url(#SVGID_00000001633660919210892180000007278584244061708476_);" width="1436.387" height="1975.979"/>
	</g>
	<defs>
		<filter id="Adobe_OpacityMaskFilter" filterUnits="userSpaceOnUse" x="998.473" y="1522.905" width="1184.853" height="1291.884">
			<feColorMatrix  type="matrix" values="1 0 0 0 0  0 1 0 0 0  0 0 1 0 0  0 0 0 1 0"/>
		</filter>
	</defs>
	
		<mask maskUnits="userSpaceOnUse" x="998.473" y="1522.905" width="1184.853" height="1291.884" id="SVGID_00000075856177566754082640000013316988877842160046_">
		<g style="filter:url(#Adobe_OpacityMaskFilter);">
			
				<linearGradient id="SVGID_00000155850104659767042560000009598431638177390522_" gradientUnits="userSpaceOnUse" x1="-417.2798" y1="2752.0798" x2="-1339.3319" y2="1550.907" gradientTransform="matrix(1 0 0 1 2282.2234 -226.2319)">
				<stop  offset="0" style="stop-color:#FFFFFF"/>
				<stop  offset="1" style="stop-color:#000000"/>
			</linearGradient>
			
				<rect x="998.473" y="1522.905" style="fill:url(#SVGID_00000155850104659767042560000009598431638177390522_);" width="1184.853" height="1291.884"/>
		</g>
	</mask>
	
		<path style="mask:url(#SVGID_00000075856177566754082640000013316988877842160046_);fill-rule:evenodd;clip-rule:evenodd;fill:#990038;" d="
		M2114.49,2814.789c160.899-417.127-191.055-603.063-505.346-715.169c-368.351-131.395-312.557-403.894-442.091-469.35
		c-64.057-32.368-132.119,0.045-168.58,65.538c0,0,131.015-423.699,666.564,55.427
		C1665.038,1751.235,2408.605,2084.285,2114.49,2814.789"/>
	<path style="fill:none;stroke:#231916;stroke-width:0.5669;stroke-miterlimit:22.9256;" d="M1226.833,1690.635
		c364.106,354.271,660.032-997.415,1674.336-857.07c-977.007,97.701-931.95,1222.78-1448.895,1186.551"/>
	<g>
		<defs>
			<path id="SVGID_00000140003128704323455100000005471168799753724091_" d="M1781.524,2153.921
				c79.922-197.392,60.718-347.058-27.667-464.449c-29.469,57.07-52.371,105.736-64.207,131.479
				C1742.503,1956.401,1778.484,2093.548,1781.524,2153.921"/>
		</defs>
		<clipPath id="SVGID_00000127009233924225362100000001995357025745231234_">
			<use xlink:href="#SVGID_00000140003128704323455100000005471168799753724091_"  style="overflow:visible;"/>
		</clipPath>
		
			<linearGradient id="SVGID_00000057135212455187429740000006918789361836927158_" gradientUnits="userSpaceOnUse" x1="1770.3477" y1="1873.1351" x2="1812.8314" y2="2269.8596">
			<stop  offset="0" style="stop-color:#00478F"/>
			<stop  offset="1" style="stop-color:#51F4E9"/>
		</linearGradient>
		
			<rect x="1689.65" y="1689.472" style="clip-path:url(#SVGID_00000127009233924225362100000001995357025745231234_);fill:url(#SVGID_00000057135212455187429740000006918789361836927158_);" width="171.796" height="464.449"/>
	</g>
	<g>
		<defs>
			<path id="SVGID_00000081614926209445568090000013066487787114762655_" d="M1933.567,2183.486
				c81.25-288.12,31.352-494.279-110.233-644.682c-32.38,84.282-56.88,155.808-69.449,193.602
				C1848.606,1913.516,1920.015,2099.597,1933.567,2183.486"/>
		</defs>
		<clipPath id="SVGID_00000117668707717935148160000014160394266745871033_">
			<use xlink:href="#SVGID_00000081614926209445568090000013066487787114762655_"  style="overflow:visible;"/>
		</clipPath>
		
			<linearGradient id="SVGID_00000138540477539929045250000018025809850295013822_" gradientUnits="userSpaceOnUse" x1="1870.5515" y1="1762.7417" x2="1959.3843" y2="2396.2314">
			<stop  offset="0" style="stop-color:#00478F"/>
			<stop  offset="1" style="stop-color:#29C4FF"/>
		</linearGradient>
		
			<rect x="1753.885" y="1538.803" style="clip-path:url(#SVGID_00000117668707717935148160000014160394266745871033_);fill:url(#SVGID_00000138540477539929045250000018025809850295013822_);" width="260.932" height="644.682"/>
	</g>
	<g>
		<defs>
			<path id="SVGID_00000098904642685191016980000004800918359863097530_" d="M2153.463,2176.158
				c43.157-328.278-44.214-546.006-223.085-688.138c-22.051,97.397-46.694,162.162-54.448,205.527
				C2008.383,1876.736,2125.301,2086.489,2153.463,2176.158"/>
		</defs>
		<clipPath id="SVGID_00000132799830863707262800000008125447585414930619_">
			<use xlink:href="#SVGID_00000098904642685191016980000004800918359863097530_"  style="overflow:visible;"/>
		</clipPath>
		
			<linearGradient id="SVGID_00000154424894147311890720000004697684888793695665_" gradientUnits="userSpaceOnUse" x1="1888.6464" y1="1538.212" x2="2206.5132" y2="2170.9761">
			<stop  offset="0" style="stop-color:#003780"/>
			<stop  offset="1" style="stop-color:#B222D3"/>
		</linearGradient>
		
			<rect x="1875.929" y="1488.02" style="clip-path:url(#SVGID_00000132799830863707262800000008125447585414930619_);fill:url(#SVGID_00000154424894147311890720000004697684888793695665_);" width="320.69" height="688.137"/>
	</g>
	<g>
		<defs>
			<path id="SVGID_00000152254217376842457810000015878277366874229390_" d="M2325.187,2166.191
				c59.235-373.425-72.183-593.892-322.924-721.965c-19.359,35.664-37.409,70.242-53.689,102.267
				C2124.814,1752.932,2292.544,2051.684,2325.187,2166.191"/>
		</defs>
		<clipPath id="SVGID_00000154384250782674897020000002317829631571374236_">
			<use xlink:href="#SVGID_00000152254217376842457810000015878277366874229390_"  style="overflow:visible;"/>
		</clipPath>
		
			<linearGradient id="SVGID_00000029034082706717840140000016650025247020241031_" gradientUnits="userSpaceOnUse" x1="2180.7981" y1="1814.7565" x2="2581.6448" y2="2082.4077">
			<stop  offset="0" style="stop-color:#4E046D"/>
			<stop  offset="1" style="stop-color:#FF8BC7"/>
		</linearGradient>
		
			<rect x="1948.574" y="1444.225" style="clip-path:url(#SVGID_00000154384250782674897020000002317829631571374236_);fill:url(#SVGID_00000029034082706717840140000016650025247020241031_);" width="435.848" height="721.966"/>
	</g>
	<g>
		<defs>
			<path id="SVGID_00000087397932206117955550000002408956072274272185_" d="M2656.18,2049.754
				c-71.623-430.01-308.402-603.659-644.902-629.005c-14.448,26.139-28.213,51.85-41.101,76.513
				C2239.541,1632.728,2575.1,1931.261,2656.18,2049.754"/>
		</defs>
		<clipPath id="SVGID_00000049923297997757780680000000757053392015964088_">
			<use xlink:href="#SVGID_00000087397932206117955550000002408956072274272185_"  style="overflow:visible;"/>
		</clipPath>
		
			<linearGradient id="SVGID_00000088099548513825577040000005620147415203965364_" gradientUnits="userSpaceOnUse" x1="2010.2382" y1="1463.3246" x2="2823.4866" y2="2193.3157">
			<stop  offset="0" style="stop-color:#4E046D"/>
			<stop  offset="1" style="stop-color:#FF8BC7"/>
		</linearGradient>
		
			<rect x="1970.178" y="1420.749" style="clip-path:url(#SVGID_00000049923297997757780680000000757053392015964088_);fill:url(#SVGID_00000088099548513825577040000005620147415203965364_);" width="686.002" height="629.005"/>
	</g>
	<g>
		<defs>
			<path id="SVGID_00000007419282304977839470000004250290739023911312_" d="M2950.027,1843.032
				c-219.679-441.027-529.064-564.389-896.081-497.071c-22.094,37.423-43.197,75.254-62.75,111.638
				C2341.436,1518.947,2818.374,1737.95,2950.027,1843.032"/>
		</defs>
		<clipPath id="SVGID_00000137839740914292532020000005188473202225821852_">
			<use xlink:href="#SVGID_00000007419282304977839470000004250290739023911312_"  style="overflow:visible;"/>
		</clipPath>
		
			<linearGradient id="SVGID_00000126315933152992081910000003964020482140403877_" gradientUnits="userSpaceOnUse" x1="2384.9133" y1="1517.1851" x2="2996.2332" y2="1828.5793">
			<stop  offset="0" style="stop-color:#B91C58"/>
			<stop  offset="1" style="stop-color:#F95C97"/>
		</linearGradient>
		
			<rect x="1991.195" y="1278.643" style="clip-path:url(#SVGID_00000137839740914292532020000005188473202225821852_);fill:url(#SVGID_00000126315933152992081910000003964020482140403877_);" width="958.832" height="564.389"/>
	</g>
	<g>
		<defs>
			<path id="SVGID_00000097484871992937459300000000655742986913656968_" d="M3088.061,1592.559
				c-287.92-404.268-615.429-475.98-970.413-348.389c-24.979,37.378-49.46,77.21-72.746,117.24
				C2401.372,1357.681,2936.608,1506.465,3088.061,1592.559"/>
		</defs>
		<clipPath id="SVGID_00000063603423257261239850000009162737950459081887_">
			<use xlink:href="#SVGID_00000097484871992937459300000000655742986913656968_"  style="overflow:visible;"/>
		</clipPath>
		
			<linearGradient id="SVGID_00000074408006658616042590000014335633386712677534_" gradientUnits="userSpaceOnUse" x1="2224.3782" y1="1290.7479" x2="3226.1851" y2="1477.641">
			<stop  offset="0" style="stop-color:#B91C58"/>
			<stop  offset="1" style="stop-color:#FF8BC7"/>
		</linearGradient>
		
			<rect x="2044.901" y="1116.579" style="clip-path:url(#SVGID_00000063603423257261239850000009162737950459081887_);fill:url(#SVGID_00000074408006658616042590000014335633386712677534_);" width="1043.16" height="475.98"/>
	</g>
	<g>
		<defs>
			<path id="SVGID_00000090987068061388743620000016946302934608503446_" d="M3029.588,1308.533
				c-291.147-295.589-570.865-308.992-846.927-153.783c-26.203,32.582-52.538,69.899-78.216,109.458
				C2391.642,1201.395,2887.792,1255.494,3029.588,1308.533"/>
		</defs>
		<clipPath id="SVGID_00000048486782353610273100000004196201055509359758_">
			<use xlink:href="#SVGID_00000090987068061388743620000016946302934608503446_"  style="overflow:visible;"/>
		</clipPath>
		
			<linearGradient id="SVGID_00000002361153893380734540000003755067508498343332_" gradientUnits="userSpaceOnUse" x1="2980.2805" y1="1226.4601" x2="2293.4785" y2="1106.101">
			<stop  offset="0" style="stop-color:#FFCE4B"/>
			<stop  offset="1" style="stop-color:#D3226F"/>
		</linearGradient>
		
			<rect x="2104.445" y="999.541" style="clip-path:url(#SVGID_00000048486782353610273100000004196201055509359758_);fill:url(#SVGID_00000002361153893380734540000003755067508498343332_);" width="925.143" height="308.992"/>
	</g>
	<g>
		<defs>
			<path id="SVGID_00000075163095098353288940000004787304114538843792_" d="M1910.282,1635.979
				c191.031-324.248,410.82-744.408,990.888-802.415c-591.47-81.84-938.663,343.672-1197.543,642.412
				c-185.069,213.566-325.006,362.343-476.793,214.659c50.342,84.025,75.04,222.669,225.441,329.48
				C1662.299,2034.834,1779.558,1857.863,1910.282,1635.979"/>
		</defs>
		<clipPath id="SVGID_00000164494910208123310770000004114124602833104022_">
			<use xlink:href="#SVGID_00000075163095098353288940000004787304114538843792_"  style="overflow:visible;"/>
		</clipPath>
		
			<linearGradient id="SVGID_00000051382816876860059230000000743743058259586717_" gradientUnits="userSpaceOnUse" x1="1782.8685" y1="2110.2549" x2="2204.0271" y2="1036.1697">
			<stop  offset="0" style="stop-color:#00478F"/>
			<stop  offset="1" style="stop-color:#C11FDA"/>
		</linearGradient>
		
			<rect x="1226.833" y="751.724" style="clip-path:url(#SVGID_00000164494910208123310770000004114124602833104022_);fill:url(#SVGID_00000051382816876860059230000000743743058259586717_);" width="1674.336" height="1283.11"/>
	</g>
	<g>
		<defs>
			<path id="SVGID_00000150814081582351908050000003016483680832711317_" d="M3090.56,1062.826
				c-309.013-219.299-579.036-116.31-579.036-116.31c-148.529,78.037-261.792,187.273-355.192,306.428
				C2288.624,1086.196,2928.086,1032.896,3090.56,1062.826"/>
		</defs>
		<clipPath id="SVGID_00000058569432699818240100000017429943833413830548_">
			<use xlink:href="#SVGID_00000150814081582351908050000003016483680832711317_"  style="overflow:visible;"/>
		</clipPath>
		
			<linearGradient id="SVGID_00000065041874285163536190000002123022269563655851_" gradientUnits="userSpaceOnUse" x1="2993.4546" y1="1084.7754" x2="2034.6646" y2="990.091">
			<stop  offset="0" style="stop-color:#FFCE4B"/>
			<stop  offset="1" style="stop-color:#D3226F"/>
		</linearGradient>
		
			<rect x="2156.332" y="843.527" style="clip-path:url(#SVGID_00000058569432699818240100000017429943833413830548_);fill:url(#SVGID_00000065041874285163536190000002123022269563655851_);" width="934.227" height="409.417"/>
	</g>
	<defs>
		
			<filter id="Adobe_OpacityMaskFilter_00000116234336923814551900000002357443043486171804_" filterUnits="userSpaceOnUse" x="1297.779" y="833.496" width="1603.391" height="1187.475">
			<feColorMatrix  type="matrix" values="1 0 0 0 0  0 1 0 0 0  0 0 1 0 0  0 0 0 1 0"/>
		</filter>
	</defs>
	
		<mask maskUnits="userSpaceOnUse" x="1297.779" y="833.496" width="1603.391" height="1187.475" id="SVGID_00000153664418380952707080000012931505656044216238_">
		<g style="filter:url(#Adobe_OpacityMaskFilter_00000116234336923814551900000002357443043486171804_);">
			
				<linearGradient id="SVGID_00000094581410358954921430000008169871211706075525_" gradientUnits="userSpaceOnUse" x1="-1234.2349" y1="2579.3657" x2="355.6947" y2="1612.4377" gradientTransform="matrix(1 0 0 1 2422.353 -597.8843)">
				<stop  offset="0" style="stop-color:#FFFFFF"/>
				<stop  offset="1" style="stop-color:#000000"/>
			</linearGradient>
			
				<rect x="1297.778" y="833.496" style="fill:url(#SVGID_00000094581410358954921430000008169871211706075525_);" width="1603.391" height="1187.476"/>
		</g>
	</mask>
	
		<path style="mask:url(#SVGID_00000153664418380952707080000012931505656044216238_);fill-rule:evenodd;clip-rule:evenodd;fill:#102770;" d="
		M1823.334,1538.804c-331.444,510.564-525.558,299.938-525.556,299.938c31.544,60.918,75.824,125.501,154.496,181.373
		c210.024,14.719,327.284-162.252,458.007-384.135c191.031-324.248,410.82-744.408,990.888-802.415
		C2225.914,825.499,1823.334,1538.804,1823.334,1538.804"/>
	<path style="fill:#231916;" d="M2900.311,3293.116h16.176v-213.952h-20.144l-80.881,124.678l-81.795-124.678
		c-7.936,0-11.598,0-19.534,0v213.952h16.481v-190.094l82.406,125.288h5.494l81.796-125.288V3293.116z M2652.786,3079.165v132.766
		c0,91.563-131.24,91.867-131.24,0v-132.766h-16.176v132.766c0,112.012,163.592,111.707,163.592,0v-132.766H2652.786z
		 M2464.167,3112.738c-21.059-31.436-47.612-36.32-78.133-36.32c-35.099,0-82.101,14.04-81.186,59.21
		c0,39.372,39.983,47.308,79.049,54.938c35.1,6.714,70.503,13.734,70.198,45.782c0,37.846-41.814,45.17-68.062,45.17
		c-26.247,0-59.821-12.819-72.944-38.761l-14.651,7.325c16.481,32.658,54.327,46.392,87.595,46.392
		c35.709,0,84.238-11.598,84.543-59.821c0-46.087-42.73-53.412-83.933-61.347c-36.014-6.714-65.314-13.124-65.314-40.287
		c0-34.184,39.677-43.34,64.704-43.34c24.112,0.305,49.139,3.968,64.705,28.995L2464.167,3112.738z M2206.265,3219.256
		c92.783,0,92.783-140.091,0-140.091c-31.131,0-62.568,0-93.699,0v213.952h16.482v-73.861H2206.265z M2206.265,3094.425
		c71.114,0,71.114,109.875,0,109.875h-77.217v-109.875H2206.265z M2065.565,3293.116v-213.952h-16.176v213.952H2065.565z
		 M1904.72,3293.116h40.288v-213.341h-46.087l-66.841,91.715l-66.84-91.715h-46.392v213.341h40.288v-155.097l68.062,92.936h7.935
		l69.588-92.631V3293.116z M1687.411,3253.439h-119.948v-48.223h115.675v-37.541h-115.675v-49.444h119.948v-39.067h-159.93
		c0,71.317,0,142.838,0,213.952h159.93V3253.439z M1424.016,3116.706c25.333,0,36.625,17.143,36.625,34.336
		c0,17.194-10.988,34.336-36.625,34.336h-61.347v-68.672H1424.016z M1511.611,3290.369l-64.704-72.945
		c40.593-8.241,54.021-37.846,54.021-67.299c0-37.083-26.552-70.656-76.912-70.961c-33.878,0.305-67.756,0-101.635,0v213.952h40.288
		v-71.419h38.761l62.262,71.419h47.918V3290.369z M1182.901,3111.823c50.359,0,70.503,40.288,69.892,76.302
		c-0.61,35.099-19.533,72.945-69.892,72.945c-50.36,0-69.283-37.541-70.198-72.64
		C1111.787,3152.415,1132.541,3111.823,1182.901,3111.823z M1182.901,3075.197c-73.86,0-109.875,56.463-109.875,112.622
		c0,56.159,34.794,110.181,109.875,110.181s108.96-55.243,109.57-110.486C1293.081,3131.661,1256.456,3075.197,1182.901,3075.197z
		 M910.349,3079.165v213.952h150.163v-37.236H950.637v-176.716H910.349z"/>
</g>
</svg>