<svg xmlns="http://www.w3.org/2000/svg" xmlns:xlink="http://www.w3.org/1999/xlink"
    viewBox="0 0 512 512">
    <defs>
        <style>
            .cls-1{isolation:isolate;}.cls-2{fill:#5e6175;}.cls-3{fill:#dee1ec;}.cls-4,.cls-6{mix-blend-mode:multiply;}.cls-4{fill:url(#linear-gradient);}.cls-5{fill:#f5f5f5;}.cls-6{fill:url(#linear-gradient-2);}.cls-7{fill:#e1830e;}.cls-8{fill:#a9afc4;}</style>
        <linearGradient id="linear-gradient" x1="182.81" y1="396.71" x2="270.43" y2="396.71"
            gradientUnits="userSpaceOnUse">
            <stop offset="0" stop-color="#cacfdd" />
            <stop offset="1" stop-color="#eef0f1" />
        </linearGradient>
        <linearGradient id="linear-gradient-2" x1="317.46" y1="170.01" x2="417.23" y2="170.01"
            xlink:href="#linear-gradient" />
    </defs>
    <title>Connection Lost</title>
    <g class="cls-1">
        <g id="Connection_Lost" data-name="Connection Lost">
            <rect class="cls-2" x="428.13" y="390.15" width="6" height="19.63"
                transform="translate(-156.54 421.99) rotate(-45)" />
            <rect class="cls-2" x="434.48" y="373.83" width="19.63" height="6" />
            <rect class="cls-2" x="406.19" y="403.84" width="6" height="19.63" />
            <path class="cls-2"
                d="M119.75,84.93a11.31,11.31,0,0,1-8.91-18.24h0a11.3,11.3,0,1,1,8.91,18.24Zm-4.17-14.55h0A5.3,5.3,0,1,0,125,73,5.3,5.3,0,0,0,115.58,70.38Z" />
            <path class="cls-2"
                d="M77.27,109.93a8.77,8.77,0,1,1,6.94-3.38A8.78,8.78,0,0,1,77.27,109.93Zm0-11.55a2.78,2.78,0,1,0,2.18,4.48A2.78,2.78,0,0,0,77.29,98.38Z" />
            <rect class="cls-3" x="182.81" y="384.19" width="87.62" height="48.45" />
            <path class="cls-3" d="M278.59,446.67H174.64a7,7,0,0,1,0-14h104a7,7,0,0,1,0,14Z" />
            <path class="cls-2"
                d="M278.59,449.67H174.64a10,10,0,0,1,0-20h104a10,10,0,0,1,0,20Zm-103.95-14a4,4,0,0,0,0,8h104a4,4,0,0,0,0-8Z" />
            <rect class="cls-4" x="182.81" y="384.19" width="87.62" height="25.04" />
            <path class="cls-2"
                d="M273.43,435.64H179.81V381.19h93.62Zm-87.62-6h81.62V387.19H185.81Z" />
            <rect class="cls-3" x="36" y="130.56" width="381.23" height="253.63" rx="11.78" />
            <path class="cls-5"
                d="M417.24,142.37V335.61H36V142.45a11.88,11.88,0,0,1,11.88-11.89H405.43A11.81,11.81,0,0,1,417.24,142.37Z" />
            <path class="cls-5"
                d="M417.23,142.37V335.61H36V142.45a11.89,11.89,0,0,1,11.89-11.89H405.42A11.81,11.81,0,0,1,417.23,142.37Z" />
            <path class="cls-6"
                d="M417.23,142.36V206.6c-50.13,13.75-99.77-24-99.77-76h88A11.8,11.8,0,0,1,417.23,142.36Z" />
            <path class="cls-2"
                d="M405.45,387.19H47.78A14.8,14.8,0,0,1,33,372.41V142.34a14.8,14.8,0,0,1,14.78-14.78H405.45a14.8,14.8,0,0,1,14.78,14.78V372.41A14.8,14.8,0,0,1,405.45,387.19ZM47.78,133.56A8.79,8.79,0,0,0,39,142.34V372.41a8.79,8.79,0,0,0,8.78,8.78H405.45a8.79,8.79,0,0,0,8.78-8.78V142.34a8.79,8.79,0,0,0-8.78-8.78Z" />
            <ellipse class="cls-3" cx="396.3" cy="130.56" rx="65.25" ry="65.2" />
            <path class="cls-2"
                d="M396.3,198.8a68.24,68.24,0,1,1,68.24-68.24A68.29,68.29,0,0,1,396.3,198.8Zm0-130.47a62.24,62.24,0,1,0,62.24,62.23A62.24,62.24,0,0,0,396.3,68.33Z" />
            <path class="cls-2"
                d="M396.3,198.79c-16.48,0-29.4-30-29.4-68.23s12.92-68.23,29.4-68.23,29.41,30,29.41,68.23S412.79,198.79,396.3,198.79Zm0-130.46c-5.66,0-11.45,6.28-15.88,17.23-4.85,12-7.52,28-7.52,45,0,37.23,12.1,62.23,23.4,62.23,5.67,0,11.46-6.28,15.89-17.23,10-24.77,10-65.23,0-90C407.76,74.61,402,68.33,396.3,68.33Z" />
            <path class="cls-2"
                d="M341.49,95.57l-2.86-1.64,1.9-2.69c27.19-38.5,84.36-38.5,111.54,0l1.9,2.69-2.86,1.64C424.22,111,368.4,111,341.49,95.57Zm6-3.61c25.24,12.27,72.42,12.25,97.63,0A62.28,62.28,0,0,0,347.49,92Z" />
            <path class="cls-2"
                d="M340.53,169.88l-1.9-2.69,2.86-1.64c26.9-15.43,82.72-15.43,109.62,0l2.86,1.64-1.9,2.69C424.88,208.39,367.72,208.4,340.53,169.88Zm7-.72a62.26,62.26,0,0,0,97.63,0C419.88,156.89,372.69,156.91,347.49,169.16Z" />
            <rect class="cls-2" x="331.07" y="127.56" width="130.44" height="6" />
            <circle class="cls-5" cx="452.37" cy="170.7" r="23.63" />
            <path class="cls-2"
                d="M452.37,197.33A26.63,26.63,0,1,1,479,170.7,26.67,26.67,0,0,1,452.37,197.33Zm0-47.26A20.63,20.63,0,1,0,473,170.7,20.66,20.66,0,0,0,452.37,150.07Z" />
            <rect class="cls-7" x="440.68" y="166.73" width="23.46" height="7.94"
                transform="translate(11.8 369.9) rotate(-45)" />
            <rect class="cls-7" x="448.43" y="158.97" width="7.94" height="23.46"
                transform="translate(11.8 369.9) rotate(-45)" />
            <path class="cls-7"
                d="M121.08,273.09A26.1,26.1,0,0,1,95,247V230.19a26.14,26.14,0,0,1,26.11-26.11h51a26.13,26.13,0,0,1,26.11,26.1V247a26.13,26.13,0,0,1-26.1,26.11Zm51-52.52h-51a9.62,9.62,0,0,0-9.62,9.62V247a9.61,9.61,0,0,0,9.62,9.62h51a9.63,9.63,0,0,0,9.61-9.62v-16.8A9.62,9.62,0,0,0,172.07,220.57Z" />
            <path class="cls-7"
                d="M283,273.09A26.13,26.13,0,0,1,256.9,247v-16.8A26.14,26.14,0,0,1,283,204.08h51a26.14,26.14,0,0,1,26.11,26.11V247A26.13,26.13,0,0,1,334,273.09Zm0-52.52a9.63,9.63,0,0,0-9.62,9.62V247A9.63,9.63,0,0,0,283,256.6h51a9.63,9.63,0,0,0,9.62-9.61v-16.8a9.63,9.63,0,0,0-9.62-9.62Z" />
            <rect class="cls-8" x="431.55" y="234.11" width="6" height="6" />
            <path class="cls-8" d="M456.42,240h-6v-6h6Zm0-16h-6v-6h6Zm0-16h-6v-6h6Z" />
            <path class="cls-7"
                d="M215.23,247.68H172.94a9.1,9.1,0,0,1,0-18.19H215l5.23,2.9-7.4,3.36,7.4,3.81v5Z" />
            <path class="cls-7"
                d="M284.24,229.49H242.3l-5.34,3v6.09l5.63,2.76-5.63,3.4,4.78,2.93h42.5a9.1,9.1,0,0,0,0-18.19Z" />
            <polygon class="cls-7" points="194.97 297.38 217.69 275.59 212.01 306.65 194.97 297.38" />
            <polygon class="cls-7" points="235.31 288.52 235.31 259.79 253.56 281.95 235.31 288.52" />
            <polygon class="cls-7" points="210.59 171.44 218 199.2 194.65 182.5 210.59 171.44" />
            <polygon class="cls-7" points="258.38 193.48 235.31 210.6 242.23 182.74 258.38 193.48" />
            <circle class="cls-2" cx="226.62" cy="359.9" r="11.48" />
            <path class="cls-8" d="M402.25,240.11h-6v-6h6Zm-16,0h-6v-6h6Z" />
        </g>
    </g>
</svg>