<?xml version="1.0" encoding="UTF-8"?>
<svg version="1.1" viewBox="0 0 2048 2048" width="512" height="512" xmlns="http://www.w3.org/2000/svg">
<path transform="translate(131,465)" d="m0 0h1784l25 3 23 7 23 12 13 10 12 11 11 13 8 13 9 19 6 19 2 4h1v353h-3l-1 9-6 17-8 17-10 15-10 11-7 8-20 15-19 10-21 7-48 11-683 152-1 143-2 18-3 9-7 11-7 6-10 5-13 3-12 1h-266l-19-2-10-3-10-7-6-7-5-9-2-5-2-13v-150l-12-2-650-145-62-14-21-6-16-7-14-8-14-11-16-16-11-15-7-12-8-20-5-18-1-3v-341l6-21 4-12 8-16 6-10 11-14 11-11 17-13 21-11 19-6 18-3zm174 93-170 1-14 3-12 7-8 9-5 11-2 11-1 258v35l1 17 3 12 5 9 7 8 10 6 15 5 85 19 313 70 268 60 31 7 6 1 1-39 4-18 7-11 8-7 10-5 11-2 11-1h269l19 2 12 5 9 7 7 11 3 9 2 15 1 34 19-4 71-16 456-102 148-33 21-6 11-6 7-6 7-12 3-15v-305l-3-16-5-9-7-8-12-7-14-3-164-1zm628 559-2 5v181h185v-185l-2-1z"/>
<path transform="translate(86,1117)" d="m0 0h14l12 3 11 6 7 7 6 10 3 10 1 8 1 610 3 15 6 12 9 8 7 4 14 3 9 1h1664l21-2 11-4 10-7 7-10 3-10 2-15 1-608 4-16 7-11 7-6 12-6 9-2h16l12 3 11 7 8 9 5 10 3 15v612l-2 21-5 19-6 16-9 17-10 13-9 10-11 10-15 10-21 10-20 6-22 3-16 1h-1663l-29-2-15-3-21-7-17-9-11-8-13-11-9-10-10-13-12-23-6-20-3-17-1-10-1-35v-526l1-55 3-15 5-9 9-10 8-5 10-3z"/>
<path transform="translate(785,139)" d="m0 0h476l22 2 19 5 13 5 19 10 13 10 10 9 10 11 9 13 10 19 6 18 3 14 2 26v42l-2 16-4 10-6 9-7 6-12 6-10 2h-13l-13-3-10-6-5-5-6-8-4-9-2-9-1-19v-22l-1-18-4-16-7-10-6-5-10-5-8-2-10-1h-467l-16 3-9 5-7 6-7 11-3 13-1 9-1 47-3 16-6 11-4 5-12 8-16 4h-13l-13-3-10-6-8-8-6-11-3-15v-57l3-24 7-23 8-16 6-10 11-14 8-9 17-13 10-6 16-8 19-6 9-2z"/>
</svg>
