<svg
    width="20"
    height="17"
    viewBox="0 0 20 17"
    fill="none"
    xmlns="http://www.w3.org/2000/svg"
>
    <path
        fillRule="evenodd"
        clipRule="evenodd"
        d="M7.2273 0.765687C8.32873 0.725105 9.42504 0.934746 10.4338 1.37885C11.4425 1.82295 12.3375 2.48996 13.0514 3.32972C13.6596 4.04519 14.1228 4.8702 14.4173 5.75869H15.0002C16.0648 5.7594 17.0992 6.1146 17.9395 6.76825C18.7798 7.42189 19.3785 8.33675 19.6411 9.36844C19.9037 10.4001 19.8152 11.4899 19.3897 12.4657C18.9641 13.4415 18.2257 14.2479 17.291 14.7574C16.988 14.9227 16.6084 14.8109 16.4431 14.5079C16.2779 14.2048 16.3896 13.8252 16.6927 13.6599C17.3836 13.2833 17.9293 12.6873 18.2439 11.9661C18.5584 11.2448 18.6238 10.4393 18.4297 9.67677C18.2356 8.91422 17.7931 8.23802 17.172 7.75489C16.5509 7.27176 15.7867 7.00921 14.9998 7.00869H13.9502C13.6653 7.00869 13.4164 6.81599 13.3451 6.54014C13.1165 5.65597 12.6905 4.83513 12.099 4.13932C11.5075 3.44352 10.766 2.89086 9.93013 2.52289C9.09431 2.15492 8.18594 1.98121 7.27332 2.01484C6.3607 2.04846 5.46758 2.28854 4.6611 2.71702C3.85462 3.1455 3.15577 3.75123 2.61709 4.48867C2.0784 5.22612 1.71391 6.07609 1.551 6.97468C1.3881 7.87327 1.43102 8.7971 1.67654 9.67671C1.92207 10.5563 2.36381 11.3688 2.96854 12.0532C3.19712 12.3118 3.17274 12.7068 2.91408 12.9354C2.65543 13.1639 2.26045 13.1396 2.03188 12.8809C1.30202 12.055 0.768889 11.0744 0.472567 10.0128C0.176244 8.95117 0.124441 7.83621 0.321052 6.7517C0.517663 5.66719 0.957571 4.64137 1.6077 3.75135C2.25784 2.86133 3.10128 2.13028 4.07462 1.61315C5.04795 1.09602 6.12586 0.806268 7.2273 0.765687ZM10.0002 8.25871C10.3454 8.25871 10.6252 8.53853 10.6252 8.88371L10.6253 14.8748L12.8916 12.6084C13.1357 12.3644 13.5315 12.3644 13.7755 12.6084C14.0196 12.8525 14.0196 13.2483 13.7755 13.4923L10.4422 16.8257C10.325 16.9429 10.166 17.0087 10.0003 17.0087C9.8345 17.0087 9.67553 16.9429 9.55832 16.8257L6.22498 13.4923C5.98091 13.2483 5.98091 12.8525 6.22498 12.6084C6.46906 12.3644 6.86479 12.3644 7.10887 12.6084L9.37525 14.8748L9.37524 8.88371C9.37524 8.53853 9.65506 8.25871 10.0002 8.25871Z"
        fill="currentColor"
    />
</svg>