<?xml version="1.0" encoding="UTF-8"?>
<svg version="1.1" viewBox="0 0 2048 2048" width="512" height="512" xmlns="http://www.w3.org/2000/svg">
<path transform="translate(808)" d="m0 0h361v2l6 2 8 6 8 9 5 12v18l-4 10-7 9-7 6-8 4-10 2-326 1-22 2-19 5-16 7-14 8-14 11-13 13-12 17-8 16-6 16-3 15-1 8-1 23v637l2 23 4 17 8 20 9 15 11 14 11 11 15 11 21 11 15 5 16 3 8 1 711 1 13 2 11 6 26 22 28 24 11 9 10 9 11 9 10 9 11 9 15 13 28 24 11 9 15 13 14 12 11 9 9 8 11 9 12 11 2 1v-171l3-12 6-10 7-7 11-6 11-2 22-2 15-3 17-6 16-8 12-8 13-11 7-7 12-17 9-17 6-17 3-15 1-9v-670l-3-19-6-20-12-23-10-13-15-15-16-11-15-8-17-6-13-3-25-2-324-1-13-4-8-6-8-9-4-8-2-13 2-13 5-10 8-9 8-5 5-3h364v2l10 1 27 7 24 10 20 11 13 9 10 8 10 9 8 7 7 8 12 15 10 15 10 18 8 20 5 16 5 20 2 2v715l-2 2-6 25-6 18-12 25-11 18-11 14-9 10-16 16-17 13-16 10-19 10-15 6-24 7-7 2-1 226-4 12-7 9-7 6-8 4-8 2h-13l-10-3-11-7-10-9-11-9-11-10-11-9-15-13-28-24-11-9-10-9-11-9-15-13-42-36-13-11-11-9-11-10-11-9-15-13-28-24-13-11-8-7-3-1-95-1v197l-1 327-2 17-4 20-5 16-6 16-10 20-9 14-12 16-10 11-5 6-8 7-16 13-14 9-16 9-18 8-18 6-22 5-13 2-13 1-695 1-3 1-5 5-14 12-26 22-15 13-11 9-10 9-11 9-11 10-11 9-14 12-15 13-11 9-15 13-14 12-13 11-28 24-11 9-10 9-11 9-11 10-14 11-8 7-9 5h-3v2h-23l-14-8-7-7-6-10-2-7-1-19v-209l-8-1-20-6-16-6-20-10-21-14-11-9-10-9-13-13-9-11-11-16-10-17-8-18-7-21-7-30v-703l8-33 7-20 11-23 11-17 9-12 9-10 7-8 14-13 16-12 18-11 23-11 24-8 19-4 16-2 20-1h411v-512l2-24 5-25 6-19 9-21 8-15 8-12 9-12 9-10 7-8 6-6h2v-2l14-11 14-10 16-9 19-9 21-7 20-5zm-598 800-22 2-19 5-13 5-17 10-13 10-15 15-12 17-8 16-6 16-3 15-1 9-1 24v634l2 24 4 17 8 20 9 15 11 14 12 12 15 11 21 11 15 5 15 3 28 3 11 4 6 4 5 5 4 5 4 8 1 4 1 16v159h4l12-11 11-9 10-9 11-9 15-13 14-12 13-11 15-13 13-11 14-12 13-11 14-12 13-11 10-9 11-9 28-24 13-11 11-6 6-2 7-1 714-1 18-3 16-5 18-8 15-10 13-11 8-8 12-17 9-17 6-17 3-15 1-9v-519l-521-1-27-3-13-3h-3l3 10 24 64 8 21 21 56 19 50 21 56 17 45 11 29 23 61 5 15v17l-4 10-7 9-9 7-13 4h-13l-10-3-9-6-8-9-7-16-17-45-11-30-2-2h-218l-4 9-12 31-16 42-6 12-9 10-10 5-8 2h-13l-10-3-9-6-8-9-4-8-2-13 2-12 8-22 8-21 17-45 15-39 17-45 15-39 17-45 15-39 17-45 18-47 22-58 7-16 5-6-1-5-9-11-10-15-11-20-9-23-5-17-4-21-2-26-1-63zm503 320-5 10-15 40-21 55-19 50-18 47-2 5h158l-3-9-15-40-14-37-15-39-6-17-16-42-7-19z"/>
<path transform="translate(1334,205)" d="m0 0 11 1 10 4 6 4 5 5 6 8 3 7 1 5v110h220l17 1 10 4 8 6 8 9 4 9 1 4v17l-5 12-9 10-9 6-11 3-83 1h-54v13l-2 31-5 34-6 28-9 30-9 25-12 27-10 20-13 22-16 24v2l10 10 8 7 17 13 14 10 19 12 20 11 27 12 25 9 25 7 31 6 16 3 11 6 10 10 5 11 2 8-1 13-4 10-6 8-8 7-8 4-7 2h-17l-38-7-30-8-29-10-24-10-27-13-27-16-18-12-16-12-16-13-10-9-8-7-4 2-3 3h-2v2l-11 9-13 11-19 14-15 10-20 12-26 14-25 11-27 10-31 9-38 8-13 2h-16l-11-4-8-6-8-9-5-11-1-5v-9l3-12 7-11 9-8 13-5 33-6 28-7 26-9 21-9 17-8 18-10 17-11 14-10 14-11 20-18-2-5-16-24-13-23-8-16-9-19-11-29-8-26-7-29-5-32-3-31v-22h-123l-16-1-11-4-8-6-8-9-5-12-1-10 2-12 5-10 7-8 9-6 8-3 12-1h225v-104l2-12 6-11 6-7 9-6 9-3zm-27 225-27 1v15l4 39 6 29 7 25 10 27 9 20 10 19 8 14 4-1 11-19 8-15 10-23 12-36 6-26 4-24 3-35v-9l-5-1z"/>
<path transform="translate(1323)" d="m0 0h28v2l10 6 8 8 6 12 1 3v17l-4 11-6 8-8 7-8 4-8 2h-13l-10-3-9-6-7-7-6-12-2-13 2-11 3-8 7-9 9-7z"/>
<path transform="translate(198,2047)" d="m0 0 2 1z"/>
<path transform="translate(2047,176)" d="m0 0"/>
<path transform="translate(1170)" d="m0 0"/>
</svg>
