<svg xmlns="http://www.w3.org/2000/svg" xmlns:xlink="http://www.w3.org/1999/xlink" viewBox="0 0 512 512"><defs><style>.cls-1{isolation:isolate;}.cls-2{fill:#dee1ec;}.cls-3{fill:#a9afc4;}.cls-4{fill:#e08326;}.cls-5{mix-blend-mode:multiply;fill:url(#linear-gradient);}.cls-6{fill:#5e6175;}.cls-7{fill:#f5f5f5;}.cls-8{fill:#e1830e;}</style><linearGradient id="linear-gradient" x1="191.65" y1="249.36" x2="317.22" y2="249.36" gradientUnits="userSpaceOnUse"><stop offset="0" stop-color="#cacfdd"/><stop offset="1" stop-color="#eef0f1"/></linearGradient></defs><title>Language</title><g class="cls-1"><g id="Language"><path class="cls-2" d="M321.45,69.23a129.74,129.74,0,0,1,82.48,229.88l5.95,47.24L373,318.05A129.75,129.75,0,1,1,321.45,69.23Z"/><path class="cls-2" d="M403.93,299.11l5.95,47.24L373,318a129.21,129.21,0,0,1-56.44,10.56c-80.71-3-139.72-78.8-121.61-158.49a129.75,129.75,0,1,1,209,129Z"/><path class="cls-3" d="M468.23,181.26c-.22-1.94-.47-3.9-.76-5.83l5.93-.89c.3,2,.57,4.05.79,6.07Zm-2.54-15.46c-.41-1.9-.88-3.83-1.37-5.72l5.8-1.51c.52,2,1,4,1.43,5.94Zm-4.17-15.11c-.62-1.86-1.28-3.72-2-5.55l5.6-2.13c.73,1.9,1.42,3.85,2.06,5.78Zm-5.76-14.59c-.81-1.78-1.67-3.56-2.56-5.3l5.35-2.72c.92,1.81,1.82,3.67,2.67,5.52Zm-7.28-13.89c-1-1.68-2.05-3.37-3.11-5l5-3.27c1.11,1.7,2.19,3.45,3.24,5.2Zm-8.72-13c-1.17-1.58-2.39-3.14-3.61-4.64l4.65-3.79c1.28,1.57,2.54,3.2,3.77,4.83Zm-10-12c-1.33-1.44-2.7-2.86-4.08-4.23l4.23-4.26c1.44,1.43,2.87,2.91,4.25,4.41ZM418.47,86.23c-1.48-1.29-3-2.56-4.5-3.78l3.76-4.67c1.57,1.26,3.15,2.58,4.69,3.92Zm-12.34-9.67c-1.6-1.12-3.24-2.22-4.87-3.27l3.25-5.05c1.7,1.09,3.4,2.24,5.07,3.41Zm-13.28-8.3c-1.71-1-3.46-1.87-5.19-2.74l2.69-5.36c1.81.91,3.63,1.87,5.41,2.85Zm-14.08-6.84c-1.79-.76-3.62-1.49-5.45-2.17l2.1-5.62c1.91.71,3.82,1.47,5.68,2.26ZM364,56.12c-1.87-.57-3.78-1.1-5.66-1.58l1.5-5.81c2,.5,3.94,1.05,5.89,1.64Z"/><rect class="cls-4" x="313.31" y="131.3" width="15.89" height="40.21"/><rect class="cls-4" x="262.25" y="163.57" width="121.5" height="15.89"/><path class="cls-4" d="M278.17,263.15l-3.3-15.55c30.42-6.45,53.64-21.34,69-44.25,11.6-17.26,14.23-32.92,14.25-33.08l15.7,2.46c-.12.75-3,18.72-16.3,38.81C345.34,230,321.65,253.92,278.17,263.15Z"/><path class="cls-4" d="M364.35,263.15c-47.41-10.06-71.63-37.37-83.6-58.51l13.82-7.83c10.36,18.3,31.45,42,73.08,50.79Z"/><path class="cls-5" d="M316.55,328.6c-80.71-3-139.72-78.8-121.61-158.49C269.53,182.66,323.93,251.23,316.55,328.6Z"/><path class="cls-6" d="M413.76,353.1l-41.21-31.61a131.68,131.68,0,0,1-51.1,10.21c-73.19,0-132.74-59.54-132.74-132.73S248.26,66.23,321.45,66.23,454.18,125.78,454.18,199a132.39,132.39,0,0,1-47.07,101.39Zm-40.35-38.51,32.6,25-5.27-41.74c32-26.41,47.44-62.2,47.44-98.88a126.74,126.74,0,1,0-253.47,0C194.71,288,285.83,352.53,373.41,314.59Z"/><path class="cls-7" d="M170.53,185A129.73,129.73,0,0,0,88.05,414.91l-6,47.24L119,433.85A129.75,129.75,0,1,0,170.53,185Z"/><path class="cls-6" d="M78.21,468.9l6.66-52.74A132.37,132.37,0,0,1,37.79,314.77C37.79,241.58,97.34,182,170.53,182s132.73,59.55,132.73,132.74S243.72,447.5,170.53,447.5a131.69,131.69,0,0,1-51.11-10.21ZM170.53,188A126.89,126.89,0,0,0,43.79,314.77c0,36.56,15.33,72.4,47.44,98.88L86,455.39l32.6-25c87.37,37.85,178.7-26.3,178.7-115.62A126.88,126.88,0,0,0,170.53,188Z"/><polygon class="cls-8" points="84.15 341.95 72.97 341.95 104.7 280.07 135.9 341.95 124.75 341.92 104.63 302.02 84.15 341.95"/><rect class="cls-8" x="86.83" y="320.28" width="35.36" height="9.95"/><path class="cls-4" d="M159.46,305.66V289.47h14.46a8.1,8.1,0,1,1,0,16.19Zm14.46-25.59H150.06v60.57h9.4V315.06h14.46a17.5,17.5,0,1,0,0-35Z"/><path class="cls-4" d="M182.67,331.24H159.46V315.06h23.21a8.09,8.09,0,0,1,0,16.18Zm0-25.58H150.06v35h32.61a17.49,17.49,0,1,0,0-35Z"/><path class="cls-4" d="M242.61,341.33H232.13a19.73,19.73,0,0,1-19.7-19.71V299.09a19.73,19.73,0,0,1,19.7-19.7h10.48a19.73,19.73,0,0,1,19.71,19.7h-9.69a10,10,0,0,0-10-10H232.13a10,10,0,0,0-10,10v22.53a10,10,0,0,0,10,10h10.48a10,10,0,0,0,10-10h9.69A19.74,19.74,0,0,1,242.61,341.33Z"/><path class="cls-6" d="M176.74,119a12.11,12.11,0,1,1,11.38-7.94A12.07,12.07,0,0,1,176.74,119Zm0-18.21a6.11,6.11,0,1,0,5.72,8.2A6.12,6.12,0,0,0,176.77,100.8Z"/><path class="cls-6" d="M128.56,159A9.33,9.33,0,1,1,137,145.72,9.31,9.31,0,0,1,128.56,159Zm0-12.65a3.32,3.32,0,1,0,3.11,4.46A3.33,3.33,0,0,0,128.58,146.32Z"/><rect class="cls-6" x="325.71" y="366.8" width="6" height="18.62" transform="translate(-169.68 342.59) rotate(-45)"/><rect class="cls-6" x="331.89" y="351.17" width="18.62" height="6"/><rect class="cls-6" x="304.9" y="379.79" width="6" height="18.62"/></g></g></svg>