<?xml version="1.0" encoding="UTF-8"?>
<svg version="1.1" viewBox="0 0 2048 2048" width="512" height="512"
    xmlns="http://www.w3.org/2000/svg">
    <path transform="translate(651,93)"
        d="m0 0h186l1 1v185h651l1 1v185l-1 1h-272l-3 11-17 50-11 31-29 72-13 29-7 14-13 29-10 19-12 23-12 22-11 21-17 28-19 32-14 22-38 56-12 17-14 18-12 16-10 13-9 12-9 11-12 14-9 11-10 11-9 11-12 14-2 5 7 7 6 5v2l4 2 74 74 8 7 80 80 6 5 49 49-2 9-8 22-13 35-15 40-13 35-11 29-7 21h-3v-2l-3-1-5-6-2-1v-2l-3-1-5-6-4-3v-2l-3-1v-2l-4-2-5-6-3-2v-2l-4-2v-2l-4-2-5-6-7-6-5-6-6-5-6-7-6-5-6-7-6-5-6-7-7-6-5-6-6-5-6-7-7-6-5-6-7-6-5-6-7-6-5-6-6-5-6-7-6-5-6-7-6-5-6-7-80-80-8-7-4-5-3-1-464 464-4-2-11-12-105-105-6-5-6-7v-4l8-7 51-51h2l1-3 8-7 74-74h2v-2h2v-2h2v-2h2v-2l8-7 58-58h2l1-3 8-7 77-77h2l2-4h2l2-4h2v-2h2v-2h2v-2l8-7 71-71 8-7 64-64-6-8-11-12-9-11-10-11-11-14-11-13-7-9-12-15-15-20-16-21-10-14-14-20-28-42-30-48-32-56-18-35-10-19-12-25-12-26-2-5 1-1h186l6 10 13 24 13 23 15 27 11 17 15 23 11 18 12 18 12 17 13 17 13 18 14 19 11 14 13 15 11 13 9 11 13 15 8 9v2h4l2-5 7-7 9-11 26-30 13-17 21-27 15-20 13-19 12-17 11-16 14-22 13-21 15-24 16-29 13-23 15-29 12-25 12-24 30-70 9-24 13-35-1038-1v-186h651z" />
    <path transform="translate(1443,837)"
        d="m0 0h185l3 3 24 64 26 70 17 45 318 848 11 29 16 43 4 9 1 1v6h-186l-3-5-17-45-63-168-16-43-6-16v-2l-442 1-7 20-11 29-27 72-16 43-26 69-15 40-3 5h-186l1-6 30-80 16-43 11-29 345-920 14-37zm92 253-5 12-22 59-117 312-5 14 1 2 120 1h59l120-1-8-24-17-45-16-43-102-272-6-15z" />
</svg>