<?xml version="1.0" encoding="UTF-8"?>
<svg version="1.1" viewBox="0 0 1600 1600" width="100" height="100"
    xmlns="http://www.w3.org/2000/svg">
    <path transform="translate(405,415)"
        d="m0 0h18l15 4 12 6 9 7 9 10 7 12 4 12 1 6v9l-2 14-4 10-10 14-11 13-9 11-7 7-7 8-13 14-7 8-13 14-7 8-16 17-7 8-22 24-9 9-7 8-12 12-7 8-16 17-7 8-13 12-7 7 1 1 10 1 39 1h1133l40 1 21 1 13 2 10 4 12 9 10 11 5 8 5 14 1 5v14l-3 15-7 14-8 10-5 5-7 6-10 5-14 2-20 1-1068 1-158 1 12 14 24 24 7 8 8 8 7 8 12 13 9 10 10 10 7 8 7 7 7 8 12 13 7 8 7 7 7 8 7 7 7 8 16 17 18 20 13 18 7 15 2 8v15l-3 14-6 11-8 10-6 7-11 8-9 4-8 2-9 1h-12l-15-4-13-7-12-11-8-7-7-8-11-11-7-8-8-8-7-8-45-48-45-50-11-12-12-13-16-17-11-12-12-13-11-12-7-7-7-8-15-16-11-12-15-16-14-15-9-10-11-12-7-8-14-15-12-13-2-4 7-8 14-15 11-12 16-17 7-7 7-8 13-13 7-8 28-30 29-31 9-11 9-9 7-8 7-7 7-8 10-11 7-8 14-15 12-13 9-10 5-6h2l2-4h2l2-4 9-9 7-8 8-8 7-8 24-26 15-16 4-5h2l2-4 10-11 16-14 11-7 9-3z" />
</svg>