<svg width="3011" height="754" viewBox="0 0 3011 754" fill="none" xmlns="http://www.w3.org/2000/svg">
    <path
        d="M892.703 430.739H795.415C787.503 430.739 781.089 424.418 781.089 416.622V320.332C781.089 295.751 770.968 273.487 754.646 257.333C738.253 241.25 715.517 231.066 690.642 231.066C665.768 231.066 643.031 241.179 626.638 257.333C610.245 273.416 599.982 295.68 599.982 320.332V615.944C599.982 622.967 597.06 629.499 592.284 634.415C587.295 639.121 580.738 642 573.539 642C566.341 642 559.57 639.121 554.794 634.415C550.019 629.499 546.883 623.037 546.883 615.944V257.544C546.883 232.962 536.762 210.698 520.441 194.545C503.905 178.461 481.311 168.277 456.437 168.277C431.562 168.277 408.826 178.391 392.433 194.545C375.898 210.628 365.777 232.892 365.777 257.544V562.777C365.777 569.8 362.854 576.332 357.865 581.248C353.09 585.954 346.461 588.834 339.263 588.834C332.064 588.834 325.293 585.954 320.518 581.248C315.529 576.332 312.606 569.871 312.606 562.777V403.067C312.606 378.626 302.486 356.362 285.95 340.068C269.557 323.984 246.963 314.011 221.946 314.011C196.929 314.011 174.478 323.984 157.943 340.068C141.55 356.362 131.5 378.626 131.5 403.067V416.692C131.5 424.488 125.085 430.809 117.174 430.809H32.0019C14.326 430.809 0 444.926 0 462.344C0 479.762 14.326 493.878 32.0019 493.878H131.571C166.923 493.878 195.575 465.645 195.575 430.809V403.067C195.575 396.044 198.497 389.512 203.486 384.806C208.262 379.89 214.89 377.01 222.089 377.01C229.287 377.01 236.059 379.89 240.834 384.806C245.823 389.512 248.745 396.044 248.745 403.067V562.777C248.745 587.218 258.866 609.623 275.188 625.776C291.723 641.86 314.317 651.833 339.334 651.833C364.351 651.833 386.802 641.86 403.338 625.776C419.731 609.693 429.78 587.218 429.78 562.777V257.544C429.78 250.31 432.703 243.778 437.692 239.072C442.467 234.367 449.096 231.277 456.437 231.277C463.778 231.277 470.193 234.367 475.039 239.072C480.028 243.778 482.951 250.31 482.951 257.544V615.944C482.951 640.385 493.071 662.789 509.607 678.943C526 695.026 548.594 704.999 573.611 704.999C598.628 704.999 621.222 695.026 637.615 678.943C654.008 662.859 664.057 640.385 664.057 615.944V320.332C664.057 313.098 667.193 306.566 671.968 301.861C676.744 297.155 683.372 294.065 690.713 294.065C698.055 294.065 704.469 297.155 709.458 301.861C714.234 306.566 717.156 313.098 717.156 320.332V430.809C717.156 465.645 745.808 493.878 781.16 493.878H892.774C910.45 493.878 924.776 479.762 924.776 462.344C924.776 444.926 910.45 430.809 892.774 430.809L892.703 430.739Z"
        fill="#F15224" />
    <path
        d="M690.571 62.7188C655.361 62.7188 626.781 90.8823 626.781 125.507C626.781 160.132 655.361 188.155 690.571 188.155C725.78 188.155 754.218 160.132 754.218 125.507C754.218 90.8823 725.78 62.7188 690.571 62.7188Z"
        fill="#F15224" />
    <path
        d="M452.302 0C417.093 0 388.512 28.1635 388.512 62.7885C388.512 97.4134 417.093 125.436 452.302 125.436C487.512 125.436 515.95 97.4134 515.95 62.7885C515.95 28.1635 487.512 0 452.302 0Z"
        fill="#F15224" />
    <path
        d="M222.16 145.523C186.95 145.523 158.37 173.687 158.37 208.312C158.37 242.937 186.95 270.96 222.16 270.96C257.369 270.96 285.807 242.937 285.807 208.312C285.807 173.687 257.369 145.523 222.16 145.523Z"
        fill="#F15224" />
    <path
        d="M1135.2 296C1126.1 296 1119.1 293.55 1114.2 288.65C1109.3 283.75 1106.85 276.75 1106.85 267.65V77.6C1106.85 68.5 1109.3 61.5 1114.2 56.6C1119.1 51.7 1126.1 49.25 1135.2 49.25H1203.45C1245.68 49.25 1278.23 59.9833 1301.1 81.45C1324.2 102.683 1335.75 133.017 1335.75 172.45C1335.75 192.283 1332.72 209.9 1326.65 225.3C1320.82 240.467 1312.3 253.3 1301.1 263.8C1289.9 274.3 1276.13 282.35 1259.8 287.95C1243.47 293.317 1224.68 296 1203.45 296H1135.2ZM1161.1 251.55H1200.3C1213.6 251.55 1225.15 249.917 1234.95 246.65C1244.75 243.383 1252.92 238.483 1259.45 231.95C1265.98 225.417 1270.88 217.25 1274.15 207.45C1277.42 197.417 1279.05 185.75 1279.05 172.45C1279.05 145.85 1272.4 126.133 1259.1 113.3C1246.03 100.233 1226.43 93.7 1200.3 93.7H1161.1V251.55ZM1094.25 190.65C1087.72 190.65 1082.7 189.017 1079.2 185.75C1075.7 182.25 1073.95 177.467 1073.95 171.4C1073.95 165.1 1075.7 160.317 1079.2 157.05C1082.7 153.55 1087.72 151.8 1094.25 151.8H1209.05C1215.58 151.8 1220.6 153.433 1224.1 156.7C1227.6 159.967 1229.35 164.867 1229.35 171.4C1229.35 177.467 1227.6 182.25 1224.1 185.75C1220.6 189.017 1215.58 190.65 1209.05 190.65H1094.25ZM1436.69 299.85C1422.23 299.85 1410.21 297.167 1400.64 291.8C1391.08 286.433 1383.96 278.383 1379.29 267.65C1374.86 256.683 1372.64 243.15 1372.64 227.05V147.95C1372.64 139.083 1374.86 132.433 1379.29 128C1383.96 123.567 1390.49 121.35 1398.89 121.35C1407.29 121.35 1413.83 123.567 1418.49 128C1423.16 132.433 1425.49 139.083 1425.49 147.95V228.45C1425.49 238.717 1427.59 246.417 1431.79 251.55C1435.99 256.45 1442.64 258.9 1451.74 258.9C1461.78 258.9 1469.94 255.4 1476.24 248.4C1482.78 241.167 1486.04 231.717 1486.04 220.05V147.95C1486.04 139.083 1488.26 132.433 1492.69 128C1497.36 123.567 1503.89 121.35 1512.29 121.35C1520.93 121.35 1527.46 123.567 1531.89 128C1536.56 132.433 1538.89 139.083 1538.89 147.95V272.2C1538.89 290.167 1530.38 299.15 1513.34 299.15C1504.94 299.15 1498.53 296.817 1494.09 292.15C1489.66 287.483 1487.44 280.833 1487.44 272.2V248.75L1492.69 262.4C1487.56 274.3 1480.21 283.517 1470.64 290.05C1461.08 296.583 1449.76 299.85 1436.69 299.85ZM1475.19 98.95C1472.39 102.683 1469.01 104.783 1465.04 105.25C1461.31 105.717 1457.69 105.017 1454.19 103.15C1450.69 101.283 1448.13 98.6 1446.49 95.1C1445.09 91.3667 1445.44 87.4 1447.54 83.2L1472.39 33.85C1474.73 28.7167 1477.88 25.45 1481.84 24.05C1486.04 22.65 1490.24 22.5333 1494.44 23.7C1498.88 24.8666 1502.61 26.9666 1505.64 30C1508.91 32.8 1510.89 36.3 1511.59 40.5C1512.29 44.7 1511.01 49.0167 1507.74 53.45L1475.19 98.95ZM1606.39 299.15C1597.76 299.15 1591.11 296.817 1586.44 292.15C1582.01 287.483 1579.79 280.833 1579.79 272.2V147.95C1579.79 139.317 1582.01 132.783 1586.44 128.35C1591.11 123.683 1597.52 121.35 1605.69 121.35C1614.09 121.35 1620.51 123.683 1624.94 128.35C1629.37 132.783 1631.59 139.317 1631.59 147.95V167.9L1627.74 156.35C1633.11 144.917 1641.04 136.167 1651.54 130.1C1662.27 123.8 1674.41 120.65 1687.94 120.65C1701.71 120.65 1713.02 123.333 1721.89 128.7C1730.76 133.833 1737.41 141.767 1741.84 152.5C1746.27 163 1748.49 176.417 1748.49 192.75V272.2C1748.49 280.833 1746.16 287.483 1741.49 292.15C1737.06 296.817 1730.52 299.15 1721.89 299.15C1713.49 299.15 1706.96 296.817 1702.29 292.15C1697.86 287.483 1695.64 280.833 1695.64 272.2V195.2C1695.64 183.3 1693.42 174.783 1688.99 169.65C1684.79 164.283 1678.26 161.6 1669.39 161.6C1658.19 161.6 1649.21 165.1 1642.44 172.1C1635.91 179.1 1632.64 188.433 1632.64 200.1V272.2C1632.64 290.167 1623.89 299.15 1606.39 299.15ZM1870.54 362.85C1857.94 362.85 1845.81 361.8 1834.14 359.7C1822.71 357.6 1812.56 354.45 1803.69 350.25C1798.33 347.917 1794.48 344.883 1792.14 341.15C1790.04 337.417 1789.11 333.45 1789.34 329.25C1789.81 325.05 1791.21 321.317 1793.54 318.05C1796.11 314.783 1799.26 312.45 1802.99 311.05C1806.73 309.883 1810.69 310.233 1814.89 312.1C1825.16 316.767 1834.61 319.8 1843.24 321.2C1852.11 322.6 1859.69 323.3 1865.99 323.3C1880.93 323.3 1892.13 319.917 1899.59 313.15C1907.06 306.383 1910.79 296 1910.79 282V255.4H1913.94C1910.44 266.133 1903.21 274.883 1892.24 281.65C1881.28 288.417 1869.14 291.8 1855.84 291.8C1840.44 291.8 1827.03 288.3 1815.59 281.3C1804.16 274.067 1795.29 264.033 1788.99 251.2C1782.69 238.133 1779.54 223.083 1779.54 206.05C1779.54 193.217 1781.29 181.55 1784.79 171.05C1788.53 160.55 1793.66 151.567 1800.19 144.1C1806.96 136.633 1815.01 130.917 1824.34 126.95C1833.91 122.75 1844.41 120.65 1855.84 120.65C1869.61 120.65 1881.74 124.033 1892.24 130.8C1902.98 137.333 1910.09 145.967 1913.59 156.7L1910.09 167.9V147.95C1910.09 139.317 1912.31 132.783 1916.74 128.35C1921.41 123.683 1927.94 121.35 1936.34 121.35C1944.74 121.35 1951.16 123.683 1955.59 128.35C1960.03 132.783 1962.24 139.317 1962.24 147.95V276.05C1962.24 304.75 1954.31 326.333 1938.44 340.8C1922.81 355.5 1900.18 362.85 1870.54 362.85ZM1871.59 252.25C1879.53 252.25 1886.29 250.383 1891.89 246.65C1897.73 242.917 1902.28 237.667 1905.54 230.9C1908.81 223.9 1910.44 215.617 1910.44 206.05C1910.44 191.583 1906.83 180.383 1899.59 172.45C1892.59 164.283 1883.26 160.2 1871.59 160.2C1863.66 160.2 1856.78 162.067 1850.94 165.8C1845.11 169.3 1840.56 174.55 1837.29 181.55C1834.26 188.317 1832.74 196.483 1832.74 206.05C1832.74 220.517 1836.24 231.833 1843.24 240C1850.24 248.167 1859.69 252.25 1871.59 252.25ZM2127.63 299.15C2119 299.15 2112.35 296.817 2107.68 292.15C2103.25 287.483 2101.03 280.833 2101.03 272.2V147.95C2101.03 139.317 2103.25 132.783 2107.68 128.35C2112.35 123.683 2118.76 121.35 2126.93 121.35C2135.33 121.35 2141.75 123.683 2146.18 128.35C2150.61 132.783 2152.83 139.317 2152.83 147.95V167.9L2148.98 156.35C2154.35 144.917 2162.28 136.167 2172.78 130.1C2183.51 123.8 2195.65 120.65 2209.18 120.65C2222.95 120.65 2234.26 123.333 2243.13 128.7C2252 133.833 2258.65 141.767 2263.08 152.5C2267.51 163 2269.73 176.417 2269.73 192.75V272.2C2269.73 280.833 2267.4 287.483 2262.73 292.15C2258.3 296.817 2251.76 299.15 2243.13 299.15C2234.73 299.15 2228.2 296.817 2223.53 292.15C2219.1 287.483 2216.88 280.833 2216.88 272.2V195.2C2216.88 183.3 2214.66 174.783 2210.23 169.65C2206.03 164.283 2199.5 161.6 2190.63 161.6C2179.43 161.6 2170.45 165.1 2163.68 172.1C2157.15 179.1 2153.88 188.433 2153.88 200.1V272.2C2153.88 290.167 2145.13 299.15 2127.63 299.15ZM2391.78 362.85C2379.18 362.85 2367.05 361.8 2355.38 359.7C2343.95 357.6 2333.8 354.45 2324.93 350.25C2319.57 347.917 2315.72 344.883 2313.38 341.15C2311.28 337.417 2310.35 333.45 2310.58 329.25C2311.05 325.05 2312.45 321.317 2314.78 318.05C2317.35 314.783 2320.5 312.45 2324.23 311.05C2327.97 309.883 2331.93 310.233 2336.13 312.1C2346.4 316.767 2355.85 319.8 2364.48 321.2C2373.35 322.6 2380.93 323.3 2387.23 323.3C2402.17 323.3 2413.37 319.917 2420.83 313.15C2428.3 306.383 2432.03 296 2432.03 282V255.4H2435.18C2431.68 266.133 2424.45 274.883 2413.48 281.65C2402.52 288.417 2390.38 291.8 2377.08 291.8C2361.68 291.8 2348.27 288.3 2336.83 281.3C2325.4 274.067 2316.53 264.033 2310.23 251.2C2303.93 238.133 2300.78 223.083 2300.78 206.05C2300.78 193.217 2302.53 181.55 2306.03 171.05C2309.77 160.55 2314.9 151.567 2321.43 144.1C2328.2 136.633 2336.25 130.917 2345.58 126.95C2355.15 122.75 2365.65 120.65 2377.08 120.65C2390.85 120.65 2402.98 124.033 2413.48 130.8C2424.22 137.333 2431.33 145.967 2434.83 156.7L2431.33 167.9V147.95C2431.33 139.317 2433.55 132.783 2437.98 128.35C2442.65 123.683 2449.18 121.35 2457.58 121.35C2465.98 121.35 2472.4 123.683 2476.83 128.35C2481.27 132.783 2483.48 139.317 2483.48 147.95V276.05C2483.48 304.75 2475.55 326.333 2459.68 340.8C2444.05 355.5 2421.42 362.85 2391.78 362.85ZM2392.83 252.25C2400.77 252.25 2407.53 250.383 2413.13 246.65C2418.97 242.917 2423.52 237.667 2426.78 230.9C2430.05 223.9 2431.68 215.617 2431.68 206.05C2431.68 191.583 2428.07 180.383 2420.83 172.45C2413.83 164.283 2404.5 160.2 2392.83 160.2C2384.9 160.2 2378.02 162.067 2372.18 165.8C2366.35 169.3 2361.8 174.55 2358.53 181.55C2355.5 188.317 2353.98 196.483 2353.98 206.05C2353.98 220.517 2357.48 231.833 2364.48 240C2371.48 248.167 2380.93 252.25 2392.83 252.25ZM2587.87 299.85C2573.4 299.85 2561.38 297.167 2551.82 291.8C2542.25 286.433 2535.13 278.383 2530.47 267.65C2526.03 256.683 2523.82 243.15 2523.82 227.05V147.95C2523.82 139.317 2526.03 132.783 2530.47 128.35C2535.13 123.683 2541.67 121.35 2550.07 121.35C2558.47 121.35 2565 123.683 2569.67 128.35C2574.33 132.783 2576.67 139.317 2576.67 147.95V228.45C2576.67 238.717 2578.77 246.417 2582.97 251.55C2587.17 256.45 2593.82 258.9 2602.92 258.9C2612.95 258.9 2621.12 255.4 2627.42 248.4C2633.95 241.167 2637.22 231.717 2637.22 220.05V150.4C2637.22 141.533 2639.43 135.117 2643.87 131.15C2648.3 126.95 2654.48 124.267 2662.42 123.1C2666.85 122.4 2670.58 121.117 2673.62 119.25C2676.65 117.383 2678.98 114.583 2680.62 110.85C2682.48 107.117 2683.42 102.1 2683.42 95.8C2683.42 85.0667 2691.12 79.7 2706.52 79.7C2713.75 79.7 2719.35 81.1 2723.32 83.9C2727.28 86.4667 2729.27 90.3167 2729.27 95.45C2729.27 108.983 2725.65 120.533 2718.42 130.1C2711.42 139.433 2701.97 145.5 2690.07 148.3V272.2C2690.07 290.167 2681.55 299.15 2664.52 299.15C2656.12 299.15 2649.7 296.817 2645.27 292.15C2640.83 287.483 2638.62 280.833 2638.62 272.2V248.75L2643.87 262.4C2638.73 274.3 2631.38 283.517 2621.82 290.05C2612.25 296.583 2600.93 299.85 2587.87 299.85ZM2813.56 299.85C2795.13 299.85 2779.03 296.233 2765.26 289C2751.73 281.767 2741.23 271.383 2733.76 257.85C2726.3 244.317 2722.56 228.333 2722.56 209.9C2722.56 196.133 2724.66 183.767 2728.86 172.8C2733.06 161.833 2739.13 152.5 2747.06 144.8C2755.23 136.867 2764.91 130.917 2776.11 126.95C2787.31 122.75 2799.8 120.65 2813.56 120.65C2832 120.65 2847.98 124.267 2861.51 131.5C2875.28 138.733 2885.9 149 2893.36 162.3C2901.06 175.6 2904.91 191.467 2904.91 209.9C2904.91 223.9 2902.7 236.383 2898.26 247.35C2894.06 258.317 2888 267.767 2880.06 275.7C2872.13 283.633 2862.45 289.7 2851.01 293.9C2839.81 297.867 2827.33 299.85 2813.56 299.85ZM2813.56 260.3C2821.26 260.3 2827.91 258.433 2833.51 254.7C2839.11 250.967 2843.55 245.483 2846.81 238.25C2850.08 230.783 2851.71 221.333 2851.71 209.9C2851.71 192.867 2848.21 180.383 2841.21 172.45C2834.21 164.283 2825 160.2 2813.56 160.2C2806.1 160.2 2799.45 161.95 2793.61 165.45C2788.01 168.95 2783.58 174.433 2780.31 181.9C2777.28 189.133 2775.76 198.467 2775.76 209.9C2775.76 226.933 2779.26 239.65 2786.26 248.05C2793.26 256.217 2802.36 260.3 2813.56 260.3ZM2866.76 149.7L2835.61 130.45V124.15C2841.45 124.15 2846.35 123.567 2850.31 122.4C2854.51 121.233 2857.78 119.483 2860.11 117.15C2862.45 114.817 2864.2 111.9 2865.36 108.4C2866.53 104.667 2867.11 100.467 2867.11 95.8C2867.11 85.0667 2874.81 79.7 2890.21 79.7C2897.45 79.7 2903.05 81.1 2907.01 83.9C2910.98 86.4667 2912.96 90.3167 2912.96 95.45C2912.96 110.15 2908.65 122.517 2900.01 132.55C2891.61 142.35 2880.53 148.067 2866.76 149.7ZM2794.66 99.3L2761.76 53.8C2758.73 49.1333 2757.56 44.8167 2758.26 40.85C2758.96 36.65 2760.83 33.15 2763.86 30.35C2766.9 27.3167 2770.51 25.2167 2774.71 24.05C2779.15 22.8833 2783.35 23 2787.31 24.4C2791.51 25.8 2794.78 29.0667 2797.11 34.2L2821.96 83.55C2824.06 87.75 2824.41 91.7167 2823.01 95.45C2821.61 98.95 2819.16 101.633 2815.66 103.5C2812.16 105.367 2808.43 106.067 2804.46 105.6C2800.5 105.133 2797.23 103.033 2794.66 99.3ZM2963.67 298.8C2955.03 298.8 2948.38 296.35 2943.72 291.45C2939.28 286.317 2937.07 279.2 2937.07 270.1V150.4C2937.07 141.067 2939.28 133.95 2943.72 129.05C2948.38 123.917 2955.03 121.35 2963.67 121.35C2972.07 121.35 2978.48 123.917 2982.92 129.05C2987.58 133.95 2989.92 141.067 2989.92 150.4V270.1C2989.92 279.2 2987.7 286.317 2983.27 291.45C2978.83 296.35 2972.3 298.8 2963.67 298.8ZM2963.67 92.65C2953.87 92.65 2946.28 90.4333 2940.92 86C2935.78 81.3333 2933.22 74.8 2933.22 66.4C2933.22 57.7667 2935.78 51.2333 2940.92 46.8C2946.28 42.1333 2953.87 39.8 2963.67 39.8C2973.47 39.8 2980.93 42.1333 2986.07 46.8C2991.2 51.2333 2993.77 57.7667 2993.77 66.4C2993.77 74.8 2991.2 81.3333 2986.07 86C2980.93 90.4333 2973.47 92.65 2963.67 92.65Z"
        fill="#F15224" />
    <path
        d="M1135.2 677C1126.1 677 1119.1 674.55 1114.2 669.65C1109.3 664.75 1106.85 657.75 1106.85 648.65V458.6C1106.85 449.5 1109.3 442.5 1114.2 437.6C1119.1 432.7 1126.1 430.25 1135.2 430.25H1203.45C1245.68 430.25 1278.23 440.983 1301.1 462.45C1324.2 483.683 1335.75 514.017 1335.75 553.45C1335.75 573.283 1332.72 590.9 1326.65 606.3C1320.82 621.467 1312.3 634.3 1301.1 644.8C1289.9 655.3 1276.13 663.35 1259.8 668.95C1243.47 674.317 1224.68 677 1203.45 677H1135.2ZM1161.1 632.55H1200.3C1213.6 632.55 1225.15 630.917 1234.95 627.65C1244.75 624.383 1252.92 619.483 1259.45 612.95C1265.98 606.417 1270.88 598.25 1274.15 588.45C1277.42 578.417 1279.05 566.75 1279.05 553.45C1279.05 526.85 1272.4 507.133 1259.1 494.3C1246.03 481.233 1226.43 474.7 1200.3 474.7H1161.1V632.55ZM1094.25 571.65C1087.72 571.65 1082.7 570.017 1079.2 566.75C1075.7 563.25 1073.95 558.467 1073.95 552.4C1073.95 546.1 1075.7 541.317 1079.2 538.05C1082.7 534.55 1087.72 532.8 1094.25 532.8H1209.05C1215.58 532.8 1220.6 534.433 1224.1 537.7C1227.6 540.967 1229.35 545.867 1229.35 552.4C1229.35 558.467 1227.6 563.25 1224.1 566.75C1220.6 570.017 1215.58 571.65 1209.05 571.65H1094.25ZM1436.69 680.85C1422.23 680.85 1410.21 678.167 1400.64 672.8C1391.08 667.433 1383.96 659.383 1379.29 648.65C1374.86 637.683 1372.64 624.15 1372.64 608.05V528.95C1372.64 520.083 1374.86 513.433 1379.29 509C1383.96 504.567 1390.49 502.35 1398.89 502.35C1407.29 502.35 1413.83 504.567 1418.49 509C1423.16 513.433 1425.49 520.083 1425.49 528.95V609.45C1425.49 619.717 1427.59 627.417 1431.79 632.55C1435.99 637.45 1442.64 639.9 1451.74 639.9C1461.78 639.9 1469.94 636.4 1476.24 629.4C1482.78 622.167 1486.04 612.717 1486.04 601.05V528.95C1486.04 520.083 1488.26 513.433 1492.69 509C1497.36 504.567 1503.89 502.35 1512.29 502.35C1520.93 502.35 1527.46 504.567 1531.89 509C1536.56 513.433 1538.89 520.083 1538.89 528.95V653.2C1538.89 671.167 1530.38 680.15 1513.34 680.15C1504.94 680.15 1498.53 677.817 1494.09 673.15C1489.66 668.483 1487.44 661.833 1487.44 653.2V629.75L1492.69 643.4C1487.56 655.3 1480.21 664.517 1470.64 671.05C1461.08 677.583 1449.76 680.85 1436.69 680.85ZM1475.19 479.95C1472.39 483.683 1469.01 485.783 1465.04 486.25C1461.31 486.717 1457.69 486.017 1454.19 484.15C1450.69 482.283 1448.13 479.6 1446.49 476.1C1445.09 472.367 1445.44 468.4 1447.54 464.2L1472.39 414.85C1474.73 409.717 1477.88 406.45 1481.84 405.05C1486.04 403.65 1490.24 403.533 1494.44 404.7C1498.88 405.867 1502.61 407.967 1505.64 411C1508.91 413.8 1510.89 417.3 1511.59 421.5C1512.29 425.7 1511.01 430.017 1507.74 434.45L1475.19 479.95ZM1606.39 680.15C1597.76 680.15 1591.11 677.817 1586.44 673.15C1582.01 668.483 1579.79 661.833 1579.79 653.2V528.95C1579.79 520.317 1582.01 513.783 1586.44 509.35C1591.11 504.683 1597.52 502.35 1605.69 502.35C1614.09 502.35 1620.51 504.683 1624.94 509.35C1629.37 513.783 1631.59 520.317 1631.59 528.95V548.9L1627.74 537.35C1633.11 525.917 1641.04 517.167 1651.54 511.1C1662.27 504.8 1674.41 501.65 1687.94 501.65C1701.71 501.65 1713.02 504.333 1721.89 509.7C1730.76 514.833 1737.41 522.767 1741.84 533.5C1746.27 544 1748.49 557.417 1748.49 573.75V653.2C1748.49 661.833 1746.16 668.483 1741.49 673.15C1737.06 677.817 1730.52 680.15 1721.89 680.15C1713.49 680.15 1706.96 677.817 1702.29 673.15C1697.86 668.483 1695.64 661.833 1695.64 653.2V576.2C1695.64 564.3 1693.42 555.783 1688.99 550.65C1684.79 545.283 1678.26 542.6 1669.39 542.6C1658.19 542.6 1649.21 546.1 1642.44 553.1C1635.91 560.1 1632.64 569.433 1632.64 581.1V653.2C1632.64 671.167 1623.89 680.15 1606.39 680.15ZM1870.54 743.85C1857.94 743.85 1845.81 742.8 1834.14 740.7C1822.71 738.6 1812.56 735.45 1803.69 731.25C1798.33 728.917 1794.48 725.883 1792.14 722.15C1790.04 718.417 1789.11 714.45 1789.34 710.25C1789.81 706.05 1791.21 702.317 1793.54 699.05C1796.11 695.783 1799.26 693.45 1802.99 692.05C1806.73 690.883 1810.69 691.233 1814.89 693.1C1825.16 697.767 1834.61 700.8 1843.24 702.2C1852.11 703.6 1859.69 704.3 1865.99 704.3C1880.93 704.3 1892.13 700.917 1899.59 694.15C1907.06 687.383 1910.79 677 1910.79 663V636.4H1913.94C1910.44 647.133 1903.21 655.883 1892.24 662.65C1881.28 669.417 1869.14 672.8 1855.84 672.8C1840.44 672.8 1827.03 669.3 1815.59 662.3C1804.16 655.067 1795.29 645.033 1788.99 632.2C1782.69 619.133 1779.54 604.083 1779.54 587.05C1779.54 574.217 1781.29 562.55 1784.79 552.05C1788.53 541.55 1793.66 532.567 1800.19 525.1C1806.96 517.633 1815.01 511.917 1824.34 507.95C1833.91 503.75 1844.41 501.65 1855.84 501.65C1869.61 501.65 1881.74 505.033 1892.24 511.8C1902.98 518.333 1910.09 526.967 1913.59 537.7L1910.09 548.9V528.95C1910.09 520.317 1912.31 513.783 1916.74 509.35C1921.41 504.683 1927.94 502.35 1936.34 502.35C1944.74 502.35 1951.16 504.683 1955.59 509.35C1960.03 513.783 1962.24 520.317 1962.24 528.95V657.05C1962.24 685.75 1954.31 707.333 1938.44 721.8C1922.81 736.5 1900.18 743.85 1870.54 743.85ZM1871.59 633.25C1879.53 633.25 1886.29 631.383 1891.89 627.65C1897.73 623.917 1902.28 618.667 1905.54 611.9C1908.81 604.9 1910.44 596.617 1910.44 587.05C1910.44 572.583 1906.83 561.383 1899.59 553.45C1892.59 545.283 1883.26 541.2 1871.59 541.2C1863.66 541.2 1856.78 543.067 1850.94 546.8C1845.11 550.3 1840.56 555.55 1837.29 562.55C1834.26 569.317 1832.74 577.483 1832.74 587.05C1832.74 601.517 1836.24 612.833 1843.24 621C1850.24 629.167 1859.69 633.25 1871.59 633.25ZM2173.83 680.15C2167.06 680.15 2161.11 678.4 2155.98 674.9C2150.85 671.167 2146.76 665.683 2143.73 658.45L2090.88 536.65C2088.31 530.583 2087.38 524.983 2088.08 519.85C2088.78 514.483 2091.23 510.283 2095.43 507.25C2099.86 503.983 2105.93 502.35 2113.63 502.35C2119.93 502.35 2125.06 503.867 2129.03 506.9C2133 509.7 2136.5 515.183 2139.53 523.35L2180.83 628.35H2169.63L2212.68 523C2215.95 515.067 2219.56 509.7 2223.53 506.9C2227.5 503.867 2232.98 502.35 2239.98 502.35C2246.05 502.35 2250.83 503.983 2254.33 507.25C2258.06 510.283 2260.28 514.367 2260.98 519.5C2261.91 524.633 2260.98 530.233 2258.18 536.3L2204.28 658.45C2201.25 665.917 2197.16 671.4 2192.03 674.9C2187.13 678.4 2181.06 680.15 2173.83 680.15ZM2314.59 679.8C2305.96 679.8 2299.31 677.35 2294.64 672.45C2290.21 667.317 2287.99 660.2 2287.99 651.1V531.4C2287.99 522.067 2290.21 514.95 2294.64 510.05C2299.31 504.917 2305.96 502.35 2314.59 502.35C2322.99 502.35 2329.41 504.917 2333.84 510.05C2338.51 514.95 2340.84 522.067 2340.84 531.4V651.1C2340.84 660.2 2338.63 667.317 2334.19 672.45C2329.76 677.35 2323.23 679.8 2314.59 679.8ZM2314.59 473.65C2304.79 473.65 2297.21 471.433 2291.84 467C2286.71 462.333 2284.14 455.8 2284.14 447.4C2284.14 438.767 2286.71 432.233 2291.84 427.8C2297.21 423.133 2304.79 420.8 2314.59 420.8C2324.39 420.8 2331.86 423.133 2336.99 427.8C2342.13 432.233 2344.69 438.767 2344.69 447.4C2344.69 455.8 2342.13 462.333 2336.99 467C2331.86 471.433 2324.39 473.65 2314.59 473.65ZM2470.9 680.85C2450.6 680.85 2433.1 677.233 2418.4 670C2403.93 662.533 2392.73 652.15 2384.8 638.85C2377.1 625.317 2373.25 609.45 2373.25 591.25C2373.25 573.517 2376.98 558 2384.45 544.7C2391.91 531.167 2402.3 520.667 2415.6 513.2C2429.13 505.5 2444.41 501.65 2461.45 501.65C2473.81 501.65 2485.01 503.75 2495.05 507.95C2505.08 511.917 2513.71 517.75 2520.95 525.45C2528.18 532.917 2533.66 542.133 2537.4 553.1C2541.13 563.833 2543 575.85 2543 589.15C2543 593.583 2541.6 596.967 2538.8 599.3C2536 601.4 2531.91 602.45 2526.55 602.45H2416.65V575.15H2504.85L2499.25 580.05C2499.25 570.483 2497.85 562.55 2495.05 556.25C2492.25 549.717 2488.16 544.817 2482.8 541.55C2477.66 538.283 2471.25 536.65 2463.55 536.65C2454.91 536.65 2447.56 538.633 2441.5 542.6C2435.43 546.567 2430.76 552.283 2427.5 559.75C2424.23 567.217 2422.6 576.2 2422.6 586.7V589.5C2422.6 607.233 2426.68 620.3 2434.85 628.7C2443.25 637.1 2455.61 641.3 2471.95 641.3C2477.55 641.3 2483.96 640.6 2491.2 639.2C2498.43 637.8 2505.2 635.583 2511.5 632.55C2516.86 629.983 2521.65 629.167 2525.85 630.1C2530.05 630.8 2533.31 632.667 2535.65 635.7C2537.98 638.733 2539.26 642.233 2539.5 646.2C2539.96 650.167 2539.15 654.133 2537.05 658.1C2534.95 661.833 2531.45 664.983 2526.55 667.55C2518.61 671.983 2509.63 675.25 2499.6 677.35C2489.8 679.683 2480.23 680.85 2470.9 680.85ZM2461.8 753.65C2453.4 753.65 2446.86 751.433 2442.2 747C2437.76 742.8 2435.55 736.733 2435.55 728.8C2435.55 720.633 2437.76 714.45 2442.2 710.25C2446.86 706.05 2453.4 703.95 2461.8 703.95C2470.43 703.95 2476.96 706.05 2481.4 710.25C2485.83 714.45 2488.05 720.633 2488.05 728.8C2488.05 736.733 2485.83 742.8 2481.4 747C2476.96 751.433 2470.43 753.65 2461.8 753.65ZM2513.6 464.9C2515.93 469.333 2516.4 473.3 2515 476.8C2513.83 480.3 2511.61 482.983 2508.35 484.85C2505.08 486.483 2501.58 487.067 2497.85 486.6C2494.11 486.133 2490.96 483.917 2488.4 479.95L2461.8 439.7L2435.2 479.95C2432.63 483.917 2429.48 486.133 2425.75 486.6C2422.01 487.067 2418.51 486.483 2415.25 484.85C2411.98 482.983 2409.65 480.3 2408.25 476.8C2407.08 473.3 2407.66 469.333 2410 464.9L2432.75 423.25C2436.01 416.95 2440.1 412.283 2445 409.25C2449.9 405.983 2455.5 404.35 2461.8 404.35C2468.33 404.35 2474.05 405.983 2478.95 409.25C2483.85 412.283 2487.93 416.95 2491.2 423.25L2513.6 464.9ZM2657.39 680.85C2638.72 680.85 2622.39 677.233 2608.39 670C2594.62 662.533 2584 652.033 2576.54 638.5C2569.07 624.967 2565.34 608.983 2565.34 590.55C2565.34 576.783 2567.44 564.417 2571.64 553.45C2575.84 542.483 2581.9 533.15 2589.84 525.45C2598 517.75 2607.8 511.917 2619.24 507.95C2630.67 503.75 2643.39 501.65 2657.39 501.65C2664.62 501.65 2672.32 502.583 2680.49 504.45C2688.65 506.083 2696.7 509 2704.64 513.2C2709.3 515.3 2712.45 518.333 2714.09 522.3C2715.95 526.033 2716.65 530 2716.19 534.2C2715.72 538.167 2714.2 541.783 2711.64 545.05C2709.3 548.083 2706.27 550.183 2702.54 551.35C2698.8 552.283 2694.6 551.583 2689.94 549.25C2685.5 546.683 2680.84 544.817 2675.94 543.65C2671.27 542.483 2666.84 541.9 2662.64 541.9C2655.64 541.9 2649.45 543.067 2644.09 545.4C2638.72 547.5 2634.17 550.65 2630.44 554.85C2626.94 558.817 2624.14 563.833 2622.04 569.9C2620.17 575.967 2619.24 582.967 2619.24 590.9C2619.24 606.3 2622.97 618.433 2630.44 627.3C2638.14 635.933 2648.87 640.25 2662.64 640.25C2666.84 640.25 2671.27 639.783 2675.94 638.85C2680.6 637.683 2685.27 635.817 2689.94 633.25C2694.6 630.917 2698.8 630.333 2702.54 631.5C2706.27 632.667 2709.19 634.883 2711.29 638.15C2713.62 641.183 2714.9 644.8 2715.14 649C2715.6 652.967 2714.9 656.933 2713.04 660.9C2711.4 664.633 2708.37 667.55 2703.94 669.65C2696 673.617 2688.07 676.417 2680.14 678.05C2672.2 679.917 2664.62 680.85 2657.39 680.85Z"
        fill="#F15224" />
</svg>