<svg xmlns="http://www.w3.org/2000/svg" xmlns:xlink="http://www.w3.org/1999/xlink" viewBox="0 0 512 512"><defs><style>.cls-1{isolation:isolate;}.cls-2{fill:#e1830e;}.cls-3{fill:#a9afc4;}.cls-4{fill:#f5f5f5;}.cls-5{mix-blend-mode:multiply;fill:url(#linear-gradient);}.cls-6{fill:#5e6175;}</style><linearGradient id="linear-gradient" x1="219.05" y1="329.48" x2="219.05" y2="245.88" gradientUnits="userSpaceOnUse"><stop offset="0" stop-color="#cacfdd"/><stop offset="1" stop-color="#eef0f1"/></linearGradient></defs><title>Magic Hat</title><g class="cls-1"><g id="Magic_Hat" data-name="Magic Hat"><path class="cls-2" d="M92.25,135a29.17,29.17,0,0,1,29.17,29.16A29.16,29.16,0,0,1,150.58,135a29.17,29.17,0,0,1-29.16-29.17A29.17,29.17,0,0,1,92.25,135Z"/><path class="cls-2" d="M304.52,64.23A14.27,14.27,0,0,1,318.78,78.5a14.27,14.27,0,0,1,14.27-14.27A14.26,14.26,0,0,1,318.78,50,14.26,14.26,0,0,1,304.52,64.23Z"/><path class="cls-3" d="M96.18,233.34V460.58s45.68,14.84,122.87,14.84,122.86-14.84,122.86-14.84V233.34Z"/><path class="cls-4" d="M341.9,252.26v73.48S296.23,340.57,219,340.57,96.18,325.74,96.18,325.74V252.26Z"/><path class="cls-4" d="M341.9,252.26v73.48s-45.67,14.83-122.85,14.83S96.19,325.74,96.19,325.74V252.26Z"/><path class="cls-5" d="M341.9,252.26v47.6c-68.21,20.25-177.44,20.27-245.71,0v-47.6Z"/><path class="cls-6" d="M128.15,471.54c-11.05-2-24.32-4.74-35-8.2V230.92H344.91V463.34c-10.64,3.46-23.91,6.25-35,8.2C255,481.22,186.17,481.75,128.15,471.54Zm-29-12.61a296.9,296.9,0,0,0,30.17,6.73c74,13,160.56,7.42,209.56-6.73v-222H99.18Z"/><ellipse class="cls-3" cx="219.05" cy="233.92" rx="175.67" ry="53.26"/><path class="cls-6" d="M48.3,251.28c-5.41-5.53-8.07-11.4-7.93-17.44.18-7.47,4-14.66,11.25-21.39,26.53-24.49,95.44-38.8,167.59-34.78,41.88,2.32,178.51,13.25,178.51,56.25,0,15.66-19,30.05-53.58,40.52C251.32,302.58,87.84,291.79,48.3,251.28ZM194.8,183C110.33,183,47,207.4,46.37,234c-.1,4.36,2,8.76,6.22,13.1,36.32,37.2,196.16,50,289.81,21.61,31.34-9.5,49.32-22.18,49.32-34.78,0-12.16-17.51-23.79-49.32-32.75C299.75,189.14,232.88,183,194.8,183Z"/><rect class="cls-3" x="325.82" y="112.45" width="158.96" height="20.16" transform="translate(32.07 322.48) rotate(-45)"/><path class="cls-6" d="M356.23,190.1l-18.5-18.5L454.38,55l18.5,18.5Zm-10-18.5,10,10L464.39,73.46l-10-10Z"/><rect class="cls-4" x="314.88" y="182.83" width="40.1" height="20.16" transform="translate(-38.31 293.33) rotate(-45)"/><path class="cls-6" d="M327.88,218.45,309.38,200l32.6-32.6,18.49,18.5Zm-10-18.49,10,10L352,185.86l-10-10Z"/><path class="cls-6" d="M144.19,259.22c-21.45-6.5-32.78-15.25-32.78-25.3,0-32.45,117.56-45,182.5-25.31,21.44,6.51,32.78,15.25,32.78,25.31C326.69,266.36,209.13,278.9,144.19,259.22Zm74.86-54c-27.67,0-53.63,3.26-73.12,9.17-17.86,5.41-28.52,12.72-28.52,19.56,0,13.58,41.74,28.72,101.64,28.72,27.66,0,53.63-3.26,73.12-9.16,17.86-5.42,28.52-12.73,28.52-19.56C320.69,220.33,279,205.19,219.05,205.19Z"/><ellipse class="cls-6" cx="219.05" cy="233.92" rx="104.64" ry="31.72"/><path class="cls-4" d="M274.82,102.92l-77.4-17.44a9.57,9.57,0,0,1-2.35-17.82l16.72-8.78A69.19,69.19,0,0,1,244,50.94h31.2v-1.1l-12.11-6.21a69.21,69.21,0,0,0-55.64-3.32L176.14,51.9a26.9,26.9,0,0,0,5.27,51.82l35.26,9.73a13.94,13.94,0,0,1,.53,26.73l-25,8a17.39,17.39,0,0,0-1.28,32.67l2.61,1.06a25.46,25.46,0,0,1,8.37,41.55l-9.22,9.23v.61l33.4-17A25.42,25.42,0,0,0,240,193.58v-15a17.4,17.4,0,0,1,12.91-16.81l22.95-6.12a27.15,27.15,0,0,0-1-52.72Z"/><path class="cls-6" d="M189.69,238.18v-6.75l10.1-10.11a22.44,22.44,0,0,0-7.38-36.65l-2.62-1.07a20.39,20.39,0,0,1,1.51-38.3l25-8a10.94,10.94,0,0,0-.42-21l-35.09-9.68a29.9,29.9,0,0,1-5.69-57.57l31.3-11.59A72.22,72.22,0,0,1,264.44,41l13.75,7v5.93H244a66.36,66.36,0,0,0-30.8,7.6l-16.73,8.78a6.58,6.58,0,0,0,1.61,12.24L275.48,100a30.15,30.15,0,0,1,1.14,58.54l-23,6.12A14.42,14.42,0,0,0,243,178.57v15a28.35,28.35,0,0,1-15.52,25.35ZM208.48,43.12l-31.3,11.6a23.9,23.9,0,0,0,4.69,46c.53.11,9.14,2.5,35.6,9.79a17,17,0,0,1,.65,32.49l-25,8a14.39,14.39,0,0,0-1.07,27l2.61,1.07A28.45,28.45,0,0,1,206.35,223l18.38-9.37a22.33,22.33,0,0,0,12.25-20v-15a20.43,20.43,0,0,1,15.14-19.71l22.95-6.12a24.15,24.15,0,0,0-.91-46.89l-77.4-17.44c-11.49-2.59-13.35-18-3.09-23.4l16.73-8.79A72.5,72.5,0,0,1,244,47.94H264.9l-3.19-1.64A66.27,66.27,0,0,0,208.48,43.12Z"/><rect class="cls-6" x="409.35" y="260.28" width="6" height="20.8" transform="translate(-70.62 370.87) rotate(-45)"/><rect class="cls-6" x="415.89" y="243.18" width="20.8" height="6"/><rect class="cls-6" x="386.1" y="274.79" width="6" height="20.8"/><path class="cls-3" d="M71.53,373.26h-6v-6h6Zm0-16h-6v-6h6Zm0-16h-6v-6h6Zm0-16h-6v-6h6Zm0-16h-6v-6h6Zm0-16h-6v-6h6Z"/><path class="cls-6" d="M103.87,52.2a12.32,12.32,0,0,1,16.23-6.41c10.14,4.4,9.73,18.81-.38,22.81A12.35,12.35,0,0,1,103.87,52.2Zm5.5,2.39a6.35,6.35,0,1,0,8.34-3.3A6.35,6.35,0,0,0,109.37,54.59Z"/><path class="cls-6" d="M57.51,98.51a9.49,9.49,0,1,1,12.18,12.61A9.48,9.48,0,0,1,57.51,98.51ZM63,100.9a3.49,3.49,0,1,0,4.59-1.81A3.5,3.5,0,0,0,63,100.9Z"/></g></g></svg>