<?xml version="1.0" encoding="UTF-8"?>
<svg version="1.1" viewBox="0 0 2048 2048" width="1280" height="1280" xmlns="http://www.w3.org/2000/svg">
<!-- <svg version="1.1" viewBox="0 0 2048 2048" width="24" height="24" xmlns="http://www.w3.org/2000/svg"> -->
<path transform="translate(790,123)" d="m0 0h464l33 2 18 3 26 8 16 8 18 10 22 18 12 12 11 14 7 10 11 20 7 19 5 17 3 20 1 11v68h543l18 2 11 4 11 7 9 10 7 12 3 11h2v1365h-2l-4 17-8 24-12 23-6 9-10 13-14 15-14 12-13 9-22 12-19 7-18 5-21 3-13 1h-1697l-24-2-18-4-24-8-23-12-13-9-14-12-8-7-9-10-13-17-10-18-7-14-9-31-1-10-2-1v-1361h2l1-6 7-13 11-12 11-7 12-5 16-2h543v-58l3-32 3-14 9-27 10-19 9-14 14-17 6-7 11-9 12-10 15-9 19-10 24-8 15-3 18-2zm-4 121-18 2-12 5-9 6-7 6-9 13-4 10-2 10-1 22v45l237 1h360l2-1v-65l-3-15-6-12-8-10-12-9-11-5-9-2-10-1zm-642 240 1 5 12 37 14 41 158 474 8 16 8 10 11 8 11 5 15 3 339 1 2-1 1-60 2-14 5-13 7-11 8-8 14-8 13-4 11-1h477l18 2 11 4 11 7 7 6 9 13 5 13 1 6 1 68h341l16-3 17-9 11-11 9-17 12-35 14-43 84-252 12-35 13-40 14-41 28-84 8-25v-4zm1782 315-23 70-69 207-11 27-9 16-8 12-9 11-12 13-13 11-15 10-16 9-19 8-17 5-23 4-12 1-345 1-1 23-1 45-3 12-7 14-7 9-8 6-12 6-10 3-7 1h-492l-14-3-12-6-10-9-7-8-6-12-3-12-1-14-1-55-345-1-22-2-21-5-19-7-17-8-19-12-15-13-4-4h-2l-2-4-7-7-11-14-12-20-9-20-16-47-80-240h-1l-1 59v877l1 16 4 16 6 10 9 10 9 7 11 5 13 3h1702l16-4 11-6 12-11 7-11 4-10 2-10v-952zm-1081 285-1 23v96l6 1h351l2-1v-119z" fill="#010101"/>
<path transform="translate(1,1776)" d="m0 0"/>
</svg>
