<svg xmlns="http://www.w3.org/2000/svg" xmlns:xlink="http://www.w3.org/1999/xlink" viewBox="0 0 512 512"><defs><style>.cls-1{isolation:isolate;}.cls-2{fill:#a9afc4;}.cls-3,.cls-6{mix-blend-mode:multiply;}.cls-3{fill:url(#linear-gradient);}.cls-4{fill:#5e6175;}.cls-5{fill:#f5f5f5;}.cls-6{fill:url(#linear-gradient-2);}.cls-7{fill:#e1830e;}.cls-8{fill:#dee1ec;}</style><linearGradient id="linear-gradient" x1="121.02" y1="249.49" x2="378.42" y2="249.49" gradientUnits="userSpaceOnUse"><stop offset="0" stop-color="#cacfdd"/><stop offset="1" stop-color="#eef0f1"/></linearGradient><linearGradient id="linear-gradient-2" x1="313.7" y1="123.93" x2="394.94" y2="123.93" xlink:href="#linear-gradient"/></defs><title>Contract</title><g class="cls-1"><g id="Contract"><rect class="cls-2" x="107.3" y="74.49" width="258.11" height="352.76" transform="translate(-18.34 18.64) rotate(-4.35)"/><polygon class="cls-2" points="378.42 416.95 157.28 433.77 121.02 433.77 121.02 82.74 351.67 65.21 378.42 416.95"/><polygon class="cls-3" points="378.42 416.95 157.28 433.77 121.02 433.77 121.02 82.74 351.67 65.21 378.42 416.95"/><path class="cls-4" d="M118.28,439.74,91.09,82,354.44,62l27.2,357.73ZM97.52,87.54,123.81,433.3,375.2,414.19,348.91,68.43Z"/><rect class="cls-5" x="136.82" y="65.21" width="258.11" height="352.76"/><path class="cls-6" d="M394.94,65.21V182.66a81.2,81.2,0,0,1-72.7-117.45Z"/><rect class="cls-4" x="252.86" y="380.96" width="110.79" height="6"/><path class="cls-4" d="M239.89,376.5l-5.22-3a107.69,107.69,0,0,1,32.57-35.49,12.27,12.27,0,0,1,8.41-2.19c7,.87,7.83,7.23,8.1,9.32a36.63,36.63,0,0,1,.31,5,24.44,24.44,0,0,1,8.49-4.11,7.17,7.17,0,0,1,8.81,5.87c.09.57.15,1.15.2,1.73a15.23,15.23,0,0,1,4.49-1.6,7.2,7.2,0,0,1,8.53,6.8h31.73v6h-39.5c1.49-4.22,1.68-4.54,1.77-5.71a1.19,1.19,0,0,0-1.45-1.18,8.72,8.72,0,0,0-6.64,5.46l-5.7-1.87a19.4,19.4,0,0,0,.64-8.71,1.16,1.16,0,0,0-1.38-1,18.54,18.54,0,0,0-12,9.84c-.28.83-.59,1.65-.94,2.45l-5.62-2.05a21.17,21.17,0,0,1,1-2.59A30.31,30.31,0,0,0,277.8,346c-.43-3.28-1.28-4-2.89-4.15a6.21,6.21,0,0,0-4.27,1.18A101.5,101.5,0,0,0,239.89,376.5Z"/><polygon class="cls-2" points="198.65 150.56 180.88 147.15 180.88 200.12 198.65 189.53 216.43 200.12 216.43 147.15 198.65 150.56"/><circle class="cls-7" cx="198.65" cy="140.24" r="31.81"/><circle class="cls-5" cx="198.65" cy="140.24" r="13.63"/><rect class="cls-8" x="256.13" y="175.96" width="105.81" height="11.88"/><rect class="cls-8" x="198.65" y="232.31" width="163.28" height="10.74"/><rect class="cls-8" x="174.09" y="261.84" width="187.84" height="10.74"/><rect class="cls-8" x="174.09" y="291.36" width="134.94" height="10.74"/><rect class="cls-8" x="256.13" y="150.34" width="58.33" height="11.88"/><path class="cls-4" d="M397.94,421H133.82V62.21H397.94Zm-258.12-6H391.94V68.21H139.82Z"/><circle class="cls-5" cx="394.94" cy="101.43" r="65.43"/><path class="cls-4" d="M394.94,169.86a68.43,68.43,0,1,1,68.42-68.43A68.5,68.5,0,0,1,394.94,169.86Zm0-130.86a62.43,62.43,0,1,0,62.42,62.43A62.5,62.5,0,0,0,394.94,39Z"/><polygon class="cls-7" points="367.03 108.97 396.6 79.4 416.61 99.42 387.04 128.99 364.63 131.38 367.03 108.97"/><path class="cls-7" d="M403.83,72.16l2.81-2.81a14.16,14.16,0,0,1,20,20l-2.81,2.81Z"/><path class="cls-2" d="M404.54,365.8v-6c1.23,0,2.46-.06,3.67-.18l.59,6C407.4,365.73,406,365.8,404.54,365.8Zm14.72-2.59-2.06-5.64a36.84,36.84,0,0,0,5-2.28l2.88,5.26A42.29,42.29,0,0,1,419.26,363.21Zm14.55-8.94-4.1-4.39a38.18,38.18,0,0,0,3.77-4.07l4.7,3.73A43.42,43.42,0,0,1,433.81,354.27Zm9.93-13.9-5.48-2.45a37.18,37.18,0,0,0,1.87-5.21l5.79,1.59A42.22,42.22,0,0,1,443.74,340.37Zm3.7-16.68-6-.11c0-.58,0-.36,0-5.95h6C447.45,322.35,447.45,323.09,447.44,323.69Zm0-16.06h-6v-6h6Zm0-16h-6v-6h6Zm0-16h-6v-6h6Zm0-16h-6v-6h6Zm0-16h-6v-6h6Zm0-16h-6v-6h6Zm0-16h-6v-6h6Zm0-16h-6v-6h6Zm0-16h-6v-6h6Z"/><path class="cls-2" d="M386.5,365.8h-6v-6h6Zm-16,0h-6v-6h6Z"/><rect class="cls-4" x="71.57" y="55.6" width="6" height="19.6" transform="translate(-24.4 71.89) rotate(-45)"/><rect class="cls-4" x="51.64" y="85.49" width="19.6" height="6"/><rect class="cls-4" x="93.48" y="41.93" width="6" height="19.6"/><path class="cls-4" d="M90.1,434.22a9.59,9.59,0,1,1,9.59-9.59A9.61,9.61,0,0,1,90.1,434.22Zm0-13.18a3.59,3.59,0,1,0,3.59,3.59A3.6,3.6,0,0,0,90.1,421Z"/><path class="cls-4" d="M129.6,479a13.2,13.2,0,1,1,13.2-13.2A13.21,13.21,0,0,1,129.6,479Zm0-20.4a7.2,7.2,0,1,0,7.2,7.2A7.21,7.21,0,0,0,129.6,458.6Z"/></g></g></svg>