<svg xmlns="http://www.w3.org/2000/svg" xmlns:xlink="http://www.w3.org/1999/xlink" width="128px" height="80px" viewBox="0 0 128 80" version="1.1">
    <!-- Generator: Sketch 61.2 (89653) - https://sketch.com -->
    <title>Logo Vinmec International Hospital</title>
    <desc>Created with Sketch.</desc>
    <defs>
        <linearGradient x1="85.3890075%" y1="86.2777298%" x2="46.3520896%" y2="46.4135126%" id="linearGradient-1">
            <stop stop-color="#B57B31" offset="0%"/>
            <stop stop-color="#F6BC2C" offset="100%"/>
        </linearGradient>
    </defs>
    <g id="Page-1" stroke="none" stroke-width="1" fill="none" fill-rule="evenodd">
        <g id="Logo-Vinmec-International-Hospital" fill-rule="nonzero">
            <path d="M3.5731,48.3822 C2.9261,46.8352 2.4481,46.5252 1.4351,46.2432 C1.0131,46.1312 0.5631,46.1312 0.3381,46.1312 C0.0851,46.1312 0.0001,46.0462 0.0001,45.8782 C0.0001,45.6522 0.3101,45.6252 0.7321,45.6252 C2.2231,45.6252 3.8261,45.7092 4.8111,45.7092 C5.5141,45.7092 6.8641,45.6252 8.2711,45.6252 C8.6081,45.6252 8.9181,45.6812 8.9181,45.8782 C8.9181,46.0752 8.7491,46.1312 8.4961,46.1312 C8.0451,46.1312 7.6241,46.1592 7.3981,46.3282 C7.2011,46.4682 7.1171,46.6652 7.1171,46.9192 C7.1171,47.2842 7.3701,48.0722 7.7641,49.0852 L12.6031,61.8562 L12.7151,61.8562 C13.9251,58.7622 17.5821,49.7042 18.2571,47.8472 C18.3981,47.4812 18.5101,47.0592 18.5101,46.8062 C18.5101,46.5812 18.3981,46.3562 18.1451,46.2712 C17.8071,46.1592 17.3851,46.1312 17.0191,46.1312 C16.7661,46.1312 16.5411,46.1032 16.5411,45.9062 C16.5411,45.6812 16.7941,45.6252 17.3291,45.6252 C18.7351,45.6252 19.9171,45.7092 20.2831,45.7092 C20.7611,45.7092 22.0831,45.6252 22.9271,45.6252 C23.2931,45.6252 23.5181,45.6812 23.5181,45.8782 C23.5181,46.0752 23.3491,46.1312 23.0681,46.1312 C22.7861,46.1312 22.1961,46.1312 21.6891,46.4682 C21.3231,46.7222 20.9021,47.2002 20.1421,49.0012 C19.0451,51.6452 18.2851,53.1642 16.7661,56.6242 C14.9661,60.7312 13.6441,63.7972 13.0251,65.2042 C12.2931,66.8352 12.1241,67.2862 11.7311,67.2862 C11.3651,67.2862 11.1961,66.8922 10.6621,65.5702 L3.5731,48.3822 Z" id="Fill-1" fill="#286BA6"/>
            <path d="M26.8062,55.7243 C26.8062,52.0943 26.8062,51.4193 26.7782,50.6603 C26.7222,49.8443 26.4682,49.5633 25.9342,49.3943 C25.6532,49.3103 25.3432,49.2823 25.0342,49.2823 C24.7812,49.2823 24.6402,49.2253 24.6402,49.0013 C24.6402,48.8603 24.8372,48.8043 25.2312,48.8043 C26.1592,48.8043 27.8472,48.8603 28.5502,48.8603 C29.1692,48.8603 30.7732,48.8043 31.7292,48.8043 C32.0382,48.8043 32.2352,48.8603 32.2352,49.0013 C32.2352,49.2253 32.0952,49.2823 31.8412,49.2823 C31.5882,49.2823 31.3912,49.3103 31.1102,49.3663 C30.4352,49.4793 30.2382,49.8163 30.1822,50.6603 C30.1262,51.4193 30.1262,52.0943 30.1262,55.7243 L30.1262,59.9443 C30.1262,62.2503 30.1262,64.1633 30.2382,65.1763 C30.3232,65.8223 30.4912,66.1893 31.2232,66.3013 C31.5602,66.3573 32.1232,66.3863 32.4892,66.3863 C32.7702,66.3863 32.8822,66.5263 32.8822,66.6383 C32.8822,66.8073 32.6852,66.8923 32.4042,66.8923 C30.7732,66.8923 29.0852,66.8073 28.4092,66.8073 C27.8472,66.8073 26.1592,66.8923 25.1742,66.8923 C24.8652,66.8923 24.6962,66.8073 24.6962,66.6383 C24.6962,66.5263 24.7812,66.3863 25.0902,66.3863 C25.4562,66.3863 25.7372,66.3573 25.9622,66.3013 C26.4682,66.1893 26.6092,65.8513 26.6942,65.1473 C26.8062,64.1633 26.8062,62.2503 26.8062,59.9443 L26.8062,55.7243 Z" id="Fill-3" fill="#286BA6"/>
            <path d="M41.1795,63.6287 C41.2355,65.4847 41.5455,66.0487 42.0235,66.2167 C42.4455,66.3577 42.9235,66.3857 43.3175,66.3857 C43.5985,66.3857 43.7395,66.4977 43.7395,66.6387 C43.7395,66.8357 43.5145,66.8917 43.1765,66.8917 C41.5735,66.8917 40.4195,66.8077 39.9695,66.8077 C39.7445,66.8077 38.5635,66.8917 37.2975,66.8917 C36.9595,66.8917 36.7345,66.8647 36.7345,66.6387 C36.7345,66.4977 36.9035,66.3857 37.1285,66.3857 C37.4655,66.3857 37.9165,66.3577 38.2535,66.2727 C38.9005,66.1037 38.9855,65.4577 39.0135,63.3757 L39.2385,49.1977 C39.2385,48.7197 39.4075,48.3817 39.6605,48.3817 C39.9695,48.3817 40.3075,48.7477 40.7295,49.1697 C41.0385,49.4787 44.7525,53.2767 48.3525,56.7927 C50.0405,58.4527 53.3325,61.8277 53.6975,62.1657 L53.8105,62.1657 L53.5565,51.5327 C53.5285,50.0687 53.3035,49.6477 52.7125,49.4227 C52.3475,49.2817 51.7565,49.2817 51.4185,49.2817 C51.1095,49.2817 51.0255,49.1697 51.0255,49.0287 C51.0255,48.8317 51.2785,48.8037 51.6445,48.8037 C52.9385,48.8037 54.2605,48.8607 54.7945,48.8607 C55.0765,48.8607 56.0045,48.8037 57.2145,48.8037 C57.5515,48.8037 57.7765,48.8317 57.7765,49.0287 C57.7765,49.1697 57.6355,49.2817 57.3545,49.2817 C57.1015,49.2817 56.9045,49.2817 56.5955,49.3667 C55.9205,49.5637 55.7235,49.9847 55.6945,51.3357 L55.4135,66.4137 C55.4135,66.9487 55.2165,67.1727 55.0195,67.1727 C54.5975,67.1727 54.2605,66.9197 54.0065,66.6667 C52.4605,65.2327 49.3655,62.2787 46.7775,59.7747 C44.0765,57.1867 41.4605,54.2887 40.9825,53.8667 L40.8985,53.8667 L41.1795,63.6287 Z" id="Fill-5" fill="#286BA6"/>
            <path d="M66.2967,45.7377 C66.3817,45.2597 66.5497,45.0057 66.7757,45.0057 C66.9997,45.0057 67.1687,45.1467 67.5347,45.8787 L75.2147,61.7437 L82.8657,45.6817 C83.0917,45.2307 83.2317,45.0057 83.4847,45.0057 C83.7387,45.0057 83.9067,45.2877 83.9907,45.8787 L86.5517,63.2637 C86.8047,65.0357 87.0857,65.8517 87.9297,66.1037 C88.7457,66.3577 89.3087,66.3857 89.6737,66.3857 C89.9267,66.3857 90.1237,66.4137 90.1237,66.5817 C90.1237,66.8077 89.7867,66.8917 89.3927,66.8917 C88.6897,66.8917 84.8067,66.8077 83.6817,66.7237 C83.0347,66.6667 82.8657,66.5817 82.8657,66.4137 C82.8657,66.2727 82.9787,66.1887 83.1757,66.1037 C83.3447,66.0487 83.4287,65.6817 83.3157,64.8947 L81.6287,52.5167 L81.5157,52.5167 L75.3837,65.2877 C74.7367,66.6107 74.5957,66.8637 74.3427,66.8637 C74.0897,66.8637 73.8077,66.3007 73.3577,65.4577 C72.6827,64.1637 70.4607,59.8587 70.1227,59.0717 C69.8697,58.4807 68.1817,54.9357 67.1967,52.8267 L67.0847,52.8267 L65.6217,64.0227 C65.5657,64.5287 65.5377,64.8947 65.5377,65.3447 C65.5377,65.8787 65.9027,66.1327 66.3817,66.2447 C66.8877,66.3577 67.2817,66.3857 67.5627,66.3857 C67.7877,66.3857 67.9847,66.4417 67.9847,66.5817 C67.9847,66.8357 67.7317,66.8917 67.3097,66.8917 C66.1277,66.8917 64.8617,66.8077 64.3557,66.8077 C63.8217,66.8077 62.4717,66.8917 61.5707,66.8917 C61.2897,66.8917 61.0647,66.8357 61.0647,66.5817 C61.0647,66.4417 61.2327,66.3857 61.5147,66.3857 C61.7397,66.3857 61.9367,66.3857 62.3587,66.3007 C63.1467,66.1327 63.3707,65.0357 63.5117,64.0787 L66.2967,45.7377 Z" id="Fill-7" fill="#286BA6"/>
            <path d="M95.4082,55.7243 C95.4082,52.0943 95.4082,51.4193 95.3802,50.6603 C95.3242,49.8443 95.0992,49.5913 94.3112,49.3663 C94.1142,49.3103 93.6922,49.2823 93.3262,49.2823 C93.0732,49.2823 92.9052,49.1983 92.9052,49.0283 C92.9052,48.8603 93.1012,48.8043 93.4672,48.8043 C94.7612,48.8043 96.3372,48.8603 97.0402,48.8603 C97.8272,48.8603 103.3132,48.8883 103.7912,48.8603 C104.2412,48.8313 104.6352,48.7473 104.8322,48.7193 C104.9732,48.6913 105.1132,48.6073 105.2262,48.6073 C105.3662,48.6073 105.3952,48.7193 105.3952,48.8313 C105.3952,49.0013 105.2542,49.2823 105.1972,50.3793 C105.1702,50.6323 105.1132,51.6733 105.0572,51.9543 C105.0292,52.0673 104.9732,52.3483 104.7762,52.3483 C104.6072,52.3483 104.5792,52.2353 104.5792,52.0383 C104.5792,51.8703 104.5512,51.4483 104.4102,51.1673 C104.2132,50.7443 104.0162,50.4063 102.7782,50.2953 C102.3572,50.2383 99.4032,50.1823 98.8962,50.1823 C98.7842,50.1823 98.7282,50.2663 98.7282,50.4063 L98.7282,56.3143 C98.7282,56.4553 98.7562,56.5683 98.8962,56.5683 C99.4592,56.5683 102.6662,56.5683 103.2282,56.5113 C103.8192,56.4553 104.1852,56.3993 104.4102,56.1463 C104.6072,55.9763 104.6922,55.8363 104.8042,55.8363 C104.9162,55.8363 105.0012,55.9493 105.0012,56.0893 C105.0012,56.2303 104.9452,56.6243 104.8042,57.8343 C104.7482,58.3123 104.6922,59.2683 104.6922,59.4373 C104.6922,59.6343 104.6632,59.9713 104.4382,59.9713 C104.2692,59.9713 104.2132,59.8873 104.2132,59.7743 C104.1852,59.5223 104.1852,59.2123 104.1292,58.9023 C103.9882,58.4243 103.6792,58.0593 102.7502,57.9743 C102.3002,57.9183 99.4872,57.8613 98.8682,57.8613 C98.7562,57.8613 98.7282,57.9743 98.7282,58.1153 L98.7282,60.0283 C98.7282,60.8443 98.6992,62.8693 98.7282,63.5723 C98.7842,65.2043 99.5432,65.5703 102.0752,65.5703 C102.7222,65.5703 103.7632,65.5413 104.4102,65.2603 C105.0292,64.9793 105.3102,64.4723 105.4792,63.4883 C105.5352,63.2343 105.5922,63.1233 105.7602,63.1233 C105.9572,63.1233 105.9862,63.4313 105.9862,63.6853 C105.9862,64.2203 105.7892,65.8513 105.6482,66.3293 C105.4792,66.9483 105.2542,66.9483 104.3262,66.9483 C102.4692,66.9483 100.9782,66.9193 99.7692,66.8643 C98.5592,66.8353 97.6312,66.8073 96.8992,66.8073 C96.6182,66.8073 96.0832,66.8353 95.4932,66.8353 C94.9022,66.8643 94.2832,66.8923 93.7762,66.8923 C93.4672,66.8923 93.2982,66.8073 93.2982,66.6383 C93.2982,66.5263 93.3832,66.3863 93.6922,66.3863 C94.0582,66.3863 94.3392,66.3573 94.5642,66.3013 C95.0702,66.1893 95.2112,65.7383 95.2962,65.0353 C95.4082,64.0223 95.4082,62.1373 95.4082,59.9443 L95.4082,55.7243 Z" id="Fill-9" fill="#286BA6"/>
            <path d="M113.4095,64.6128 C110.9625,62.5598 110.3155,59.8588 110.3155,57.5528 C110.3155,55.9208 110.8495,53.1078 113.2125,50.9978 C115.0125,49.4228 117.3765,48.4658 121.0615,48.4658 C122.6085,48.4658 123.5365,48.5778 124.6615,48.7198 C125.5895,48.8608 126.4055,49.0288 127.1375,49.1128 C127.4185,49.1418 127.5035,49.2538 127.5035,49.3938 C127.5035,49.5908 127.4465,49.8718 127.3905,50.7168 C127.3345,51.5038 127.3345,52.8268 127.3065,53.3048 C127.2775,53.6418 127.1935,53.8958 126.9685,53.8958 C126.7715,53.8958 126.7155,53.6988 126.7155,53.3888 C126.6875,52.6298 126.3785,51.7858 125.7585,51.1668 C124.9155,50.3518 123.2555,49.7598 120.9765,49.7598 C118.8105,49.7598 117.4315,50.1548 116.3065,51.1108 C114.4785,52.6858 114.0285,54.9928 114.0285,57.3268 C114.0285,63.0098 118.4165,65.7108 121.7365,65.7108 C123.9305,65.7108 125.1395,65.5418 126.1245,64.4448 C126.5465,63.9668 126.8845,63.2908 126.9685,62.8408 C127.0245,62.4748 127.0805,62.3628 127.2775,62.3628 C127.4465,62.3628 127.5595,62.5878 127.5595,62.7848 C127.5595,63.0668 127.2775,65.1478 127.0245,65.9628 C126.9125,66.3858 126.7995,66.4978 126.3785,66.6668 C125.3935,67.0598 123.5085,67.2018 121.9055,67.2018 C118.5295,67.2018 115.6595,66.4978 113.4095,64.6128" id="Fill-11" fill="#286BA6"/>
            <polygon id="Fill-14" fill="#286BA6" points="13.028 79.768 13.976 79.768 13.976 73.818 13.028 73.818"/>
            <path d="M15.3323,79.7681 L15.3323,73.5801 L19.0343,77.2181 C19.2303,77.4111 19.4413,77.6511 19.6673,77.9411 L19.6673,73.8191 L20.5423,73.8191 L20.5423,80.0001 L16.7663,76.2981 C16.5603,76.0971 16.3753,75.8751 16.2043,75.6321 L16.2043,79.7681 L15.3323,79.7681 Z" id="Fill-16" fill="#286BA6"/>
            <polygon id="Fill-17" fill="#286BA6" points="23.7626 74.6394 23.7626 79.7684 22.8146 79.7684 22.8146 74.6394 21.2666 74.6394 21.2666 73.8184 25.3026 73.8184 25.3026 74.6394"/>
            <polygon id="Fill-18" fill="#286BA6" points="26.0315 79.7681 26.0315 73.8191 29.2835 73.8191 29.2835 74.6391 26.9795 74.6391 26.9795 76.1311 29.2835 76.1311 29.2835 76.9801 26.9795 76.9801 26.9795 78.9021 29.2835 78.9021 29.2835 79.7681"/>
            <path d="M31.9898,76.3541 L32.1608,76.3541 C32.5778,76.3541 32.8658,76.3191 33.0248,76.2491 C33.2798,76.1351 33.4068,75.8991 33.4068,75.5411 C33.4068,75.1681 33.2828,74.9151 33.0368,74.7861 C32.8638,74.6941 32.5718,74.6491 32.1608,74.6491 L31.9898,74.6491 L31.9898,76.3541 Z M31.9348,77.1061 L31.9348,79.7681 L31.0418,79.7681 L31.0418,73.8181 L32.3648,73.8181 C33.0488,73.8181 33.5318,73.9301 33.8128,74.1521 C34.1898,74.4501 34.3778,74.8861 34.3778,75.4561 C34.3778,76.4181 33.9318,76.9521 33.0418,77.0611 L35.0468,79.7681 L33.9758,79.7681 L32.0378,77.1061 L31.9348,77.1061 Z" id="Fill-19" fill="#286BA6"/>
            <path d="M35.608,79.7681 L35.608,73.5801 L39.309,77.2181 C39.505,77.4111 39.716,77.6511 39.942,77.9411 L39.942,73.8191 L40.818,73.8191 L40.818,80.0001 L37.041,76.2981 C36.836,76.0971 36.65,75.8751 36.479,75.6321 L36.479,79.7681 L35.608,79.7681 Z" id="Fill-20" fill="#286BA6"/>
            <path d="M43.3899,77.4315 L45.0119,77.4315 L44.4159,76.0735 C44.3519,75.9285 44.2789,75.7035 44.1979,75.3985 C44.1259,75.6925 44.0549,75.9175 43.9879,76.0745 L43.3899,77.4315 Z M46.0099,79.7685 L45.3469,78.2365 L43.0409,78.2365 L42.3639,79.7685 L41.3669,79.7685 L44.1889,73.5835 L47.0079,79.7685 L46.0099,79.7685 Z" id="Fill-21" fill="#286BA6"/>
            <polygon id="Fill-22" fill="#286BA6" points="49.2641 74.6394 49.2641 79.7684 48.3161 79.7684 48.3161 74.6394 46.7681 74.6394 46.7681 73.8184 50.8041 73.8184 50.8041 74.6394"/>
            <polygon id="Fill-23" fill="#286BA6" points="51.548 79.768 52.496 79.768 52.496 73.818 51.548 73.818"/>
            <path d="M58.6334,76.8056 C58.6334,76.1906 58.4264,75.6656 58.0124,75.2286 C57.5984,74.7926 57.0964,74.5746 56.5074,74.5746 C55.9194,74.5746 55.4174,74.7906 55.0014,75.2226 C54.5864,75.6556 54.3784,76.1826 54.3784,76.8056 C54.3784,77.4206 54.5854,77.9446 54.9994,78.3776 C55.4134,78.8116 55.9154,79.0286 56.5074,79.0286 C57.0924,79.0286 57.5914,78.8116 58.0084,78.3776 C58.4254,77.9446 58.6334,77.4206 58.6334,76.8056 M59.6204,76.8056 C59.6204,77.6756 59.3164,78.4106 58.7094,79.0116 C58.0934,79.6216 57.3594,79.9266 56.5074,79.9266 C55.6454,79.9266 54.9104,79.6226 54.3024,79.0156 C53.6954,78.4096 53.3914,77.6726 53.3914,76.8056 C53.3914,75.9336 53.6944,75.1956 54.2994,74.5916 C54.9034,73.9866 55.6394,73.6856 56.5074,73.6856 C57.3724,73.6856 58.1084,73.9886 58.7134,74.5956 C59.3184,75.2016 59.6204,75.9386 59.6204,76.8056" id="Fill-24" fill="#286BA6"/>
            <path d="M60.1736,79.7681 L60.1736,73.5801 L63.8746,77.2181 C64.0706,77.4111 64.2826,77.6511 64.5076,77.9411 L64.5076,73.8191 L65.3836,73.8191 L65.3836,80.0001 L61.6066,76.2981 C61.4026,76.0971 61.2146,75.8751 61.0446,75.6321 L61.0446,79.7681 L60.1736,79.7681 Z" id="Fill-25" fill="#286BA6"/>
            <path d="M67.9554,77.4315 L69.5774,77.4315 L68.9804,76.0735 C68.9174,75.9285 68.8444,75.7035 68.7624,75.3985 C68.6914,75.6925 68.6214,75.9175 68.5534,76.0745 L67.9554,77.4315 Z M70.5764,79.7685 L69.9134,78.2365 L67.6064,78.2365 L66.9294,79.7685 L65.9324,79.7685 L68.7544,73.5835 L71.5724,79.7685 L70.5764,79.7685 Z" id="Fill-26" fill="#286BA6"/>
            <polygon id="Fill-27" fill="#286BA6" points="72.3926 79.7681 72.3926 73.8191 73.3396 73.8191 73.3396 78.9021 75.4566 78.9021 75.4566 79.7681"/>
            <polygon id="Fill-28" fill="#286BA6" points="78.6854 79.7681 78.6854 73.8191 79.6324 73.8191 79.6324 76.0131 82.4984 76.0131 82.4984 73.8191 83.4454 73.8191 83.4454 79.7681 82.4984 79.7681 82.4984 76.8781 79.6324 76.8781 79.6324 79.7681"/>
            <path d="M89.5632,76.8056 C89.5632,76.1906 89.3562,75.6656 88.9422,75.2286 C88.5282,74.7926 88.0272,74.5746 87.4372,74.5746 C86.8492,74.5746 86.3462,74.7906 85.9312,75.2226 C85.5162,75.6556 85.3092,76.1826 85.3092,76.8056 C85.3092,77.4206 85.5152,77.9446 85.9282,78.3776 C86.3432,78.8116 86.8462,79.0286 87.4372,79.0286 C88.0222,79.0286 88.5222,78.8116 88.9382,78.3776 C89.3552,77.9446 89.5632,77.4206 89.5632,76.8056 M90.5502,76.8056 C90.5502,77.6756 90.2462,78.4106 89.6382,79.0116 C89.0232,79.6216 88.2902,79.9266 87.4372,79.9266 C86.5752,79.9266 85.8412,79.6226 85.2332,79.0156 C84.6252,78.4096 84.3212,77.6726 84.3212,76.8056 C84.3212,75.9336 84.6232,75.1956 85.2292,74.5916 C85.8332,73.9866 86.5702,73.6856 87.4372,73.6856 C88.3032,73.6856 89.0372,73.9886 89.6432,74.5956 C90.2482,75.2016 90.5502,75.9386 90.5502,76.8056" id="Fill-29" fill="#286BA6"/>
            <path d="M90.773,78.5778 L91.53,78.2198 C91.676,78.7638 92.051,79.0368 92.655,79.0368 C92.929,79.0368 93.151,78.9588 93.32,78.8038 C93.49,78.6478 93.575,78.4318 93.575,78.1548 C93.575,77.8088 93.291,77.4968 92.723,77.2208 L92.541,77.1298 C92.018,76.8728 91.653,76.6468 91.446,76.4518 C91.107,76.1398 90.937,75.7608 90.937,75.3148 C90.937,74.8078 91.107,74.4058 91.45,74.1068 C91.771,73.8268 92.183,73.6848 92.687,73.6848 C93.576,73.6848 94.136,74.0128 94.368,74.6678 L93.627,75.0578 C93.402,74.6978 93.114,74.5178 92.763,74.5178 C92.522,74.5178 92.325,74.5808 92.174,74.7048 C92.012,74.8378 91.932,75.0238 91.932,75.2658 C91.932,75.6238 92.26,75.9568 92.918,76.2648 C92.947,76.2778 92.987,76.2978 93.037,76.3218 C93.529,76.5518 93.879,76.7698 94.089,76.9718 C94.394,77.2708 94.546,77.6418 94.546,78.0848 C94.546,78.6678 94.365,79.1228 94.001,79.4508 C93.653,79.7678 93.192,79.9258 92.616,79.9258 C91.591,79.9258 90.977,79.4768 90.773,78.5778" id="Fill-30" fill="#286BA6"/>
            <path d="M96.5241,76.3059 L96.7671,76.3059 C97.1971,76.3059 97.4931,76.2749 97.6541,76.2129 C97.9381,76.1009 98.0801,75.8679 98.0801,75.5139 C98.0801,75.1439 97.9431,74.8969 97.6671,74.7709 C97.4881,74.6889 97.1881,74.6479 96.7671,74.6479 L96.5241,74.6479 L96.5241,76.3059 Z M96.4681,77.1019 L96.4681,79.7679 L95.5771,79.7679 L95.5771,73.8189 L97.0101,73.8189 C97.7101,73.8189 98.1971,73.9209 98.4701,74.1239 C98.8611,74.4149 99.0561,74.8589 99.0561,75.4579 C99.0561,76.0659 98.8611,76.5129 98.4711,76.8019 C98.1991,77.0019 97.7121,77.1019 97.0131,77.1019 L96.4681,77.1019 Z" id="Fill-31" fill="#286BA6"/>
            <polygon id="Fill-32" fill="#286BA6" points="99.936 79.768 100.884 79.768 100.884 73.818 99.936 73.818"/>
            <polygon id="Fill-33" fill="#286BA6" points="104.1222 74.6394 104.1222 79.7684 103.1752 79.7684 103.1752 74.6394 101.6272 74.6394 101.6272 73.8184 105.6632 73.8184 105.6632 74.6394"/>
            <path d="M107.0293,77.4315 L108.6513,77.4315 L108.0543,76.0735 C107.9913,75.9285 107.9183,75.7035 107.8363,75.3985 C107.7653,75.6925 107.6943,75.9175 107.6263,76.0745 L107.0293,77.4315 Z M109.6493,79.7685 L108.9863,78.2365 L106.6803,78.2365 L106.0033,79.7685 L105.0053,79.7685 L107.8283,73.5835 L110.6463,79.7685 L109.6493,79.7685 Z" id="Fill-34" fill="#286BA6"/>
            <polygon id="Fill-35" fill="#286BA6" points="111.4659 79.7681 111.4659 73.8191 112.4129 73.8191 112.4129 78.9021 114.5309 78.9021 114.5309 79.7681"/>
            <path d="M78.736,0.431 C69.473,1.612 60.141,4.786 59.515,14.118 L59.515,14.118 C59.218,18.552 60.567,21.882 62.092,25.091 L62.092,25.091 C58.269,21.288 52.751,18.243 45.009,18.984 L45.009,18.984 C49.72,20.334 55.285,22.916 58.274,26.332 L58.274,26.332 C58.906,27.056 59.827,28.309 59.608,29.386 L59.608,29.386 C59.249,31.188 55.967,30.82 53.98,30.913 L53.98,30.913 C58.102,32.583 62.706,35.591 68.579,35.397 L68.579,35.397 C71.519,35.301 73.677,33.496 73.446,30.15 L73.446,30.15 C73.039,24.138 68.656,19.003 68.199,12.209 L68.199,12.209 C67.69,4.65 72.867,1.808 78.746,0.523 L78.746,0.523 C78.777,0.515 79.363,0.401 79.297,0.387 L79.297,0.387 C79.295,0.387 79.291,0.386 79.285,0.386 L79.285,0.386 C79.204,0.386 78.795,0.423 78.736,0.431" id="Fill-37" fill="url(#linearGradient-1)"/>
        </g>
    </g>
</svg>