<svg xmlns="http://www.w3.org/2000/svg" xmlns:xlink="http://www.w3.org/1999/xlink"
    viewBox="0 0 2101.91 2035.37" xmlns:v="https://vecta.io/nano">
    <defs>
        <clipPath id="A">
            <path d="M1070.47 370.36h1031.44v1409.78H1070.47z" fill="none" stroke-width="0" />
        </clipPath>
        <clipPath id="B">
            <path d="M0 511.48h1516.38v1523.88H0z" fill="none" stroke-width="0" />
        </clipPath>
        <clipPath id="C">
            <path transform="matrix(.329196 -.944262 .944262 .329196 377.96 1460.42)"
                d="M1126.02 404.89h181.66V523.5h-181.66z" fill="none" stroke-width="0" />
        </clipPath>
        <clipPath id="D">
            <path transform="matrix(.871813 -.489839 .489839 .871813 -147.32 910.51)"
                d="M1563.67 611.32h204.19v250.73h-204.19z" fill="none" stroke-width="0" />
        </clipPath>
        <path id="E"
            d="M1222 1260.1v39.37c0 2.83 2.49 5.54 5.41 5.41a5.5 5.5 0 0 0 5.41-5.41v-39.37c0-2.83-2.49-5.54-5.41-5.41a5.5 5.5 0 0 0-5.41 5.41z" />
        <path id="F"
            d="M190.5 385.64c2.89-9.24 6.06-18.28 9.43-27.32-2.21.1-4.33.19-6.54.19 1.44-5.48 4.14-11.64 7.31-16.36 1.92-.29 3.94-.58 5.87-.77 4.33-10.39 8.85-20.88 14.72-30.5 5.29-1.35 10.77-2.5 16.26-2.5 11.93 0 22.03 6.54 22.03 19.53 0 9.81-6.54 20.49-12.03 28.28-10.77 15.2-35.79 29.54-54.45 29.54-.87 0-1.73 0-2.6-.1zm26.36-24.05c9.33-2.5 22.32-17.41 22.32-27.23 0-3.94-2.5-5.68-6.25-5.68-.67 0-1.35 0-2.02.1-1.92 3.46-3.46 7.12-5.1 10.77l4.43-.29c-1.83 5.77-4.33 11.64-7.41 16.93-1.35.29-2.79.48-4.14.67l-1.83 4.71z" />
        <path id="G"
            d="M248.89 376.69c-.29-8.47 19.63-50.03 24.63-59.46 5.96-3.08 14.91-4.91 21.84-4.91h1.54c-3.85 5.39-10.77 17.8-18.18 32.23-2.31 4.43-7.79 17.22-7.7 22.13.1.77.19 1.83 1.35 1.83 4.52 0 10.49-2.02 12.51-6.06 2.5-5 4.71-10.39 7.12-15.49l13.18-26.75c7.41-2.12 15.3-3.46 23.09-4.62-9.81 17.41-17.8 35.88-25.69 54.26-5.48 12.7-14.53 14.43-27.71 17.32-2.89.58-5.77.96-8.75.96-7.12 0-16.93-3.27-17.22-11.45zm45.22-69.75c5.48-4.81 10.97-8.18 18.28-12.41 3.85 1.54 9.52 5.39 12.22 10.87-9.24.87-18.18 4.81-22.8 8.27-2.69 0-6.83-4.33-7.7-6.73z" />
        <path id="H"
            d="M338.66 387.47l.19-18.38-.19-17.41c-5 8.08-8.85 17.41-12.12 26.36l-19.53 4.33c7.5-21.45 17.22-44.93 28.57-64.55 5.87-2.31 13.76-3.94 20.01-4.33l-1.44 30.98c4.23-12.12 8.47-24.05 13.85-35.4 7.02-2.12 15.78-2.98 23.09-3.37-5.39 10.39-10.1 21.07-14.72 31.84-6.45 14.82-12.6 29.82-18.66 44.83l-19.05 5.1z" />
        <path id="I"
            d="M374.74,366.78c0-9.52,4.62-20.4,9.33-28.48,12.31-21.07,33.29-33.1,57.63-33.19-4.62,6.06-8.56,12.89-11.74,19.82-1.15-.19-2.31-.29-3.56-.29-15.59,0-35.4,20.49-35.4,35.88,0,4.91,2.98,6.83,7.6,6.83,6.64,0,13.47-6.54,15.01-12.8l-13.08,2.6c2.79-5.39,5.87-10.97,9.72-15.68,9.52-2.5,19.72-3.75,29.54-4.52-6.54,17.7-25.21,48.01-46.76,48.01-11.54,0-18.28-6.73-18.28-18.18Z" />
    </defs>
    <g clip-path="url(#A)">
        <path
            d="M1359.03 438.51l83.98-55.15c6.36-3.23 22.34-18.21 15.49-5.98s-35.72 68.14-35.72 68.14l-9.9 20.22s73.03 17.45 94.96 28.12 77.24 43.09 77.24 43.09l29.3-25.83 27.86-19.97 23.38-9.19 18.77-3.06-22.52 45.88-21.53 49.19-22.61 55.57-30.65 82.3-16.7 53.88c-.64 2.66-4.18 18.94-4.18 18.94l-9.14 55.45v66.57l8.41 73.99c.55 3.33 15.62 68.18 15.62 68.18l17.15 46.09 21.68 45.85s39.93 72.14 63.15 122.06c23.22 49.93 63.07 118.49 75.65 177.42s29.18 122 29.18 122l36.57-36.02 65.03-120.65 20.35-86.69 16.97-84.79 21.82-112.76 7.95-91.22s-17.74-239.42 64.45-245.53c93.35-6.94 72.64 205.56 71.84 235.5s-17.63 139.72-17.63 139.72l-32.6 113.68-26.48 63.55c-1.25 2.66-51.44 91.63-51.44 91.63l-41.76 56.44-37.62 41.12-34.35 31.26c-2.13 1.77-42.13 31.78-42.13 31.78l-16.41 10.72-.91 53.86-8.65 54.93c-.78 2.44-8.24 34.6-22.64 47.51s-57.97 12.76-57.97 12.76l-117.58 2.84-108.45 2.84s-63.74 3.45-69.9-1.39-16.72-19.67-3.58-33 69.31-34.39 69.31-34.39l-59.54 26.2-115.4 2.63s-14.67 12.76-15.78 14.77c-1.12 2.01-22.47 19.29-22.47 19.29l-14.23-28.7-3.96.78s-21.23-4.46-24.99-1.42-55.87-1.35-55.87-1.35-10.21-19.01-3.76-32.27 58.65-26.36 58.65-26.36l23.96-20.28-19.13-160.58-32.43-133.53c-5.52-16.9-16.73-46.3-16.73-46.3l-13.4 151.07-16.28 161.42s-16.75 86.35-20.73 96.42-17.82 43.16-33.95 40.91-10.1-45.37-10.1-45.37l11.42-199.22 1.41-89.71.75-101.04-3.14-70.35-3.37-66.63-1.72-113.17c.92-26.44 9.11-112.48 9.11-112.48l7.35-40.38 21.74-82.82 17.51-50.67 27.78-66.76 31.74-67.15 41.14-77.5s17.07-29.76 27.42-44.64 45.82-61.96 45.82-61.96l48.17-40.29z"
            fill="#fff" />
        <g fill="#ffa400">
            <path
                d="M1538.52 673.5c11.82-4.38 21.67-5.72 26.67-19.94 5.49-15.6-1.69-32.21-8.14-40.53-10.99-14.17-20.22-22.17-38.3-28.68-18.28-6.5-38.26-6.36-56.44.4-9.43 3.54-15.99 9.01-21.27 17.57s-7.31 18.54-2.42 30.58c2.83 6.98 12.78 21.61 23.65 28.54 31.37 20 64.43 16.43 76.25 12.05zm-149.09-36.92c-.44.28-1.98.99-1.68-1.85.63-5.91-7.07-12.78-12.72-14.63s-11.99-.52-17.15 2.44c-2.66 1.4-4.91 3.48-6.5 6.03-1.44 2.79-2.07 5.92-1.81 9.05a20.67 20.67 0 0 0 3.84 11.61c2.51 3.3 6.49 5.59 10.63 5.5 5.47-.12 9.99-4.11 13.93-7.91 3.3-3.18 10.13-5.87 11.45-10.26.19-.64-.8.46-1.47.42m8.26 5.68c1.54-3.37 3.54-4.79 7.38-5.65s9.47-1.29 13.17 0c6.34 2.19 11.1 5.75 12.23 12.19.87 4.91-.96 12.52-4.39 16.36-3.34 3.73-8.6 6.22-13.69 7.23-4.84.96-10.38.67-14.78-1.92-2.14-1.26-3.19-3.73-4.08-5.95-3.87-9.64-.16-21.44 8.69-27.66" />
        </g>
        <g fill="#ff7900">
            <path
                d="M1418.07 464.02s-15.63 26.16-5.2 49.68c9.07 20.46 56.26 54.54 105.02 44.27 36.48-7.68 49.25-30.7 49.25-30.7l-53.86-30.68c-9.19-4.41-95.2-32.56-95.2-32.56zm217.35 706.34c-17.44 19.37-66.36 48.37-89.5 60.35-23.14 11.99-56.89 12.99-81.1 3.32-7.06-2.82-13.88-6.99-18.07-13.34-10.59-16.05.3-38.6 16.27-49.3 32.58-21.82 75.57-15.28 107.27-38.36 12.94-9.42 16.95-14.95 29.9-24.35m-33.75-137.55c-29.3.82-52.09 20.23-77.1 35.5l-41.42 25.29c-8.74 5.34-17.85 11.06-22.85 20-7.86 14.09-.46 38.98 11.45 49.87s26.73 8.77 42.85 8.14c36.58-1.42 78.66-25.43 108.73-46.3m-24.62-262.54c-19.55-2.05-55.72 4.92-70.5 7.39-9 1.5-18.1 3.03-26.5 6.57-9.41 3.98-17.62 10.34-23.83 18.46-11.14 14.61-14.71 35.25-7.19 52.02s21.69 28.67 39.75 25.28c10.19-1.92 24.54-8.58 34.91-8.67 5.06-.04 15.2 1.61 20.23 2.17 10.94 1.21 17.08-2.02 26-8.47m125.67 370.09c-16.43 25.88-41.16 45.43-70.13 55.45-44.72 15.32-95.71 6.58-138.87 25.84-9.31 4.15-24 12.62-28.74 31.31-3.95 15.57 11.73 23.92 31.95 31.58 37.46 14.19 78.49 9.15 113.7 6.74 29.98-2.05 58.19-10.27 75.39-17.56 29.1-12.32 36.94-17.32 70.34-27.29m-332.92 93.43c21.03 21.6 48.66 36.66 78.78 35.57 30.13-1.1 66.91-17.39 96.9-14.38 8.16.82 16.85 2.65 22.46 8.63 8.26 8.81 8.32 34.37.67 43.71s-24.92 13.73-36.48 17.22c-47.88 14.29-99.2 11.76-145.45-7.15m19.74 38.97c40.71 2.28 52.6 11.99 98.59 11.99 15.94 0 43.1 0 43.1 24.57 0 21.5-16.28 30.89-31.07 34.94-28.11 7.68-53.45 9.47-74.33 5.75m625.87-732.87c-3.74-14.67-15.61-26.41-29.47-32.5-13.86-6.08-29.51-7.05-44.57-5.51-22.57 2.31-53 6.18-69.59 21.65-6.07.48 1.03 11.5.68 17.58l-2.07 36.12c-.25 4.36 6.6 14.9 3.2 12.17s4.06 1.87 6.28 2.18c23.65 3.29 47.79-6.3 71.35-2.4 16.69 2.76 31.56 12.06 47.82 16.76 1.88.54 4.02 1 5.7-.01s2.29-3.1 2.76-5l8.29-33.32m-156.45 144.79c16.41-4.22 26.79-5.51 43.72-6 16.94-.49 45.82-.61 60.13 8.45 10.03 6.35 24.18 19.25 24.8 31.11.42 7.99 3.2 17.85.04 25.2-5.94 13.79-3.77 28.68-9.71 42.47-25.51-21.71-54.16-29.42-95.26-33.73-23.13-2.43-35.51 5.84-35.51 5.84.85-.6-1.2-7.27-.9-8.26 1.46-4.89 7.11-14.47 8.57-19.36m-28.35 303.9a37.84 37.84 0 0 1 11.73 28.23 145.66 145.66 0 0 0 35.59-42.88c3.09-5.65 16.74-20.61 14.26-26.55-1.06-2.53-8-12.08-9.94-14.02-14.66-14.7-42.39-26.73-62.69-22.4a19.9 19.9 0 0 0-7.96 3.27c-3.12 2.35-3.89 22.65-5.67 26.12-4.75 9.32-18.21 25.42-8.45 35.07 7.91 7.81 23.76 4.06 33.14 13.15zm89.17-124.75c7.71 4.26 12.68 1.51 19.56-3.99 4.52-3.61 8.78-18.61 10.62-24.1 2.28-6.79-.53-7.38 4.92-12.03 5.73-4.89 9.85-18.65 8.92-23.71-1.63-8.9-16.61-25.93-24.6-30.18-16.93-9.02-73.24-23.67-93.82-7.13 0 0-14.33 48.9-13.24 70.02.48 9.22 21.03-1.79 49.29 6.9 24.81 7.63 27.48 18.22 38.35 24.22z" />
        </g>
        <path
            d="M1409.8 469.43l3.98.42 1.77.22c.84.11-.68-.09-.67-.09.17.01.34.05.51.07l1.02.15 8.22 1.41c5.73 1.12 11.41 2.49 17.04 4.04 12.13 3.4 24.06 7.46 35.75 12.15l9.06 3.7c.64.27-1.06-.45-.42-.18l.58.25 1.02.44 2.33 1.01 4.66 2.05c6.01 2.68 11.97 5.46 17.88 8.35a605.31 605.31 0 0 1 34.18 18.05c10.02 5.7 19.89 11.68 29.52 18l3.24 2.15c2.36 1.58 6.09.54 7.4-1.94 1.44-2.59.58-5.85-1.94-7.4-9.47-6.34-19.18-12.32-29.04-18.02-11.11-6.43-22.42-12.5-33.92-18.23-12.23-6.08-24.66-11.72-37.3-16.9a371.27 371.27 0 0 0-36.21-12.8c-11.38-3.4-23.03-5.84-34.81-7.31l-3.86-.4c-2.83-.26-5.53 2.67-5.41 5.41.14 3.15 2.38 5.13 5.41 5.41h0z" />
        <path
            d="M1584.95 541.61c13.46-9.36 26.45-19.37 39.88-28.77 11.76-8.25 24.15-15.56 37.05-21.87 2.11-1.03 4.26-1.98 6.41-2.93-1.7.75.17-.06.61-.24l1.63-.63a72.16 72.16 0 0 1 3.22-1.13c2.06-.68 4.16-1.22 6.29-1.61.2-.04.41-.07.61-.1.97-.16-1.54.16-.36.05.46-.05.93-.09 1.39-.12a19 19 0 0 1 2.72.04c2.83.25 5.53-2.67 5.41-5.41-.14-3.15-2.38-5.14-5.41-5.41-3.89-.35-7.94.48-11.66 1.56-4.31 1.31-8.51 2.93-12.58 4.84-7.08 3.21-13.93 6.99-20.67 10.86-12.03 6.9-23.24 14.93-34.39 23.15l-25.57 18.39a5.82 5.82 0 0 0-2.49 3.23c-.37 1.41-.18 2.9.55 4.17 1.48 2.3 4.92 3.67 7.4 1.94h0z" />
        <path
            d="M1679.71 476.17c-5.42 9.85-10.36 19.97-15.19 30.12-6.59 13.87-12.88 27.88-19.01 41.95l-21.78 51.77-22.33 56.87-21.82 60.01-2.57 7.44c-.92 2.68 1.05 6.03 3.78 6.65 2.87.72 5.8-.94 6.65-3.78l21.58-59.97 22.26-57.22 10.94-26.68 2.72-6.5.64-1.51c.38-.91 0 0-.07.16.1-.25.21-.5.32-.75l1.42-3.36 5.15-12.01 19.37-43.17c4.99-10.64 10.11-21.23 15.67-31.59l1.61-2.96c1.36-2.48.69-6.01-1.94-7.4-2.54-1.34-5.94-.71-7.4 1.94h0zm-405.29 60.2l7.16-9.79 3.67-4.83c.46-.6-.84 1.08-.14.19l.4-.52.91-1.16 1.93-2.45c5.02-6.34 10.2-12.54 15.53-18.63 10.66-12.16 21.91-23.76 33.74-34.82 5.87-5.48 11.86-10.82 18-16.02l9.35-7.72 4.75-3.78 2.33-1.82.52-.4c-1.11.87-.56.43-.32.24l1.3-1c12.84-9.83 26.15-19.01 39.92-27.53a481.41 481.41 0 0 1 42.45-23.43l5.32-2.56c2.56-1.21 3.43-5.09 1.94-7.4-1.7-2.64-4.66-3.24-7.4-1.94a485.43 485.43 0 0 0-43.02 23.08c-13.85 8.35-27.25 17.38-40.23 27.08-13.32 9.96-26.14 20.54-38.46 31.76-11.94 10.91-23.32 22.39-34.14 34.44a496.38 496.38 0 0 0-31.39 38.75l-3.45 4.79c-1.65 2.31-.48 6.12 1.94 7.4 2.79 1.47 5.64.53 7.4-1.94h0z" />
        <path
            d="M1453.82 374.65l-19.27 33.02-19.8 34.95c-3.33 6.16-6.56 12.37-9.62 18.67-1.23 2.54-.78 5.96 1.94 7.4 2.43 1.28 6.08.78 7.4-1.94 5.56-11.46 11.69-22.64 17.96-33.72l20.16-34.76 10.57-18.16c1.41-2.46.66-6.03-1.94-7.4-2.59-1.45-5.86-.6-7.4 1.94h0zm-188.75 156.26c-42.19 63.3-76.25 131.93-107.2 201.3-29.44 66-52.97 134.46-67.2 205.4-14.67 73.11-16.56 148.16-14.43 222.47 1.89 65.98 7.94 131.86 8.26 197.88.22 45.38-1.52 90.8-2.18 136.17-.55 37.39-.41 74.78-2.78 112.11-2.1 33.17-5.58 66.23-7.8 99.4-.81 12.13-1.53 24.33-1.16 36.49.24 7.85.55 16.69 4.07 23.89 6.01 12.26 20.17 8.14 28.59.9 12.72-10.92 19.18-29.02 24.2-44.44 9.1-27.96 14.02-57.3 17.99-86.36 8.21-60.14 12.86-120.89 18.29-181.33l11.26-128.24.5-5.35c.27-2.81.53-1.11-.44.29l-4.67 2.68h.03l-3.83-1.58c-1.41-1.16-.18.07.42 1.41.21.47 1.64 4.11 2.29 5.82 2.87 7.55 5.51 15.18 8.07 22.84a984.65 984.65 0 0 1 21.33 73.17c7.86 31.16 13.57 62.65 19.09 94.29l12.87 77.44c2.3 15.8 4.62 31.93 4.2 47.93-.12 4.74-.44 9.1-1.79 13.64-.9 3.01-2.04 5.47-4.18 7.24-1.16.96.3-.06-1 .73a21.28 21.28 0 0 1-2.37 1.23c-3.55 1.46-7.2 2.66-10.93 3.58-9.17 2.54-18.49 4.55-27.6 7.33-15.47 4.71-35.05 12.52-38.51 30.44-1.73 8.99-1.22 22.09 5.66 29.03 6.01 6.06 15.2 5.8 23.11 5.67 22.2-.37 44.2.08 66.36-1.97 6.87-.64 6.94-11.46 0-10.82-19.73 1.83-39.33 1.95-59.11 1.88-6.05-.02-16.54 2.2-21.83-1.66-5.62-4.1-5.01-17.12-2.8-22.81 6.13-15.77 30.96-19.85 45.17-23.45 11.18-2.83 26.77-4.54 34.17-14.56 5.47-7.4 6.33-17.42 6.49-26.32.3-15.97-2.04-32.03-4.29-47.8-3.59-25.17-8.07-50.21-12.43-75.25-5.52-31.67-11.08-63.25-18.8-94.48-6.78-27.38-14.62-54.52-23.69-81.23-2.59-7.64-5.25-15.26-8.23-22.76-1.62-4.07-2.77-9.22-7.88-9.78-1.94-.21-3.66 1.22-4.67 2.68-1.43 2.07-1.15 6.25-1.37 8.66l-1.57 17.7-5.47 62.83-15.74 169.59c-3.23 31.93-6.57 63.87-12.48 95.44-4.36 23.27-9.44 47.44-19.67 68.96-2.98 6.26-6.42 12.6-11.26 17.63-3.33 3.45-7.52 6.02-11.04 6.33-1.81.16-1.4.47-2.18-.79-1.05-2.19-1.82-4.51-2.29-6.9-1.88-9.28-1.46-19.19-1.17-28.6.91-29.93 4.26-59.78 6.65-89.61 2.89-36.11 4.13-72.1 4.57-108.31l2.54-153.23c.79-57.3-3.86-114.53-6.49-171.73-3.31-72.04-4.39-144.55 4.67-216.23 8.93-70.69 28.96-140.24 55.29-206.35 13.58-34.11 29.03-67.44 44.98-100.5 16.07-33.31 33.01-66.23 51.72-98.15 9.23-15.74 18.9-31.21 29.01-46.4 3.87-5.81-5.49-11.23-9.35-5.46h0zm313.71 188.49c-22.55 61.8-29.9 128.31-26.23 193.78 3.58 63.94 16.23 127.04 41.64 185.94 24.21 56.15 56.86 108.15 82.81 163.46 24.98 53.25 50.38 106.52 70.45 161.87 21.22 58.53 36 119.49 38.98 181.84.4 8.33.6 16.66.6 25 .01 6.96 10.83 6.97 10.82 0-.1-63.12-11.9-125.44-31.53-185.3-18.36-55.98-43.01-109.58-67.88-162.9-12.89-27.64-26.08-55.04-40.41-81.98-14.15-26.6-28.77-52.96-41.92-80.07-13.25-27.33-24.82-55.46-33.11-84.71-8.83-31.18-14.2-63.53-17.47-95.75-6.61-65.15-3.04-131.78 15.84-194.73 2.38-7.93 4.99-15.79 7.85-23.57 2.39-6.55-8.06-9.37-10.43-2.88h0zm-107.58 574.63c-19.26 17.86-34.22 39.23-45.55 62.85-2.93 6.11-5.64 12.32-8.27 18.57-2.42 5.75-4.89 11.52-6.87 17.44-3.96 11.84-6.5 24.17-8.59 36.46-2.14 12.6-3.93 25.39-4.46 38.18-.61 14.92 1.36 29.67 4.65 44.2 6.72 29.66 18.56 58.13 31.87 85.39 13.26 27.18 25.79 54.98 42.22 80.44a268.24 268.24 0 0 0 6.2 9.18c1.68 2.38 4.73 3.5 7.4 1.94 2.36-1.38 3.63-5 1.94-7.4-17.24-24.44-29.91-51.66-42.95-78.46-12.97-26.67-25.42-53.57-33.32-82.26-3.79-13.76-6.67-27.44-7.21-41.47-.23-7.04 0-14.09.67-21.1l.87-8.23.51-4.13.15-1.12c-.11.8.02-.16.04-.27l.37-2.59a311.04 311.04 0 0 1 7.52-37.4c3.21-11.73 7.97-22.86 12.75-33.56a253.62 253.62 0 0 1 17.21-32.66 173.6 173.6 0 0 1 23.12-29.18 200.62 200.62 0 0 1 7.39-7.19c2.11-2.11 2.11-5.54 0-7.65s-5.54-2.11-7.65 0h0z" />
        <path
            d="M1482.4 1686.74l.58.92c.11.2.71 1.5.29.49s.04.15.1.36c.11.36.17.73.27 1.09.17.61-.14-1.42-.1-.79 0 .14.03.28.03.43.02.28.02.56 0 .84a2.96 2.96 0 0 0-.04.52c0 .03.27-1.55.11-.82l-.21.9-.26.78c-.2.61.65-1.4.27-.62l-.18.38c-.29.57-.62 1.12-.98 1.64-.68.97.63-.74.19-.23l-.57.67-1.41 1.44-1.37 1.19c-.96.78.88-.65.21-.15l-.91.66c-.99.7-2.02 1.34-3.08 1.95-2.23 1.22-4.53 2.31-6.89 3.26l-.71.3c-.76.32 1.23-.52.06-.03l-1.39.58-3.06 1.26-5.53 2.23-10.17 3.95-18.68 7.46c-5.69 2.46-11.23 5.29-16.56 8.45-6.72 3.99-13.16 8.93-17.22 15.74-2.98 5.01-3.87 11.36-3.35 17.1.53 5.86 2.24 12.46 6.85 16.5a16.3 16.3 0 0 0 8.58 3.8 91.28 91.28 0 0 0 11.19 1.05c6.76.24 13.52-.05 20.28-.22l3.78-.06c2.83 0 5.54-2.49 5.41-5.41a5.5 5.5 0 0 0-5.41-5.41c-6.15 0-12.29.38-18.44.38-3.51 0-7.01-.08-10.51-.38l-2.35-.23c-.19-.02-.38-.05-.57-.07-.88-.1.56.07.59.08-.45-.11-.91-.18-1.38-.21-.71-.12-1.41-.24-2.11-.4l-.72-.19c-.12-.04-.23-.09-.35-.12-.76-.22 1.3.66.62.26-.42-.25-.85-.48-1.26-.74-.62-.38.76.52.65.51a2.17 2.17 0 0 1-.29-.24c-.23-.21-.46-.42-.68-.65-.18-.18-.34-.38-.51-.57-.76-.85.67.99.25.32-.33-.51-.67-1.01-.96-1.54-.13-.24-.26-.49-.38-.74l-.18-.38c-.33-.69.3.74.29.7-.13-.62-.48-1.25-.67-1.86-.37-1.24-.66-2.5-.86-3.78-.14-.86.18 1.56.04.28a14.62 14.62 0 0 1-.09-.93 29.79 29.79 0 0 1-.1-2.11 34.54 34.54 0 0 1 .2-3.94c.09-.86-.24 1.56-.04.31l.16-.88a31.14 31.14 0 0 1 .45-1.91c.15-.54.33-1.07.52-1.59.41-1.08-.51 1.07-.16.36.14-.29.27-.59.43-.88a21.11 21.11 0 0 1 1.1-1.83c.23-.35.46-.69.71-1.02.11-.16.27-.33.37-.5-.71 1.23-.36.47-.08.12a35.31 35.31 0 0 1 3.66-3.78c.62-.55 1.26-1.08 1.91-1.61.29-.23.77-.43-.35.27.17-.11.34-.26.5-.38l1.28-.92c1.47-1.03 2.99-1.99 4.54-2.91 5.27-3.14 10.73-5.94 16.35-8.39l1.05-.45c.4-.17 1.57-.65-.12.05l2.04-.84 4.22-1.69 9.11-3.52c7.53-2.89 15.04-5.85 22.47-8.99 5.16-2.18 9.94-4.52 14.27-8.15 5.01-4.2 8.46-10.44 6.83-17.1-.45-1.75-1.2-3.41-2.22-4.9-1.57-2.35-4.85-3.59-7.4-1.94-2.34 1.51-3.62 4.88-1.94 7.4h0z" />
        <path
            d="M1421.97 1780.13l109-2.22 110.06-2.43 61.22-1.02c2.83-.04 5.54-2.46 5.41-5.41a5.5 5.5 0 0 0-5.41-5.41l-109.63 2.05-109.88 2.48-60.77 1.15c-2.83.05-5.54 2.46-5.41 5.41a5.5 5.5 0 0 0 5.41 5.41h0z" />
        <path
            d="M1787.02 1625.42a248.84 248.84 0 0 1-1.78 25.14l-.38 3.07-.1.72c-.11.84.13-.3.05-.36-.03.61-.11 1.21-.25 1.8l-.91 6.1-2.08 12.15-9.42 49.84c-.64 3.88-1.05 7.83-1.81 11.68a24.83 24.83 0 0 1-.89 3.28l-.27.74a4.05 4.05 0 0 0-.14.37c-.27.71.33-.83.32-.75-.18.56-.44 1.1-.76 1.59-.51.99-1.09 1.94-1.73 2.85-.15.22-.31.43-.46.64-.44.62 1-1.25.18-.23-.36.44-.73.87-1.11 1.29a33.69 33.69 0 0 1-2.56 2.51c-.42.37-.85.73-1.29 1.08-.84.68 1.16-.87.17-.13l-.78.57c-2.13 1.5-4.38 2.83-6.72 3.98l-1.72.82c-.29.14-.59.27-.88.4l-.45.19c-.91.4 1.31-.54.39-.16-1.32.54-2.65 1.06-3.99 1.53-5.89 2.02-11.93 3.57-18.07 4.62l-5.09.83-1.18.17-.62.09c1.02-.14 0 0-.18.02l-.6.08-1.36.17c-3.53.43-7.06.77-10.6 1.02-7.15.53-14.33.77-21.5.79-1.79 0-3.59 0-5.38-.02a5.4 5.4 0 0 0-5.47 5.34c-.04 2.99 2.36 5.44 5.35 5.47h.13c14.86.26 29.72-.65 44.43-2.73 12.36-1.85 25.18-4.86 36.01-11.35a41.53 41.53 0 0 0 12.49-11.23 30.14 30.14 0 0 0 3.7-7.15c.87-2.64 1.46-5.37 1.75-8.13 2.54-17.16 6.19-34.13 9.44-51.16 3.22-16.92 5.99-34.01 6.78-51.24a222.95 222.95 0 0 0 .2-6.33c.04-2.99-2.36-5.44-5.34-5.48-2.99-.04-5.44 2.36-5.48 5.34v.13h0zm-518.04-303.86c.82 16.28 1.25 32.58 1.6 48.88.78 36.55.77 73.14-.48 109.68-.69 20.24-1.77 40.48-3.53 60.66-1.94 22.31-4.97 44.48-8.55 66.58l-11.86 68.77c-3.04 18.16-6.1 36.52-6.82 54.95a103.03 103.03 0 0 0 1.01 20.69c.81 4.98 2.34 10.14 5.33 14.27 5.79 7.98 16.31 11.03 24.82 5.37 9.52-6.32 15.23-17.8 19.81-27.89 7.13-15.69 12.42-32.18 17.1-48.74 11.48-40.63 19.43-82.36 25.57-124.1 4.93-33.51 8.19-67.27 11.11-101.01l7.41-100.34 3.34-57.74.14-2.73c.14-2.92-2.59-5.41-5.41-5.41a5.5 5.5 0 0 0-5.41 5.41l-2.22 40.04-6.33 92.36c-2.69 34.21-5.71 68.42-9.86 102.49-2.06 16.95-4.56 33.84-7.59 51.53-3.59 21-7.71 41.92-12.52 62.68-4.35 18.77-9.24 37.46-15.35 55.74-1.35 4.04-2.77 8.05-4.27 12.04l-2.02 5.2-1.12 2.74c-.05.13-.41.96-.07.17l-.72 1.67a121.92 121.92 0 0 1-8.9 17.17c-.68 1.06-1.39 2.11-2.13 3.13-.23.32-1.47 1.86-.44.61l-1.29 1.56c-.69.79-1.4 1.56-2.16 2.28-.35.34-.71.67-1.08.99l-.54.45c-.92.81.95-.58.12-.09-.73.43-1.41.96-2.17 1.36-.18.09-.37.17-.54.27-.83.49.39-.5.53-.21 0 .02-1.24.42-1.31.44a4.09 4.09 0 0 1-1.09.24c-.22-.23 1.68-.07.68-.1-.18 0-.36.04-.54.03a6.62 6.62 0 0 0-1.09-.03c-.87.13 1.41.35.57.09-.23-.07-.48-.09-.72-.15-.46-.11-.9-.25-1.36-.38-.26-.08-.51-.2-.78-.29.07.02 1.24.64.55.22-.38-.23-.8-.4-1.18-.63-.48-.29-1.71-1.42-.44-.22-.66-.62-1.31-1.23-1.94-1.89-.95-.98.52.91-.18-.24-.3-.5-.64-.97-.93-1.48a24.41 24.41 0 0 1-.7-1.34c-.14-.28-.25-.58-.39-.85.63 1.27.29.73.18.4-.39-1.19-.83-2.34-1.15-3.55-.32-1.2-.58-2.4-.79-3.62-.07-.38-.13-.77-.19-1.16-.01-.08-.2-1.38-.08-.47s-.05-.43-.06-.5c-.05-.42-.09-.83-.13-1.25-1.5-15.31.71-31.5 2.82-46.21 3.04-21.12 6.98-42.1 10.65-63.12 4.19-24.01 8.14-48.08 11.02-72.29 2.33-19.58 3.82-39.24 4.86-58.93 2.01-37.84 2.4-75.77 1.95-113.65-.27-22.44-.81-44.9-1.81-67.33l-.15-3.21a5.53 5.53 0 0 0-5.41-5.41c-2.82 0-5.56 2.48-5.41 5.41h.01z" />
        <path
            d="M1290.95 1740.32l12.16-.28 28.99-.66 35.04-.8 30.46-.69 14.71-.34h.21c2.83-.06 5.54-2.44 5.41-5.41a5.5 5.5 0 0 0-5.41-5.41l-12.16.28-28.99.66-35.04.8-30.46.69-14.71.34h-.21c-2.83.07-5.54 2.45-5.41 5.41a5.5 5.5 0 0 0 5.41 5.41h0zm2-1194.55l3.91-1.88 2.13-.93-.66.28.66-.27 1.31-.52 5.8-2.11c4.67-1.57 9.45-2.78 14.3-3.61.63-.11 1.26-.2 1.89-.29 1.14-.16-1.14.14-.21.03l1.09-.13c1.33-.15 2.67-.25 4-.32 2.69-.14 5.39-.09 8.07.17l.97.1c.18.02.37.03.55.07.11.02-1.34-.19-.75-.1l2.06.35c1.37.26 2.72.6 4.05 1.01.62.19 1.24.4 1.85.62.26.1.52.19.78.3.17.05.33.11.48.19-.02-.02-1.3-.57-.64-.27 1.06.48 2.1.98 3.11 1.56a29.9 29.9 0 0 1 2.78 1.79c.22.15.43.31.64.47.67.48-1.16-.93-.29-.22a33.81 33.81 0 0 1 1.3 1.08c1.63 1.43 3.15 2.99 4.54 4.66a7.18 7.18 0 0 0 .98 1.22c.09.07-.81-1.07-.5-.65l.27.36.53.72c.63.87 1.23 1.76 1.8 2.67 1.13 1.78 2.17 3.62 3.11 5.51.46.92.9 1.84 1.32 2.78.2.44.39.89.58 1.33.15.35-.59-1.42-.19-.44l.31.75c.7 1.73 1.34 3.49 1.92 5.27 1.4 4.33 2.49 8.75 3.27 13.23l.03.21 3.78-6.65a112.03 112.03 0 0 1-12.47 3.39 130.35 130.35 0 0 1-5.89 1.16 115.73 115.73 0 0 1-3.25.52l-.74.11c-.65.1 1.35-.18.69-.09l-.37.05c-.59.08-1.17.15-1.76.21a80.62 80.62 0 0 1-13.72.45 66.94 66.94 0 0 1-3.45-.31 1.65 1.65 0 0 1-.38-.05c-.13-.04 1.39.21.81.11a23.23 23.23 0 0 0-.88-.13c-.58-.09-1.15-.2-1.73-.31-2.11-.43-4.19-1.04-6.21-1.81-.92-.35.72.33.41.18-.25-.12-.51-.22-.76-.34-.47-.22-.93-.45-1.38-.69a36.14 36.14 0 0 1-2.82-1.68c-.44-.29-.88-.59-1.31-.9-.2-.14-.4-.29-.59-.44-.9-.66 1 .81.12.09a54.28 54.28 0 0 1-2.46-2.09c-1.66-1.52-3.23-3.14-4.7-4.84-.71-.82-1.4-1.65-2.07-2.5-.26-.33-.9-1.22.16.21l-.45-.59a44.96 44.96 0 0 1-1.02-1.39c-2.38-3.34-4.56-6.83-6.5-10.44-1.55-2.85-2.97-5.76-4.28-8.73l-.36-.83-.15-.36c-.23-.54.66 1.57.31.72-.18-.42-.35-.85-.52-1.28l-.62-1.59c-.03-.07-.05-.15-.08-.22-.95-2.66-3.73-4.72-6.65-3.78-2.62.85-4.8 3.8-3.78 6.65 1.57 4.28 3.43 8.45 5.54 12.48 4.06 7.92 9.05 15.57 15.29 21.95 3.33 3.49 7.18 6.47 11.39 8.82 4.47 2.33 9.32 3.82 14.32 4.4 9.74 1.31 19.64.27 29.24-1.59 5.32-.98 10.56-2.32 15.7-4.03l.24-.08c1.35-.4 2.5-1.28 3.23-2.49a6.4 6.4 0 0 0 .55-4.17 75.29 75.29 0 0 0-2.65-11.39c-2.47-8.15-5.94-16.27-11.05-23.13-3.08-4.24-6.82-7.96-11.08-11.02-4.45-3.06-9.49-5.15-14.8-6.15-11.37-2.22-23.17-.61-34.19 2.63-4.44 1.33-8.81 2.92-13.07 4.76-1.99.84-3.99 1.71-5.91 2.72-.09.05-.19.1-.28.15-2.56 1.52-3.42 4.82-1.94 7.4 1.55 2.53 4.81 3.38 7.4 1.94z" />
        <path
            d="M1456.02 616.97s27.14-25.31 58.4-14.64c26.03 8.89 31.65 43.85 31.65 43.85s-24.35 16.33-50.67 7.51-39.38-36.72-39.38-36.72z"
            fill="#fff" />
        <path
            d="M1459.84 620.8l.8-.71.96-.8.61-.49.31-.25c.78-.62-.97.74-.56.43 2.74-2.08 5.6-3.99 8.58-5.71 1.96-1.12 3.96-2.16 6.01-3.11l1.63-.73c.98-.43-1.1.45-.29.12l.91-.37c1.21-.48 2.42-.92 3.66-1.33a61.3 61.3 0 0 1 7.78-2.02 61.49 61.49 0 0 1 1.88-.32c.42-.06 1.8-.2-.07 0l1.1-.13a53.95 53.95 0 0 1 4.23-.28c1.5-.04 3 0 4.5.09.74.05 1.48.12 2.22.2.23.03 1.49.19.47.05-.98-.13.35.06.63.11a47.3 47.3 0 0 1 8.97 2.39c.27.1.54.22.81.32.6.23-1.2-.52-.61-.26.15.07.3.13.45.2a35.22 35.22 0 0 1 1.64.79 36.28 36.28 0 0 1 3.2 1.84 40.54 40.54 0 0 1 1.36.92l.76.55c.09.07.19.14.28.21.75.55-.89-.71-.45-.35.92.76 1.83 1.51 2.7 2.32 1.64 1.55 3.17 3.21 4.57 4.98.76.95-.58-.78-.16-.22.15.21.31.41.46.62a46.56 46.56 0 0 1 1.02 1.43c.62.89 1.2 1.8 1.77 2.72 1.1 1.81 2.12 3.67 3.04 5.57.43.89.85 1.78 1.24 2.69.09.24.19.48.3.7-.1-.29-.22-.58-.36-.85.05.12.1.23.14.35l.55 1.37c1.69 4.4 3.02 8.93 3.95 13.55.01.07.03.14.04.21l2.49-6.11c-1.03.69-2.12 1.29-3.2 1.88-1.21.66-2.45 1.27-3.7 1.85l-1.07.49c-.19.08-.37.17-.56.25l-.29.12c-.64.28.71-.3.71-.3-.88.3-1.73.71-2.6 1.03a68.83 68.83 0 0 1-12.86 3.47l-.86.14-.44.06c-.59.09.78-.13.71-.09a6.98 6.98 0 0 1-1.93.22 60.71 60.71 0 0 1-3.82.25c-2.72.06-5.45-.06-8.16-.36-.61-.06.67.1.62.09-.16-.03-.33-.05-.49-.07l-.99-.16c-.72-.12-1.44-.26-2.16-.41-1.42-.3-2.82-.67-4.2-1.09-1.22-.37-2.42-.79-3.6-1.26a26.13 26.13 0 0 1-.79-.32c-.87-.35 1.11.48.25.11l-1.66-.75c-2.1-1-4.14-2.13-6.11-3.37-.94-.59-1.86-1.21-2.77-1.86l-1.28-.93-.63-.47c-.46-.34.67.51.58.45-.14-.09-.27-.22-.41-.32-3.24-2.59-6.26-5.44-9.04-8.53-1.24-1.37-2.43-2.78-3.58-4.23l-.39-.5c-.22-.28.9 1.18.34.44l-.79-1.05c-.48-.64-.95-1.3-1.41-1.95a95.82 95.82 0 0 1-5.98-9.91 1.01 1.01 0 0 1-.07-.15c-1.2-2.57-5.1-3.42-7.4-1.94-2.64 1.71-3.23 4.65-1.94 7.4a63.46 63.46 0 0 0 4.99 8.5c4.38 6.66 9.64 12.69 15.65 17.94 7.97 6.82 17.36 12.17 27.7 14.31a64.24 64.24 0 0 0 32.72-2.11c5.69-1.73 11.13-4.2 16.17-7.35.07-.05.15-.1.22-.15 2.2-1.47 2.89-3.59 2.49-6.11a66.19 66.19 0 0 0-3.27-11.86c-3.18-8.79-7.64-17.18-14.08-24.03-3.57-3.85-7.79-7.03-12.47-9.4-6.1-2.93-12.7-4.64-19.46-5.04-11.73-.81-23.45 2.49-33.81 7.83a78.61 78.61 0 0 0-10.03 6.16 61.68 61.68 0 0 0-5.77 4.55c-.07.06-.14.13-.21.19a5.45 5.45 0 0 0 0 7.65 5.53 5.53 0 0 0 7.65 0zm-135.1-43.24l.16-1.38-.19 1.44c.58-4.24 1.71-8.38 3.36-12.33l-.54 1.29.68-1.53a5.87 5.87 0 0 0 .55-4.17c-.39-1.36-1.28-2.51-2.49-3.23-1.26-.73-2.76-.93-4.17-.55-1.37.36-2.53 1.26-3.23 2.49-2.72 5.64-4.39 11.73-4.94 17.97 0 1.43.57 2.81 1.58 3.82 2.11 2.11 5.54 2.11 7.65 0h0c.95-1.06 1.51-2.41 1.58-3.83h0z" />
        <path
            d="M1492.6 647.61l1.86-5.11-.55 1.29c1.1-2.58 2.39-5.06 3.87-7.44 1.48-2.58.61-5.87-1.94-7.4-2.59-1.44-5.86-.59-7.4 1.94a59.35 59.35 0 0 0-6.28 13.84c-.77 2.88.92 5.84 3.78 6.65a5.52 5.52 0 0 0 6.65-3.78h0zm-107.89-32.82c-2.03 6.79 1.42 14.46 7.54 17.87 6.19 3.45 14.14 2.82 19.98-1.08 3.15-2.13 5.82-4.91 7.82-8.15 1.48-2.58.62-5.88-1.94-7.4-2.59-1.44-5.85-.59-7.4 1.94-.22.35-.44.69-.68 1.03l-.36.5.38-.48c-.46.56-.92 1.1-1.43 1.62-.6.48-1.17 1-1.71 1.55l.61-.47c-.16.12-.33.24-.5.36a18.06 18.06 0 0 1-1.03.66c-.26.16-.53.3-.8.45-.39.2-1.69.62-.1.1-.7.23-1.37.5-2.09.67a4.15 4.15 0 0 0-.93.19c.92-.11 1.08-.13.5-.07l-.63.05c-.7.04-1.53-.16-2.21-.05.92.13 1.09.15.5.06l-.46-.09c-.36-.08-.71-.17-1.06-.27-.18-.05-1.45-.54-.53-.16s-.31-.18-.48-.27c-.39-.17-.74-.39-1.06-.67l.64.5c-.15-.12-.29-.24-.44-.37-.28-.26-.55-.53-.81-.82a8.19 8.19 0 0 1-.28-.33c-.26-.32-.12-.14.41.52-.29-.6-.63-1.18-1.01-1.73l.21.5c-.07-.18-.13-.36-.18-.54a11.23 11.23 0 0 1-.22-.83c-.32-1.42 0 .98-.02.04 0-.28-.03-.56-.03-.85 0-.19 0-.38.03-.56.06-.58.03-.38-.09.6.13-.33.17-.75.27-1.11.76-2.88-.92-5.83-3.78-6.65a5.52 5.52 0 0 0-6.65 3.78h0z" />
        <path
            d="M1393.62 629.79l-10.62 8.66-5.62 4.43c-.74.58.14-.1.24-.19l-.86.66-1.15.88-3.03 2.28c-7.5 5.66-15.36 10.84-23.53 15.5a136.05 136.05 0 0 1-13.81 6.81 5.42 5.42 0 0 0-2.49 3.23c-.37 1.41-.18 2.9.55 4.17.72 1.21 1.87 2.11 3.23 2.49a6.4 6.4 0 0 0 4.17-.55c17.65-7.47 33.33-18.88 48.26-30.73l12.29-10c2.19-1.81 2.01-5.8 0-7.65-2.33-2.14-5.32-1.93-7.65 0h0z" />
        <path
            d="M1391.6 636.5c-3.85 17.54-5.01 35.56-3.45 53.44.48 5.3 1.18 10.57 2.11 15.81a5.42 5.42 0 0 0 2.49 3.23c1.26.72 2.76.92 4.17.54 3.01-.97 4.3-3.66 3.78-6.65-.37-2.13-.63-4.28-1.01-6.41.27 1.51 0-.06-.06-.45l-.18-1.52-.37-3.42a175.33 175.33 0 0 1-.76-12.77 171.27 171.27 0 0 1 1.36-25.71l.1-.76-.09.68c.03-.19.05-.38.08-.57l.25-1.7.58-3.58c.43-2.45.9-4.88 1.43-7.31.6-2.76-.82-5.98-3.78-6.65-2.73-.62-6.01.82-6.65 3.78h0zm400.1 929.57c14.88-11.56 28.19-24.99 39.62-39.96 9.21-12.14 16.87-25.3 23.96-38.76 10.87-20.62 21.53-41.13 29.75-62.98 18.67-49.6 30.41-101.9 40.52-153.82 11.18-57.47 19.73-115.47 26.2-173.65 5.47-49.17 10.28-98.92 9.28-148.45-.65-32.15-3.22-66.64 8.16-97.38 4.41-11.81 10.37-22.98 17.74-33.22 7.13-9.93 16.34-19.74 27.82-24.57 22.29-9.37 41.91 7.16 52.81 25.3 10.12 16.83 16.11 36.11 20.27 55.21 2.17 9.98 2.45 20.67 2.79 31.04.56 16.87.42 33.77 0 50.64-.98 39.19-3.64 78.31-7.99 117.33-6.99 63.2-18.97 126.04-39.78 186.23-18.97 54.87-45.05 107.64-76.16 156.63-36.5 57.47-81.75 109.57-135.87 151.1a527.48 527.48 0 0 1-41.11 28.56c-5.88 3.7-.46 13.06 5.46 9.34 59.05-37.13 109.95-85.45 151.7-141.22 37.49-50.07 68.09-105.69 91.98-163.46 23.21-56.12 38.3-115.08 47.69-175.01 5.91-37.73 9.84-75.77 12.36-113.87 2.41-36.38 3.89-73.05 2.43-109.51-.42-10.62-.96-21.41-3.31-31.81a250.03 250.03 0 0 0-7.21-25.78c-7.37-21.56-18.52-45.39-38.9-57.48-10.3-6.11-22.89-8.35-34.59-5.45-12.5 3.1-23.2 11.62-31.61 21.08a138.9 138.9 0 0 0-32.89 70.3c-5.48 34.96-1.66 70.14-2.69 105.31-.65 22.31-2.17 44.6-4.04 66.84-4.81 57-12.1 113.83-21.46 170.27-9.39 56.61-20.63 113.23-37.16 168.23-6.46 21.51-13.7 42.95-23.28 63.3-5.34 11.34-11.39 22.39-17.19 33.5-7.2 13.77-14.92 27.28-24.26 39.74-10.99 14.67-24.27 27.49-38.68 38.77-5.48 4.29 2.23 11.9 7.65 7.65h0z" />
        <g fill="#ffa400">
            <path
                d="M1279.06 818.27l-12.63 31.32c-.39 1.41-.19 2.91.55 4.17a5.41 5.41 0 0 0 7.4 1.94 6.34 6.34 0 0 0 2.49-3.23l12.63-31.32c.39-1.41.19-2.91-.55-4.17a5.41 5.41 0 0 0-7.4-1.94 6.34 6.34 0 0 0-2.49 3.23h0zm-51.04 76.24l-4.57 35.52c0 1.44.57 2.81 1.58 3.82 2.11 2.11 5.54 2.11 7.65 0a6.31 6.31 0 0 0 1.58-3.82l4.57-35.52c0-1.44-.57-2.81-1.58-3.82-2.11-2.11-5.54-2.11-7.65 0a6.31 6.31 0 0 0-1.58 3.82zm20.23 18.7v24.38c0 2.83 2.49 5.54 5.41 5.41a5.5 5.5 0 0 0 5.41-5.41v-24.38c0-2.83-2.49-5.54-5.41-5.41a5.5 5.5 0 0 0-5.41 5.41zm35.56 16.87l-4.23 33.69c0 1.44.57 2.81 1.58 3.82 2.11 2.11 5.54 2.11 7.65 0a6.31 6.31 0 0 0 1.58-3.82l4.23-33.69c0-1.44-.57-2.81-1.58-3.82-2.11-2.11-5.54-2.11-7.65 0a6.31 6.31 0 0 0-1.58 3.82zm-60.49 48.99a33.66 33.66 0 0 0 1.17 21.66c.42 1.34 1.3 2.48 2.49 3.23 1.26.72 2.76.92 4.17.55a5.42 5.42 0 0 0 3.23-2.49c.63-1.19 1.09-2.86.55-4.17a29.38 29.38 0 0 1-1.98-7.32l.19 1.44c-.32-2.52-.32-5.07 0-7.59l-.19 1.44c.18-1.31.45-2.61.81-3.88.76-2.72-.93-6.01-3.78-6.65-2.87-.74-5.81.93-6.65 3.78h0zm-21.95 137.01c-5.08 12.57-6.99 26.2-5.56 39.68a88.85 88.85 0 0 0 2.09 12 5.41 5.41 0 0 0 6.65 3.78 5.41 5.41 0 0 0 3.78-6.65c-.39-1.56-.74-3.14-1.04-4.72l-.39-2.29c-.05-.35-.09-.71-.16-1.06 0-.02.15 1.17.07.55l-.09-.71c-.38-3.2-.57-6.42-.56-9.64a83.14 83.14 0 0 1 .6-9.46c.12-1.04-.16 1.05 0 .02l.19-1.24a67.01 67.01 0 0 1 .43-2.47c.29-1.52.63-3.04 1.01-4.54.9-3.53 2.04-6.99 3.41-10.36.39-1.41.19-2.91-.55-4.17a5.41 5.41 0 0 0-7.4-1.94 6.34 6.34 0 0 0-2.49 3.23h0zm58.03 85.9c.01 7.4 1.62 14.71 4.72 21.42a5.42 5.42 0 0 0 3.23 2.49 5.52 5.52 0 0 0 4.17-.55c1.22-.72 2.11-1.87 2.49-3.23a6.16 6.16 0 0 0-.55-4.17c-.12-.26-.23-.52-.35-.79-.29-.65.4 1.01.15.34l-.56-1.44a41.7 41.7 0 0 1-1-3.11c-.57-2.04-1-4.13-1.29-6.23l.19 1.44c-.27-2.05-.39-4.11-.39-6.18.01-2.83-2.5-5.54-5.41-5.41a5.5 5.5 0 0 0-5.41 5.41h0zm-74.95 48.75c.31 3.4.32 6.81.04 10.21a67.83 67.83 0 0 1-.26 2.45c-.05.42-.03.25.07-.5l-.11.75-.19 1.12a61.22 61.22 0 0 1-1.16 5.17c-.74 2.73.92 6 3.78 6.65a5.5 5.5 0 0 0 6.65-3.78 63.42 63.42 0 0 0 2-22.07c-.04-1.43-.6-2.79-1.58-3.82a5.43 5.43 0 0 0-3.82-1.58c-2.72.12-5.68 2.39-5.41 5.41h0zm22.52 61.87c-.4 13.73.77 27.45 3.49 40.91.56 2.78 4.01 4.63 6.65 3.78 2.83-.85 4.5-3.78 3.78-6.65-.64-3.18-1.19-6.37-1.65-9.58-.02-.16-.23-1.74-.12-.82.11.89-.06-.46-.08-.63l-.3-2.51-.47-4.84c-.54-6.53-.7-13.09-.49-19.64-.02-2.98-2.43-5.38-5.41-5.41a5.53 5.53 0 0 0-5.41 5.41h0zm29.04 126.42l5.84 11.14a5.41 5.41 0 0 0 9.34-5.46l-5.84-11.14a5.41 5.41 0 0 0-9.34 5.46h0z" />
            <use xlink:href="#E" />
            <path
                d="M1246.38 1108.22v30c0 2.83 2.49 5.54 5.41 5.41a5.5 5.5 0 0 0 5.41-5.41v-30c0-2.83-2.49-5.54-5.41-5.41a5.5 5.5 0 0 0-5.41 5.41zm32.21-88.16l1.86 16.88a5.91 5.91 0 0 0 1.58 3.82c2.11 2.11 5.54 2.11 7.65 0 1.03-1 1.6-2.39 1.58-3.82l-1.86-16.88a5.91 5.91 0 0 0-1.58-3.82c-2.11-2.11-5.54-2.11-7.65 0-1.03 1-1.6 2.39-1.58 3.82zm-92.23 28.16v18.75c0 2.83 2.49 5.54 5.41 5.41a5.5 5.5 0 0 0 5.41-5.41v-18.75c0-2.83-2.49-5.54-5.41-5.41a5.5 5.5 0 0 0-5.41 5.41zm104.93 153.75a77.97 77.97 0 0 0 6.61 34.54 5.42 5.42 0 0 0 3.23 2.49 5.52 5.52 0 0 0 4.17-.55c1.22-.72 2.11-1.87 2.49-3.23.3-1.41.11-2.88-.54-4.17l-.22-.5c-.16-.37-.1-.22.19.45-.15-.27-.26-.55-.34-.85a60.71 60.71 0 0 1-.72-1.88l-1.27-3.83a71.82 71.82 0 0 1-1.86-7.66l-.34-1.99-.14-.91c-.11-.69.14 1.19.02.17l-.39-4.01c-.18-2.69-.2-5.38-.08-8.07-.02-2.98-2.43-5.39-5.41-5.41a5.53 5.53 0 0 0-5.41 5.41h0zm-119.93-43.12v48.75c0 2.83 2.49 5.54 5.41 5.41a5.5 5.5 0 0 0 5.41-5.41v-48.75c0-2.83-2.49-5.54-5.41-5.41a5.5 5.5 0 0 0-5.41 5.41zm71.26-178.13v56.25c0 2.83 2.49 5.54 5.41 5.41a5.5 5.5 0 0 0 5.41-5.41v-56.25c0-2.83-2.49-5.54-5.41-5.41a5.5 5.5 0 0 0-5.41 5.41zm-15 397.16l11.64 27.97c.42 1.34 1.3 2.48 2.49 3.23 1.26.72 2.76.92 4.17.55a5.42 5.42 0 0 0 3.23-2.49c.63-1.19 1.09-2.86.55-4.17l-11.64-27.97c-.42-1.34-1.3-2.48-2.49-3.23a5.41 5.41 0 0 0-7.4 1.94c-.63 1.19-1.09 2.86-.54 4.17h0z" />
        </g>
        <path
            d="M1444.96 473.19l-15.48 20.26a5.43 5.43 0 0 0-.55 4.17c.8 2.88 3.77 4.57 6.65 3.78a6.34 6.34 0 0 0 3.23-2.49l15.48-20.26c.73-1.26.93-2.76.54-4.17-.38-1.36-1.27-2.51-2.49-3.23-1.26-.73-2.76-.93-4.17-.55a6.34 6.34 0 0 0-3.23 2.49h0zm29.79 13.43a148.77 148.77 0 0 1-9.9 17.53l-5.77 8.15c-.24.31-.85 1.44-.13.18a8.1 8.1 0 0 1-.77.98l-1.57 1.94-3.35 3.94c-1.87 2.12-2.25 5.59 0 7.65 2.04 1.88 5.66 2.27 7.65 0a153.58 153.58 0 0 0 23.19-34.91c.7-1.27.89-2.76.55-4.17-.39-1.36-1.28-2.51-2.49-3.23-2.42-1.28-6.1-.78-7.4 1.94h0zm33.05 11.13l-21.24 39.05c-1.35 2.48-.7 6.01 1.94 7.4 2.53 1.33 5.96.71 7.4-1.94l21.24-39.05c1.35-2.48.7-6.01-1.94-7.4-2.53-1.33-5.96-.71-7.4 1.94h0zm24.28 17.19l-.24 2.48.19-1.44a31.02 31.02 0 0 1-.9 4.26l-.67 2.08-.39 1.02c-.15.39-.07.2.25-.57l-.25.57a32.81 32.81 0 0 1-2.06 3.83l-1.23 1.8c-.58.82.78-.94.09-.11l-.8.96a5.74 5.74 0 0 0-1.58 3.82c0 1.43.58 2.8 1.58 3.82 2.03 1.86 5.68 2.29 7.65 0a37.71 37.71 0 0 0 9.17-22.53c-.02-2.98-2.43-5.39-5.41-5.41a5.54 5.54 0 0 0-5.41 5.41h0zm-80.4 339.59l.55 3.45c.1.72-.03.05-.04-.28.01.32.08.65.12.96l.19 1.74.48 6.97c.15 4.66 0 9.32-.47 13.96 0 1.43.57 2.81 1.58 3.82a5.48 5.48 0 0 0 3.83 1.58c3.17-.14 5.11-2.38 5.41-5.41.95-9.9.54-19.88-1.21-29.67a5.42 5.42 0 0 0-2.49-3.23c-1.26-.72-2.76-.92-4.17-.55-3.01.97-4.3 3.66-3.78 6.65h0zm36.09-23.22c-.63-1.5.01.05.13.35l.51 1.33.94 2.69 1.54 5.48 1.09 5.58.1.7c.08.6.07.47-.05-.38a5.14 5.14 0 0 0 .17 1.41l.24 2.66a70.85 70.85 0 0 1-.1 11.19l-.14 1.42a6.11 6.11 0 0 0-.17 1.41l.05-.38-.11.7-.23 1.4-1.22 5.56c-.71 2.73.9 6 3.78 6.65a5.5 5.5 0 0 0 6.65-3.78c3.28-12.65 3.27-25.94-.02-38.59-1.01-3.71-2.28-7.35-3.82-10.88a5.42 5.42 0 0 0-3.23-2.49 5.52 5.52 0 0 0-4.17.55c-1.22.72-2.11 1.87-2.49 3.23a6.4 6.4 0 0 0 .55 4.17zm30.35 7.25l1.2 2.39c.15.42.33.83.55 1.22l-.29-.68.25.62a47.15 47.15 0 0 1 1.6 4.74 50.82 50.82 0 0 1 1.1 4.89c.07.43.09.9.21 1.32-.42-1.53-.06-.41 0 .05l.21 2.5c.1 1.67.12 3.34.05 5.01l-.15 2.33-.14 1.33c-.07.59-.05.44.07-.44l-.1.66a47.55 47.55 0 0 1-2.56 9.67c-1.01 2.65 1.11 6.05 3.78 6.65 3.08.7 5.58-.94 6.65-3.78 5.39-14.2 4.04-30.61-3.08-43.95-1.52-2.56-4.82-3.42-7.4-1.94-2.53 1.55-3.38 4.81-1.94 7.4h0zm-70.83 224.29l.84 1.04c.67.83-.74-.99.07.1l1.35 1.9 2.53 4.12 2.08 4.17.27.61-.28-.68c.12.42.34.83.5 1.24l.8 2.19c1.01 2.94 1.76 5.97 2.26 9.04.06.38.23 1.97.05.21l.12.99.21 2.32.09 5a5.46 5.46 0 0 0 5.41 5.41 5.53 5.53 0 0 0 5.41-5.41 60.47 60.47 0 0 0-14.04-39.9c-1.81-2.19-5.8-2.01-7.65 0-2.14 2.33-1.93 5.31 0 7.65h0zm31.17-33.04a71.92 71.92 0 0 1 6.65 10.34 79.45 79.45 0 0 1 1.31 2.61l.61 1.32.29.64 2.14 5.77c1.25 3.86 2.18 7.81 2.8 11.81.06.41.24 2.1.05.33l.17 1.45a77.75 77.75 0 0 1 .27 3.07 70.14 70.14 0 0 1 .15 6.15 69.72 69.72 0 0 1-.44 6.78l-.12.96c-.12 1.04.19-1.27.02-.15l-.25 1.6c-.2 1.17-.43 2.34-.68 3.5-.6 2.76.83 5.98 3.78 6.65 2.73.62 6.01-.82 6.65-3.78 3.82-17.71 1.51-36.2-6.54-52.44-2.1-4.26-4.63-8.31-7.53-12.07-.75-1.18-1.9-2.06-3.23-2.49a5.52 5.52 0 0 0-4.17.55c-1.22.72-2.11 1.87-2.49 3.23-.3 1.31-.32 3.05.55 4.17h0zm46.65-9.1l2.64 5.09 1.21 2.6.58 1.31c.47 1.07-.39-.97.01.03a107.46 107.46 0 0 1 3.71 10.66c1.02 3.56 1.83 7.18 2.44 10.83l.2 1.24c0 .48.07.96.21 1.42l-.05-.37.09.71c.06.47.11.95.16 1.42.2 1.9.35 3.81.44 5.72.14 2.82 2.39 5.54 5.41 5.41 2.81-.13 5.56-2.38 5.41-5.41a107.09 107.09 0 0 0-8.62-36.95c-1.34-3.13-2.84-6.19-4.5-9.17-1.53-2.55-4.82-3.42-7.4-1.94-2.53 1.55-3.39 4.81-1.94 7.4h0zm-38.26 167.46l2.9 3.03 1.44 1.75-.45-.58.39.52.56.79c1.61 2.29 2.99 4.74 4.14 7.29.17.37.4 1.32-.03-.11.09.31.25.6.36.9l.77 2.13 1.14 4.04.39 1.9.17.95.1.64c.08.59.06.43-.06-.48 0 1.38.27 2.8.31 4.18.08 2.83 2.43 5.54 5.41 5.41 2.86-.13 5.49-2.38 5.41-5.41-.36-13.08-5.85-25.5-15.27-34.59-2.05-1.95-5.64-2.19-7.65 0-1.94 2.12-2.19 5.57 0 7.65h0zm30.32-5.96l12.43 28.43a5.42 5.42 0 0 0 3.23 2.49c1.41.37 2.9.18 4.17-.55 1.22-.72 2.11-1.87 2.49-3.23.3-1.41.11-2.88-.55-4.17l-12.43-28.43a5.42 5.42 0 0 0-3.23-2.49c-1.41-.37-2.9-.18-4.17.55-1.22.72-2.11 1.87-2.49 3.23-.3 1.41-.11 2.88.55 4.17h0zm49.16-26.62c-1.36-1.04-.15-.12.13.11l.95.8 1.84 1.67 3.2 3.38.8.96c.27.33.96 1.52.11.13.42.7.99 1.34 1.45 2.02.91 1.33 1.74 2.7 2.51 4.11l1.06 2.08.53 1.13c.17.37.6 1.74.07.13l1.61 4.53 1.15 4.67.22 1.22c.07.41.17 1.9.03.1l.25 2.48c.21 2.81 2.33 5.55 5.41 5.41 2.75-.12 5.64-2.39 5.41-5.41a52.61 52.61 0 0 0-21.26-38.84c-1.26-.73-2.76-.93-4.17-.54a5.41 5.41 0 0 0-3.78 6.65 6.34 6.34 0 0 0 2.49 3.23h0zm-17.44 24.22l.72.25c.86.3-1.22-.6-.36-.15l1.11.6c.5.3 1.68 1.39.35.16l.95.83 1.04 1.1c.15.17.65.81.05.04s-.1-.12.03.06c.53.82 1.01 1.66 1.44 2.53.3.56-.5-1.29-.2-.47l.26.72.39 1.34c.07.28.38 1.1.27 1.36.1-.23-.17-1.54-.08-.44l.04.63a12.71 12.71 0 0 1-.02 1.38c0 .15.03.66-.07.75.06-.05.27-1.56.06-.57l-.32 1.34-.24.72c-.28.87.56-1.25.16-.35a5.92 5.92 0 0 0-.55 4.17c.38 1.36 1.27 2.51 2.49 3.23 2.36 1.25 6.17.82 7.4-1.94 1.28-2.69 1.93-5.63 1.9-8.61-.11-2.94-.8-5.83-2.05-8.49a19.75 19.75 0 0 0-11.88-10.62c-2.88-.77-5.84.91-6.65 3.78-.73 2.87.94 5.8 3.78 6.65h0zm-40.2 180.03l2.45 4.93c.44.97-.43-1.09 0-.03l.51 1.28.93 2.59a61.53 61.53 0 0 1 2.4 10.03l.1.68-.06-.41.15 1.37a64.61 64.61 0 0 1 .19 2.4l.08 5.16s-.17 3.44-.36 5.15l-.08.68.05-.42-.21 1.36-.52 2.7c-.59 2.76.82 5.98 3.78 6.65 2.72.62 6.02-.82 6.65-3.78 3.36-15.58.98-31.85-6.69-45.81-1.53-2.55-4.82-3.42-7.4-1.94-2.53 1.55-3.39 4.81-1.94 7.4h0zm36.74-12.71l2.88 5.12 1.25 2.56.55 1.22.27.61c.39.9-.34-.84-.09-.21 1.45 3.58 2.65 7.25 3.58 10.99.45 1.85.83 3.71 1.15 5.59l.23 1.49c.2 1.36-.14-1.14.03.22l.32 3a76.92 76.92 0 0 1 .12 11.56 66.61 66.61 0 0 1-.28 3.17c-.02.22-.05.44-.08.67-.02.19-.19 1.42-.05.44.12-.87.01-.11-.02.11l-.13.83c-.35 2.21-.8 4.4-1.34 6.57-.69 2.74.89 5.99 3.78 6.65 2.8.64 5.92-.84 6.65-3.78 5.27-21.2 1.85-43.62-9.48-62.29-1.48-2.41-4.91-3.55-7.4-1.94-2.54 1.54-3.4 4.81-1.94 7.4h0zm35.15 21.26l3.83 24.36a5.42 5.42 0 0 0 2.49 3.23c1.26.72 2.76.92 4.17.54a5.42 5.42 0 0 0 3.23-2.49 6.27 6.27 0 0 0 .55-4.17l-3.83-24.36a5.42 5.42 0 0 0-2.49-3.23 5.41 5.41 0 0 0-7.4 1.94c-.66 1.28-.85 2.76-.54 4.17h0zm35.95-32.4a253.88 253.88 0 0 1 8.93 16.97l3.94 8.64.88 2.05-.11-.26.22.52.5 1.21 1.73 4.33c1.33 3.42 2.58 6.86 3.75 10.33.91 2.67 3.76 4.71 6.65 3.78 2.66-.86 4.75-3.79 3.78-6.65-4.29-12.62-9.52-24.9-15.66-36.73a263.96 263.96 0 0 0-5.27-9.64 5.41 5.41 0 0 0-9.34 5.46h0zm39.65-11.26c3.26 2.54 6.23 5.42 8.86 8.61.32.38.62.77.93 1.16.45.57-.84-1.13-.21-.27l.44.6c.62.84 1.21 1.7 1.79 2.57a59.64 59.64 0 0 1 3.16 5.41c.46.88.89 1.78 1.31 2.69.21.45.42.9.6 1.37-.02-.06-.53-1.28-.2-.47l.39.97a62.62 62.62 0 0 1 1.94 5.8 60.59 60.59 0 0 1 1.37 6.11l.23 1.47c.06.36.08 1.02-.07-.55.02.25.06.49.09.74a54.4 54.4 0 0 1 .28 3.11c.15 2.28.16 4.57.03 6.85-.07 1.19-.18 2.38-.31 3.56-.12 1.08.17-1.14.06-.4l-.15 1.03c-.09.59-.2 1.18-.31 1.76-.35 1.41-.15 2.9.55 4.17.72 1.21 1.88 2.1 3.23 2.49 2.67.61 6.09-.81 6.65-3.78 3.41-18.32-1.14-37.23-12.52-51.99-3.03-3.98-6.56-7.57-10.49-10.67-1.04-.97-2.4-1.53-3.83-1.58a5.54 5.54 0 0 0-3.83 1.58 5.43 5.43 0 0 0-1.58 3.82c.06 1.33.48 2.97 1.58 3.82h0zm-233.06 183.38a53.05 53.05 0 0 0 5.66 36.14 5.41 5.41 0 0 0 9.34-5.46h0l-1.87-3.68-.14-.31c-.23-.53-.19-.42.14.34.01-.22-.24-.6-.32-.8l-.66-1.78a46.89 46.89 0 0 1-1.98-7.84c-.01-.29-.06-.57-.13-.85l.06.41-.04-.34-.19-2.06-.12-3.96a47.28 47.28 0 0 1 .22-3.95l.11-1.03c.12-1.07-.2 1.22 0 .07l.36-2.03c.54-2.77-.78-5.97-3.78-6.65-2.68-.61-6.07.81-6.65 3.78h0zm23.74 14.15a132.35 132.35 0 0 0 10.32 29.32c1.24 2.55 5.07 3.44 7.4 1.94 2.52-1.56 3.37-4.81 1.94-7.4l-1.58-3.37-.75-1.7-.29-.68c-.51-1.2.46 1.12-.03-.08l-2.58-6.78a126.16 126.16 0 0 1-3.99-14.13 5.45 5.45 0 0 0-6.65-3.78c-2.84.85-4.5 3.78-3.78 6.65h0zm47.24-12.75c-.7 5.55-.97 11.16-.79 16.75a80.91 80.91 0 0 0 2.43 16.15c.82 3.25 1.81 6.46 2.86 9.65.89 2.68 3.78 4.71 6.65 3.78 2.67-.86 4.73-3.78 3.78-6.65a108.24 108.24 0 0 1-4.19-15.93c-.1-.58-.19-1.16-.27-1.74-.14-.96.15 1.24.04.28l-.12-1.01a68.74 68.74 0 0 1-.31-3.78 80.5 80.5 0 0 1-.04-7.61c.13-3.3.43-6.59.8-9.87 0-1.43-.57-2.81-1.58-3.82-2.11-2.11-5.54-2.11-7.65 0-.95 1.06-1.51 2.41-1.58 3.82h0zm36.2 13.97l.29.66-.13-.29.52 1.35.9 2.74c.51 1.73.91 3.49 1.21 5.27l.11.71c.09.6.07.48-.04-.37 0 .48.06.96.16 1.43l.17 2.52a46.17 46.17 0 0 1-.15 5.76c-.25 2.83 2.67 5.53 5.41 5.41 3.14-.14 5.14-2.38 5.41-5.41a51.05 51.05 0 0 0-4.5-25.23 5.42 5.42 0 0 0-3.23-2.49c-1.41-.37-2.91-.18-4.17.54-1.22.72-2.11 1.87-2.49 3.23-.31 1.41-.11 2.88.54 4.17h0zm-56.58 87.26c.2 12 4.04 23.66 10.99 33.44a60.78 60.78 0 0 0 6.87 8.07c2.03 1.98 5.66 2.17 7.65 0a5.51 5.51 0 0 0 0-7.65c-1.24-1.21-2.42-2.47-3.54-3.79-.28-.33-.55-.66-.82-1-.14-.17-.27-.34-.4-.51l.25.32-1.51-2.11c-1.9-2.83-3.54-5.81-4.92-8.92-.16-.38-.09-.2.23.55l-.25-.6-.47-1.21c-.31-.81-.59-1.62-.86-2.45a53.46 53.46 0 0 1-1.36-5c-.19-.84-.35-1.69-.5-2.54l-.2-1.28c-.08-.59-.06-.43.06.48-.03-.21-.05-.43-.08-.64-.2-1.72-.3-3.44-.33-5.17-.05-2.83-2.45-5.54-5.41-5.41a5.5 5.5 0 0 0-5.41 5.41h0zm31.1 7.78a63.77 63.77 0 0 1 4.5 6.9l1.83 3.5.87 1.87.2.46c-.36-.85.12.3.19.47 1 2.5 1.84 5.06 2.52 7.67l.91 4.02.33 1.86.15 1.02c.06.42.03.23-.08-.59l.09.68a5.91 5.91 0 0 0 1.58 3.82c2.11 2.11 5.54 2.11 7.65 0 .9-.98 1.75-2.44 1.58-3.82-1.35-12.05-5.83-23.54-12.99-33.32-.75-1.19-1.89-2.07-3.23-2.49a5.52 5.52 0 0 0-4.17.55c-2.24 1.44-3.75 4.97-1.94 7.4h0zm37.23 9.65l7.22 11.43c.73 1.2 1.88 2.09 3.23 2.49a5.52 5.52 0 0 0 4.17-.55 5.41 5.41 0 0 0 1.94-7.4l-7.22-11.43c-.73-1.2-1.88-2.09-3.23-2.49-1.41-.37-2.9-.18-4.17.55a5.41 5.41 0 0 0-1.94 7.4h0zm428.24-694.33v35.63c0 2.83 2.49 5.54 5.41 5.41a5.5 5.5 0 0 0 5.41-5.41v-35.63c0-2.83-2.49-5.54-5.41-5.41a5.5 5.5 0 0 0-5.41 5.41zm26.25-5.63v39.37c0 2.83 2.49 5.54 5.41 5.41a5.5 5.5 0 0 0 5.41-5.41v-39.37c0-2.83-2.49-5.54-5.41-5.41a5.5 5.5 0 0 0-5.41 5.41zm35.43-22.12a343.62 343.62 0 0 0-3.58 43.7 353.25 353.25 0 0 0 .03 12.18c.06 2.83 2.45 5.54 5.41 5.41a5.5 5.5 0 0 0 5.41-5.41c-.29-14.08.31-28.16 1.81-42.16l.68-5.85.17-1.36.1-.78c.09-.71.02-.07-.04.27.17-1.03.29-2.08.44-3.11.33-1.41.14-2.89-.55-4.17a5.41 5.41 0 0 0-7.4-1.94c-1.1.71-2.29 1.88-2.49 3.23h0zm36.35 20.75l-9.92 46.76c-.59 2.76.81 5.98 3.78 6.65 2.72.62 6.03-.82 6.65-3.78l9.92-46.76c.59-2.76-.81-5.98-3.78-6.65-2.72-.62-6.03.82-6.65 3.78zm-112.02 190.63c.72 5.56.95 11.16.71 16.76-.02 2.8-.27 5.6-.73 8.36l.09-.68c-.03.19-.05.38-.08.57l-.14.94-.35 2.07c-.26 1.44-.55 2.88-.87 4.3-.62 2.75.83 5.98 3.78 6.65 2.74.62 5.99-.83 6.65-3.78 2.62-11.54 3.22-23.45 1.76-35.2a5.91 5.91 0 0 0-1.58-3.82c-2.11-2.11-5.54-2.11-7.65 0-.9.98-1.76 2.44-1.58 3.82h0zm25.22-3.62c.28 6.15.39 12.31.12 18.46a153.49 153.49 0 0 1-.61 8.55l-.51 4.47-.06.45c.12-.91-.04.25-.07.46l-.35 2.39c-.55 3.57-1.21 7.13-1.92 10.67-.56 2.77.79 5.97 3.78 6.65 2.69.61 6.06-.81 6.65-3.78 2.58-12.27 3.94-24.77 4.05-37.31 0-3.67-.11-7.35-.28-11.01-.13-2.82-2.4-5.54-5.41-5.41-2.82.13-5.55 2.38-5.41 5.41h0zm39.98 4.25l-7.71 44.96a5.87 5.87 0 0 0 .54 4.17c.72 1.21 1.88 2.1 3.23 2.49 2.62.6 6.14-.8 6.65-3.78l7.71-44.96c.34-1.41.15-2.89-.55-4.17-.72-1.21-1.88-2.1-3.23-2.49-2.62-.6-6.14.8-6.65 3.78zm24.22 29.97c-.64 3.87-1.6 7.67-2.86 11.38-.31.91-.64 1.82-1 2.72-.17.45-.36.89-.54 1.34-.27.68.42-.96.12-.29l-.29.66c-.81 1.82-1.7 3.59-2.65 5.34-1.36 2.48-.69 6.01 1.94 7.4 2.53 1.34 5.95.71 7.4-1.94a75.28 75.28 0 0 0 8.31-23.74c.34-1.41.14-2.89-.55-4.17-.72-1.21-1.88-2.1-3.23-2.49-2.61-.59-6.16.79-6.65 3.78h0zm-107.06 95.18l-.88 9.26-.28 2.31-.15 1.15c.25-1.47.03-.25-.02.1l-.72 4.79a222.23 222.23 0 0 1-3.78 18.4c-.68 2.74.88 5.99 3.78 6.65 2.8.64 5.92-.84 6.65-3.78 3.16-12.76 5.25-25.77 6.22-38.89.21-2.83-2.64-5.53-5.41-5.41a5.54 5.54 0 0 0-5.41 5.41h0zm35.54-7.09l-11.61 40.83-3.32 11.69c-.77 2.72.95 6.01 3.78 6.65 2.87.74 5.81-.93 6.65-3.78l11.61-40.83 3.33-11.69c.77-2.72-.95-6.01-3.78-6.65-2.87-.74-5.81.93-6.65 3.78h0zm22.38 29.57l-.43 4.09c-.05.38-.03 1.53 0 .04-.02.31-.07.62-.13.92l-.31 2.03-1.59 7.87a111.74 111.74 0 0 1-4.93 15.47 5.43 5.43 0 0 0 .55 4.17 5.41 5.41 0 0 0 7.4 1.94 6.29 6.29 0 0 0 2.49-3.23c4.21-10.66 6.83-21.88 7.77-33.3.25-2.83-2.66-5.53-5.41-5.41-3.14.14-5.15 2.38-5.41 5.41h0zm-88.7 122.86l-15.18 35.86c-.68 1.28-.88 2.76-.55 4.17.38 1.36 1.27 2.51 2.49 3.23 1.26.73 2.76.93 4.17.55 1.24-.4 2.7-1.23 3.23-2.49l15.18-35.86c.68-1.28.88-2.76.55-4.17-.39-1.36-1.27-2.51-2.49-3.23-1.26-.73-2.76-.93-4.17-.55-1.24.4-2.7 1.23-3.23 2.49h0zm14.46 14.7l-.9 2.24-.49 1.2-.03.08-1.78 4.09-4.09 8.55c-2.84 5.58-5.93 11.01-9.29 16.3-1.48 2.58-.62 5.88 1.94 7.4 2.59 1.44 5.85.59 7.4-1.94 6.98-11.09 12.9-22.82 17.67-35.03.38-1.41.19-2.91-.54-4.17a5.41 5.41 0 0 0-7.4-1.94 6.29 6.29 0 0 0-2.49 3.23h0zm19.09 19.45a46.97 46.97 0 0 0-10.22 15.98c-.39 1.41-.19 2.91.55 4.17a5.41 5.41 0 0 0 7.4 1.94l1.1-.85c.66-.66 1.14-1.48 1.39-2.39l.27-.65-.55 1.29a42.96 42.96 0 0 1 5.51-9.42l-.85 1.09c.95-1.23 1.97-2.4 3.05-3.52a5.58 5.58 0 0 0 1.58-3.82 5.41 5.41 0 0 0-5.41-5.41c-1.43 0-2.81.57-3.82 1.58h0z" />
    </g>
    <g clip-path="url(#B)">
        <path
            d="M1069.85 517.21s-12.72 21.43-16.13 38.77-4.01 24.89-4.01 24.89 63.03 13.44 89.48 28.04 68.9 51.3 72.44 58.05 79.88-12.5 79.88-12.5l-11.65 51.18c-4.28 17.73-25.4 109.9-34.96 141.11-9.57 31.21-17.62 66.63-42.36 84.35-24.73 17.72-57.73 37.35-71.87 37.35s-22.23-5.99-28.54 12.08-20.27 49.44-22.62 60.61l-2.36 11.16s56.97 34.41 93.47 38.45 111.18 19.32 187.96-12.53 111.06-51.6 126.5-67.85c13.91-14.64 36.86-9.09 18.62 35.18s-108.01 84.8-108.01 84.8-108.24 40.44-154.14 39.79-118.51-10.37-151.91-20.57c-33.4-10.19-39.6-11.04-39.6-11.04s-5.12 23.58-27.28 64.56-72.9 118.19-72.9 118.19 10.08 102.56 17.8 143.06 31.34 132.51 43.35 163.49c12 30.98 41.06 79.69 34.41 89.88s-41.42 2.05-69.85-48.74-53.81-111.21-63.06-176.09l-15.86-114.02-38.13 27.18s13.12 10.07 8.43 50.56c-4.68 40.49-24.18 96.37-28.08 104.32-3.9 7.96-41.1 75.84-48.72 91.59s-24.37 41.84-17.22 48.36 48.16 13.62 63.84 20.67 29.59 32.83 22.54 39.96-60.77 10.24-120.11 9.92l-270.43-3.73c-7.9-.31-182.39-.36-182.39-.36s-16.47 5.94-42.67 22.67-89.72 55.02-105.29 77.11-25.93 54.63 0 66.63 59.84 27.76 170.49 3.26 206.46-49.28 255.01-38.09 94.58 25.62 108.51 56.23c13.93 30.62 34 82.22-74.87 50.89-108.87-31.32-245.58-.95-245.58-.95s-63.74 15.17-109.86 19.57-115.27 17.26-158.95-9.85-91.48-51.92-75.69-107.24c15.79-55.31 83.04-98.77 102.81-110.62 19.78-11.85 93.61-51.36 109.43-64.53s28.16-19.91 28.16-19.91l-19.32-24s-34.7-65.39-39.2-120.69c-4.49-55.3 3.63-161.78 3.63-161.78l23.95-107.82s17.99-68.73 54.64-113.66 76.99-91.44 110.5-119.43c28.35-23.81 58.75-45.08 90.84-63.55 35.17-20.3 72.47-42.14 93.56-60.57 21.09-18.44 87.02-72.43 87.02-72.43l65.92-52.78 61.72-45.32s57.58-55.12 74.24-78.83c16.65-23.71 33.06-49.38 60.96-74.08 27.9-24.71 73.37-61.13 73.37-61.13l80.13-39.24z"
            fill="#fff" />
        <g fill="#4e4e4e">
            <path
                d="M1092.74 650.36c-.59 9.48-.88 19.47 3.43 27.94 4.92 9.68 14.99 15.64 25.08 19.66 16.95 6.76 37.71 9.02 52.34-1.88 13.63-10.16 17.95-28.91 16.81-45.86-.22-3.26-.64-6.61-2.22-9.46-1.87-3.37-5.16-5.69-8.38-7.83-20.45-13.63-45.25-29.52-69.32-35.66-15.13-3.86-12.47-.34-14.21 14.86-1.46 12.72-2.73 25.45-3.53 38.24zm45.73 125.04c16.49-4.75 33.51-9.31 50.58-7.6s34.44 11.04 40.89 26.92c5.4 13.3 2.3 28.68-3.9 41.62-4.52 9.44-9.54 13.36-19.16 17.52-4.34 1.76-8.97 2.74-13.66 2.88-17.58.91-36.81-.71-50.01-12.34-21.68-19.11-43.04-57.98-4.73-69.01z" />
        </g>
        <g fill="#b1b1b1">
            <path
                d="M1043.01 807.68c-6.49.27-14.01 1.65-17 7.41-2.71 5.22-.14 11.92 4.31 15.75s10.34 5.47 16.03 6.98c10.26 2.72 28.72 4.34 30.57-10.58 2.1-17.03-22.16-20.05-33.91-19.57zm46.86 22.7c5.69-1.23 11.62 2.19 14.89 7s4.35 10.76 4.89 16.55.49 12.09-2.87 16.85c-2.68 3.79-7.12 6.03-11.66 7.01-6.86 1.47-14.4.22-20.05-3.95s-9.11-11.35-8.22-18.31c1.36-10.67 11.49-17.69 20.68-23.31m-407.66 225.72c21.26-8.13 42.5-20.36 53.05-40.51 5.91-11.28 7.99-24.2 8.58-36.92 1.67-35.67-8.81-73.25-34.6-98-9.14-8.77-20.59-15.95-33.23-16.76-18.44-1.17-35.06 11.29-46.85 25.49-11.8 14.2-24.62 21.6-38.29 34.01-26.65 24.18-154.43 68.47-103.88 119.14 43.8 43.9 143.45 33.34 195.22 13.54z" />
            <path
                d="M832.12 897.78c8.54-.37 17.25-1.45 24.92-5.22s14.22-10.63 15.76-19.03c1.63-8.9-2.65-18.15-9.29-24.3s-15.34-9.62-24.09-11.95c-22.08-5.87-66.8-10.05-70.8 22.54-3.89 31.63 40.8 38.93 63.5 37.96zM538.5 1124.39c-.45 7.34 9.14 14 16.08 16.46s14.55 1.84 21.88 1.18c6.01-.54 12.29-1.16 17.38-4.39 5.1-3.23 8.53-9.94 6.06-15.44-2.91-6.45-11.43-7.58-18.51-7.8-15.08-.47-31.88-.32-42.89 9.98" />
        </g>
        <g fill="#626262">
            <path
                d="M979.36 1566.42c13.94 14.2 21.64 33.19 29.02 51.66l22.24 55.7c6.73 16.86 13.56 34.25 13.36 52.4-26.98-3.51-47.8-25.08-63.9-46.98-20.99-28.55-42.79-63.04-52.31-97.52-10.95-39.62 29.23-38.03 51.6-15.25zm-203-190.25c-12.82 10.82-20.79 26.62-24.32 43.01-9.58 44.47 15.37 93.96 56.85 112.76 3.57 1.62 7.31 3.05 11.23 3.29 9.43.59 17.98-5.75 23.87-13.13 17.15-21.52 18.15-51.34 17.68-78.84-.13-7.68-.33-15.47-2.43-22.86-1.87-6.57-5.19-12.63-8.78-18.45-18.39-29.8-40.32-54.28-74.09-25.78zm-292.41 564.11c-1.42 13.75 1.38 29 11.77 38.13 7.52 6.6 17.74 8.99 27.51 11.15 48.58 10.76 97.71 21.58 147.46 20.6 2.96-.06 6.09-.21 8.59-1.8 4.04-2.58 5.06-7.94 5.57-12.7 1.15-10.84 1.42-22.32-3.48-32.07-3.92-7.79-10.74-13.67-17.58-19.09-39.56-31.33-170.27-97.12-179.84-4.22zM254.97 1215.8c.67-10.17 13.55-14.36 23.75-14.04 29.91.93 57.56 18.24 76.76 41.16s31 51.07 40.69 79.34c4.26 12.42 8.27 25.19 15.96 35.83 21.33 29.53 64.34 34.92 89.31 61.45 24.9 26.45 24.39 72.68-1.08 98.59-20.46 20.8-51.16 27.01-79.97 31.68-66.04 10.71-139.84 16.9-194.03-22.29-12.84-9.29-33.48-11.47-41.01-25.41-5.74-10.62-4.93-23.44-3.7-35.45 7.8-76.02 25.88-150.62 53.77-221.78" />
        </g>
        <path
            d="M1050.94,837.36c5.92,1.56,12.39,4.18,14.69,9.86,2.49,6.16-1.05,12.98-4.67,18.56-1.78,2.75-4.01,5.73-7.27,6.13-3.66.45-6.83-2.62-8.59-5.85s-2.81-6.94-5.35-9.62c-7.61-8.03-33.26-1.12-35.3-14.34-2.44-15.84,38.67-6.8,46.49-4.74Z"
            fill="#ff7900" />
        <path
            d="M1068.34 511.71c-30.81 8.34-59.64 22.74-84.8 42.36-17.26 13.48-34.47 27.05-51.05 41.36-20.22 17.44-39.99 35.9-56.38 57.06-8.32 10.75-15.29 22.45-23.49 33.3-9.18 12.03-18.99 23.56-29.39 34.55-36.41 38.84-78.2 71.91-120.37 104.2-47.3 36.22-90.64 77.41-138.73 112.56-33.87 24.74-70.46 44.69-105.97 66.86-44.58 27.84-84.67 61.8-122.66 97.96-34.02 32.38-65.73 67.24-88.68 108.48-28.59 51.38-43.28 108.96-54.59 166.24-11.51 58.26-18.21 118.26-10.89 177.5 3.2 26.94 9.3 53.45 18.18 79.08 8.3 23.6 18.53 46.56 29.29 69.13l6.35 13.05c3.3 6.56 13.14.79 9.86-5.75-19.4-38.58-36.89-78.77-46.27-121.05-12.33-55.56-10.82-113.01-2.46-169.04a957.46 957.46 0 0 1 20.34-99.07c7-26.99 15.66-53.67 27.28-79.05 19.35-42.26 47.07-78.82 79.61-111.8 37.01-37.52 76.83-73.25 120.52-102.9 32.65-22.16 67.78-40.31 100.62-62.17 48.13-32.05 90.35-71.25 135.15-107.55 40.21-32.57 82.31-62.53 120.34-97.75 21.38-19.8 41.63-40.89 59.47-63.96 8.35-10.8 15.42-22.42 23.55-33.36 7.83-10.54 16.83-20.24 26.09-29.53 18.36-18.41 38.25-35.23 58.54-51.47 19.07-15.26 38.04-30.46 59.94-41.59 13.95-7.04 28.58-12.62 43.67-16.67 7.08-1.92 4.07-12.92-3.03-10.99h0z" />
        <path
            d="M1064.93 514.33c-4.54 7.93-8.45 16.21-11.69 24.76-3.3 8.48-5.8 17.25-7.46 26.2-.96 5.14-1.55 10.35-1.77 15.58.02 3.14 2.56 5.67 5.7 5.7 3.12-.06 5.64-2.58 5.71-5.7.08-2.06.22-4.12.43-6.18l.17-1.53c.03-.23.06-.45.08-.68.14-1.2-.16 1.13-.05.32l.51-3.27c.74-4.34 1.71-8.65 2.89-12.89 1.18-4.27 2.54-8.49 4.09-12.65.77-2.1 1.59-4.18 2.45-6.25.08-.21.21-.45.28-.67-.39 1.29-.3.71-.15.37l.71-1.65 1.32-2.92a162.93 162.93 0 0 1 6.63-12.79c1.49-2.58.69-6.35-2.05-7.8-2.73-1.53-6.18-.63-7.81 2.04h0z" />
        <path
            d="M1048.2 586.36c25.53 5.75 51.03 12.18 75.37 21.93l4.01 1.64c1.27.53-1.18-.5.09.04l1.09.47 2.53 1.1a258.32 258.32 0 0 1 8.44 3.92 231.1 231.1 0 0 1 15.21 8.14c4.86 2.85 9.6 5.9 14.22 9.14 1.13.79 2.25 1.6 3.35 2.42l1.66 1.24.82.62c.48.37.36.28-.34-.26l.54.42a183.12 183.12 0 0 1 6.65 5.44c4.77 4.1 9.29 8.47 13.55 13.1 2.16 2.36 4.24 4.78 6.25 7.28l1.49 1.88c-1.06-1.28-.27-.35-.06-.06l.83 1.09c.96 1.29 1.89 2.59 2.81 3.91 1.7 2.44 5.08 3.8 7.81 2.04 2.43-1.57 3.87-5.18 2.05-7.8a156.1 156.1 0 0 0-23.43-26.67 193.84 193.84 0 0 0-28.44-21.25c-10.23-6.25-20.92-11.72-31.99-16.34-12.46-5.23-25.2-9.74-38.18-13.51-12.71-3.73-25.57-6.9-38.48-9.85l-4.81-1.09c-2.9-.65-6.31.88-7.02 3.98-.66 2.89.87 6.31 3.98 7.01h0z" />
        <path
            d="M1216.86 673.44l59.27-10.67 16.91-2.81a5.75 5.75 0 0 0 3.41-2.62c.76-1.33.97-2.91.58-4.39-1.04-3.2-3.85-4.5-7.02-3.98l-59.33 10.32-16.85 3.16c-2.94.56-4.88 4.24-3.99 7.01a5.86 5.86 0 0 0 7.02 3.98h0z" />
        <path
            d="M1286.02 656.38c-5.54 21.24-10.34 42.67-15.56 63.99-2.6 10.64-5.32 21.25-8.28 31.79l-7.03 24.34c-3.74 14.56-6.59 29.34-9.85 44.01-3.7 16.67-7.75 33.31-13.21 49.51-1.37 4.05-2.83 8.07-4.4 12.06l-1.12 2.78-.53 1.27c.51-1.23-.19.43-.32.74-.81 1.87-1.65 3.73-2.52 5.58-3.3 7.19-7.27 14.06-11.87 20.5a52.59 52.59 0 0 1-.89 1.19c-.13.17-.25.34-.38.5.11-.14.75-.95.11-.15a104.68 104.68 0 0 1-1.87 2.31 103.79 103.79 0 0 1-3.81 4.31c-2.64 2.83-5.43 5.52-8.35 8.05a123.09 123.09 0 0 1-4.68 3.87l-.51.4c.04-.03.81-.61.29-.23l-1.22.92-2.48 1.8a131.18 131.18 0 0 1-10.01 6.45c-3.53 2.07-7.14 3.98-10.83 5.75a182.54 182.54 0 0 1-5.51 2.52l-.83.36c-.11.05-.81.34-.15.06s-.58.24-.77.32l-3.14 1.25c-7.58 2.92-15.37 5.3-23.29 7.12-4.01.92-8.04 1.71-12.11 2.35l-2.86.43c-.13.02-.89.13-.12.02.81-.12-.15.02-.34.04l-1.54.19c-2.05.24-4.1.45-6.15.62-7.94.66-15.91.72-23.86.19-5.12-.34-10.23-.88-15.32-1.52-.68-.08.03 0 .14.02l-1.1-.15-1.63-.23-3.76-.58-7.3-1.29a282.01 282.01 0 0 1-25.15-6.01 281.35 281.35 0 0 1-18.58-6.03l-6.21-2.37-2.26-.92c-.16-.07-.33-.14-.49-.2-.79-.33.79.34.85.36l-.81-.35-1.28-.56c-2.71-1.24-6.27-.86-7.81 2.04-1.33 2.51-.85 6.47 2.05 7.8 6.97 3.1 14.1 5.81 21.38 8.11a286.13 286.13 0 0 0 51.69 11.73c9.18 1.29 18.44 1.93 27.71 1.91a176.61 176.61 0 0 0 25.15-2.16c16.76-2.58 33.05-7.58 48.38-14.84 14.85-7.03 28.82-16.49 40.16-28.42 11.7-12.3 19.64-27.11 26-42.72 6.55-16.07 11.21-32.85 15.25-49.7 3.75-15.63 6.86-31.4 10.43-47.07 3.88-17.01 9.37-33.57 13.76-50.45 5.58-21.45 10.39-43.08 15.69-64.6l4.05-16c.75-2.88-.95-6.32-3.98-7.01a5.81 5.81 0 0 0-7.02 3.98h0zm-287.29 64.33l8.29 3 4.09 1.65c.28.12 1.01.37-.25-.11l1.11.47 2.2.97a126.06 126.06 0 0 1 14.13 7.22 73.7 73.7 0 0 1 3.02 1.94l1.39.98.82.61c.94.69-.91-.74-.08-.06a46.14 46.14 0 0 1 5.39 5.07l1.08 1.28c.78.94-.78-1.08-.07-.09l.59.82c.73 1.05 1.39 2.14 1.98 3.26l.78 1.59c.16.35.51 1.47-.01-.07.07.22.18.44.26.66.51 1.32.94 2.67 1.29 4.04a38.51 38.51 0 0 1 .47 2.07c.07.71.19 1.41.36 2.1-.44-1.24-.11-.84-.04-.28l.13 1.24.14 2.14-.01 4.29-.14 2.14-.1 1.07c-.04.39-.27 2.1-.01.25-.35 1.48-.14 3.04.58 4.39a5.71 5.71 0 0 0 7.8 2.05c1.15-.74 2.43-1.98 2.62-3.41a57.07 57.07 0 0 0-.25-18.67c-1.05-5.68-3.36-11.05-6.78-15.71-6.94-9.25-17.07-14.99-27.39-19.77a198.25 198.25 0 0 0-20.35-8.12c-3.04-.81-6.16.96-7.02 3.98-.76 3.02.99 6.11 3.98 7.01h0zm142.17 91c4.86-1.46 9.78-2.74 14.76-3.71l3.46-.62 1.93-.3.77-.11c-1.66.26-.28.04.03 0 2.44-.29 4.89-.5 7.34-.59 2.5-.1 5-.06 7.5.1 1.21.08 2.42.21 3.62.34.91.1-.38-.04-.38-.05s.85.13.95.14l2.08.36a56.26 56.26 0 0 1 7 1.83 37.11 37.11 0 0 1 1.48.53c.2.07.39.15.59.23.87.34-.43-.19-.49-.21.98.39 1.93.85 2.85 1.38a30.63 30.63 0 0 1 2.93 1.84c.92.64-.87-.72-.29-.23l.72.59c.43.37.84.75 1.23 1.15.36.36.68.75 1.02 1.13.76.85-.78-1.14-.15-.19l.51.75a17.21 17.21 0 0 1 .75 1.32c.08.17.5 1.11.1.15-.42-1 .09.28.16.47.98 2.81 3.95 4.97 7.02 3.98 2.78-.9 5.03-3.99 3.98-7.01-3.54-10.17-13.46-15.54-23.38-18.02-11.06-2.78-22.51-2.34-33.67-.44a147.26 147.26 0 0 0-17.45 4.21c-2.85.86-4.95 4.04-3.98 7.01a5.81 5.81 0 0 0 7.02 3.98h0zm-65.26.07c-5.41 5.45-5.64 14.78.05 20.14 2.76 2.67 6.48 4.13 10.33 4.03 3.87-.21 7.56-1.78 10.94-3.6a40.85 40.85 0 0 0 9.2-6.86 5.69 5.69 0 0 0 0-8.06c-2.23-2.22-5.84-2.22-8.07 0h0c-.6.59-1.21 1.16-1.85 1.71l-.83.69c-.87.72 1.03-.76-.13.09-1.3.96-2.67 1.82-4.09 2.59a34.64 34.64 0 0 1-1.93.96l-.66.29c.76-.31.94-.39.54-.23-.42.16-.83.33-1.26.48a12.56 12.56 0 0 1-2.24.6c.88-.1 1-.12.37-.07-.23.01-.46.02-.69.01-.58-.02-1.18-.4.31.08-.28-.09-.6-.13-.88-.21-.19-.06-.39-.12-.57-.19.84.37 1.06.46.67.28-.31-.17-.63-.32-.93-.51-.13-.08-.25-.17-.38-.25-.35-.25-.17-.11.56.43-.2-.23-.42-.44-.66-.62-.14-.15-.27-.3-.4-.45.57.76.69.9.35.42-.15-.26-.3-.53-.46-.78-.53-.89.35 1.25.11.24-.08-.34-.18-.68-.25-1.03-.08-.45-.05-.2.1.77-.02-.2-.03-.4-.03-.6 0-.3.04-.61.03-.91.07 1.57-.14.88-.02.32.04-.41.16-.8.35-1.16l-.34.8c.08-.18.17-.36.27-.54.14-.26.35-.51.48-.77-.6.74-.71.89-.33.44.13-.15.27-.3.42-.44 2.11-2.12 2.27-5.97 0-8.06-2.25-2.17-5.82-2.17-8.07 0h0z" />
        <path
            d="M1072.25 829.2c-1.97 2.1-4.11 4.05-6.39 5.81l1.15-.89-2.46 1.79a6.08 6.08 0 0 0-2.62 3.41 5.85 5.85 0 0 0 .57 4.39 5.78 5.78 0 0 0 3.41 2.62c1.48.41 3.07.21 4.4-.57a61.02 61.02 0 0 0 10-8.5c1.05-1.08 1.64-2.52 1.67-4.03-.01-1.51-.61-2.95-1.67-4.03-1.07-1.07-2.52-1.66-4.03-1.67-1.51.01-2.96.61-4.03 1.67h0z" />
        <path
            d="M1065.03 839.54c-2.78-2.26-5.93-4.01-9.32-5.2-2.86-.94-5.81-1.59-8.81-1.93-6.58-.88-13.25-1.07-19.87-1.48-5.87-.36-11.78-.97-17.58.35-3.03.69-5.85 2.09-8.21 4.1-2.7 2.28-4.89 6.2-4.49 9.8 1.03 9.3 12.25 10.41 19.66 10.05a65.89 65.89 0 0 1 9.32-.15c.15.01.3.03.45.05.56.05-.79-.12-.77-.11.08.1.74.12.88.15a23.59 23.59 0 0 1 1.89.44c.58.16 1.14.34 1.71.54l.84.31c.54.19-.72-.27-.67-.29s.47.21.55.24c1.18.54 2.32 1.17 3.4 1.88.3.2 1.35.7 1.47 1.03.02.06-1.01-.81-.56-.43.11.1.23.19.35.28.27.22.53.45.8.68.93.83 1.8 1.73 2.61 2.68.13.16.53.49.57.7.01.08-.78-1.05-.44-.56.08.12.18.24.26.36a29.3 29.3 0 0 1 1.15 1.75 21.59 21.59 0 0 1 .86 1.57l.39.81c.39.81-.5-1.26-.05-.13.45 1.17.82 2.38 1.09 3.6.92 4.03 3.59 7.49 7.86 8.23 7.38 1.28 13.88-3.41 17.96-9.15 3.94-5.53 5.22-12.68 5.09-19.34-.03-1.61-.15-3.22-.32-4.82a6.19 6.19 0 0 0-1.67-4.03c-1.08-1.06-2.52-1.66-4.03-1.67-2.83.13-6.04 2.52-5.7 5.7a46.88 46.88 0 0 1 .17 9.25c0-.06-.06.76-.08.76l.11-.76c-.04.25-.07.5-.12.76-.13.76-.28 1.51-.47 2.25-.16.62-.34 1.24-.54 1.84-.1.3-.22.6-.32.89-.22.56-.15.4.22-.48a14.76 14.76 0 0 1-.26.58c-.49 1.06-1.07 2.07-1.73 3.03-.18.26-.39.5-.56.77.78-1.25.49-.64.2-.29-.44.52-.91 1.01-1.41 1.48-.23.21-.47.41-.71.62-.86.77 1.13-.76.16-.13-.44.29-.86.59-1.32.84-.27.16-.55.3-.83.44l-.28.14c-.56.25-.38.18.52-.22-.56.1-1.12.26-1.66.45 1.28-.47 1.07-.11.37-.08-.27.01-.58-.05-.85-.02l.97.14c-.18-.03-.36-.07-.53-.12-.5-.08-.46-.5.61.3l-.24-.12c-.49-.3-.32-.15.51.45l-.19-.18c-.39-.42-.26-.24.38.53-.62-.97.3 1.29.03.17-.08-.32-.18-.64-.25-.96a31 31 0 0 0-13.8-19.49 30.65 30.65 0 0 0-15.42-4.86c-2.95-.13-5.9.17-8.84.28a41.05 41.05 0 0 1-4-.02l-.89-.07-.18-.02c-.63-.07-.47-.05.46.06a4.15 4.15 0 0 0-1.05-.2c-.46-.1-.92-.22-1.37-.37-.32-.15-.66-.27-1.01-.36.1-.06 1.2.62.4.15-.26-.2-.55-.36-.85-.49l.64.5a4.78 4.78 0 0 1-.45-.45c.71.31.92 1.6.93 2.24 0-1.17-.35 1.07-.11.32l.04-.17c.18-.58.11-.46-.22.37.18-.1.49-.88.62-1.09.53-.91-.95 1.06-.24.29.18-.2.35-.4.54-.59.12-.12.25-.25.38-.36.43-.39.99-.49-.34.23.46-.25.88-.58 1.35-.83.2-.1.41-.19.6-.29.35-.19-1.48.56-.24.12.97-.34 1.96-.6 2.97-.77.28-.05.57-.08.85-.14-1.84.34-.81.11-.37.07.58-.06 1.16-.1 1.75-.12 2.53-.06 5.06 0 7.58.22 6.82.42 13.69.67 20.49 1.34.68.07 1.36.2 2.04.23-1.72-.08-.58-.08-.16-.02l1.18.19a38.83 38.83 0 0 1 4.27.98c.69.2 1.38.43 2.05.68.45.17 1.21.71-.13-.08.33.19.71.32 1.05.48a22.97 22.97 0 0 1 1.88 1.04c.28.17.56.36.83.54.18.13.36.25.54.39l-.36-.28a6.19 6.19 0 0 0 4.03 1.67c1.51-.01 2.96-.61 4.03-1.67 1.9-2.07 2.48-6.06 0-8.06h0zm49.99 123.41c-4.23 1.32-7.22 5.89-9.71 9.24a160.77 160.77 0 0 0-10.86 17.02c-4.7 8.24-8.88 16.77-12.5 25.53-3.1 7.69-5.65 15.58-7.64 23.63-1.03 4.1-1.99 8.24-2.66 12.41-.36 1.48-.15 3.05.57 4.39a5.82 5.82 0 0 0 3.41 2.62c2.74.62 6.51-.83 7.02-3.98 1.84-10.89 4.74-21.57 8.68-31.89l1.18-3.06.59-1.45c.1-.24.21-.48.3-.72-.52 1.46-.08.19.04-.09.9-2.09 1.86-4.15 2.84-6.2a255.19 255.19 0 0 1 6.05-11.89 186.51 186.51 0 0 1 11.07-18.14c.83-1.19 1.7-2.34 2.57-3.5-1.39 1.86.02-.01.4-.47a37.75 37.75 0 0 1 1.02-1.19 18.8 18.8 0 0 1 1.77-1.8c.13-.09.26-.2.38-.32.06-.08-1.32.94-.94.73.07-.04.13-.1.2-.14.09-.05.19-.1.27-.16.59-.43-1.54.59-1.02.43 2.84-.89 4.96-4.01 3.99-7.01-.93-2.85-3.97-4.93-7.02-3.98h0z" />
        <path
            d="M1030.12 1021.95c6.29 8.77 15.02 15.86 23.48 22.42a274.17 274.17 0 0 0 45.34 28.51c19.27 9.64 39.69 17.2 60.8 21.62 23.4 4.89 47.71 6.66 71.57 6.88 47.58.51 94.94-6.65 140.24-21.2 38.92-12.64 76.79-30.97 108.14-57.54 3.93-3.33 7.72-6.81 11.61-10.18l2.29-1.94c.32-.26.67-.5.97-.78.52-.49-1.24.9-.42.33.21-.14.4-.31.61-.45 1.21-.85 2.61-1.46 3.79-2.3.57-.41-1.62.47-.38.17.27-.06.53-.18.8-.25.3-.05.59-.11.88-.2.16-.07-1.69.01-.38.08.26.01.53.01.79 0 1.27-.04-.75-.2-.45-.08a9.67 9.67 0 0 0 1.84.52c.38.06-1.38-.63-.16-.02.63.32 1.14 1.15 0-.11.23.25.54.49.79.72.13.16.27.31.41.45.65.44-.66-1.08-.27-.37.42.78.89 1.57 1.34 2.34-.52-.89-.31-.86-.03 0 .19.59.38 1.18.54 1.78.14.53.25 1.07.35 1.61.04.22.06.46.12.67.27 1.18-.11-1.11-.04-.29.12 1.32.22 2.63.22 3.95 0 1.24-.06 2.48-.16 3.72-.06.73-.14 1.46-.24 2.19.19-1.5-.19 1.04-.26 1.45-.61 3.26-1.45 6.47-2.53 9.61a65.6 65.6 0 0 1-4.19 9.94c-8.85 17.6-22.83 32.36-38.63 43.97-14.55 10.68-30.41 19.56-46.64 27.43-19.44 9.35-39.51 17.34-60.06 23.92-44.55 14.43-91.57 23.71-138.51 23.94-16.32.08-32.91-1.75-48.54-4.16-19-2.93-37.83-6.9-56.47-11.57-18.59-4.66-37.02-10.03-55.15-16.25-15.8-5.42-30.25-10.93-44.9-18.18-5.52-2.68-10.87-5.68-16.05-8.98-6.18-4-11.9 5.86-5.76 9.84 12.21 7.91 25.73 13.79 39.18 19.22 17.03 6.87 34.48 12.68 52.09 17.85 36.86 10.82 74.92 19.39 113.26 22.64 19.72 1.67 39.49.9 59.16-1.09 24.29-2.5 48.36-6.79 72.02-12.83 42.02-10.67 83.71-26.12 121.13-48.19 17.27-10.19 33.82-22.1 47-37.32 11.24-12.98 20.88-28.55 24.35-45.57 1.96-9.63 2.87-23.33-5.48-30.48-6.33-5.42-14.48-4.08-20.76.55-8.73 6.44-16.36 14.29-24.92 20.96-1.42 1.11.45-.34-.41.32l-1.15.88-2.4 1.79-5.17 3.7a249.18 249.18 0 0 1-11.99 7.84 322.71 322.71 0 0 1-31.47 16.93c-41.89 19.8-87.93 31.3-133.98 35.67-24.39 2.34-48.94 2.63-73.38.86-23.08-1.69-45.84-5.22-67.81-12.66-18.93-6.5-37.04-15.15-53.98-25.79a270.5 270.5 0 0 1-20.52-14.13l-.17-.13-1.29-1.01-1.88-1.49-4.1-3.39c-2.27-1.93-4.5-3.91-6.65-5.96-1.67-1.59-3.3-3.21-4.85-4.91a58.39 58.39 0 0 1-1.95-2.22c-.28-.33-.53-.68-.81-1.01.69.82.62.82.06.04-1.79-2.5-4.97-3.7-7.81-2.04-2.47 1.44-3.85 5.28-2.05 7.8h0zM284.9 1670.33c-5.36 6.45-11.55 12.31-17.67 18.02-17.39 16.01-35.96 30.69-55.56 43.92a619.52 619.52 0 0 1-43.32 27.03c-16.67 9.51-34.01 17.71-50.78 27.02-29.85 16.57-58.74 36.67-81.96 61.88-18.07 19.62-33.97 43.92-35.51 71.27-1.35 23.96 10.85 45.29 26.18 62.79 30.63 35 76.8 48.75 121.83 52.14 69.45 5.23 137.35-12.02 205.22-23.78 55.47-9.61 112.51-18.22 168.95-13.87 21.44 1.78 42.65 5.76 63.27 11.89a312.59 312.59 0 0 0 46.86 10.18c11.77 1.52 23.99 2.23 35.69-.28 8.36-1.79 16.82-5.93 21.21-13.6 4.71-8.22 3.74-18.28.98-26.97-6.04-19-18.82-36.22-33.98-48.98-44.01-37.07-106.62-41.18-161.43-34.93-64.37 7.33-127.22 24.62-190.45 38.1-27.23 5.81-54.74 11.45-82.54 13.59-24.61 1.9-49.06-.39-71.49-11.62-9.24-4.63-18.93-11.2-23.06-21.1-4.05-9.71-.88-20.02 4.42-28.57 8.49-13.69 22.03-24.15 34.42-34.13 13.6-10.94 27.84-21.07 42.33-30.8l65.63-42.75c.68-.44 1.37-.83 2.09-1.19 1.1-.57-1.22.4.25-.09l1.68-.57c2.69-.8 5.43-1.41 8.2-1.84 3.55-.6 5.25-.78 9.27-1.17 4.35-.42 8.71-.72 13.07-.95 48.81-2.62 98.01.07 146.79 1.94l128.44 3.32 151.53.91 68.5.1c12.99-.04 26.08.23 39.05-.6 10.81-.69 19.98-6.3 23.18-17.04 3.74-12.55-1.87-26.26-10.25-35.61-7.89-8.8-19.28-12.14-30.4-14.98-12.36-3.15-24.94-5.39-37.63-6.71-2.14-.22-4.27-.42-6.42-.52-.73-.04-1.45-.03-2.18-.09 1.73.15 0 .03-.51-.19 1.19.52-.36-.02-.29-.23-.12.39 1.29.44.47.33.05 0-.43-.4-.4-.43-.22.35.89 1 .36.41-.27-.3-.24-.97-.14-.18.11.93-.23-1.03-.29-1.36.27 1.31 0 .11.02-.54.02-.8.03-1.58.08-2.38 0-.4.05-.8.16-1.19.2-1.13.44-2.25.72-3.37a105.34 105.34 0 0 1 4.93-14.43c13.89-33.96 34.28-65.16 51.08-97.7 17.04-33.01 32.05-67.69 36.1-104.94 2.87-26.41.77-54.95-11.2-79.04-12.64-25.44-36.18-42.65-61.64-53.94-6.65-2.95-12.47 6.86-5.76 9.84 25.47 11.3 48.78 28.34 59.8 54.74 10.45 25.03 10.4 54.9 5.48 81.14-6.85 36.56-23.72 70.24-41.23 102.71l-28.7 52.64c-6.62 12.67-13.18 25.61-17.82 39.15-2.29 6.68-4.95 15.04-2.58 22.07 2.45 7.27 8.8 8.02 15.45 8.49a221.42 221.42 0 0 1 34.42 5.57c6.05 1.33 12 3.05 17.83 5.13 4.97 1.84 8.2 3.79 11.43 7.2 6.53 6.89 12.86 20.36 6.24 29.24-3.66 4.91-9.78 4.84-15.3 5.01-15.49.47-31.01.4-46.5.42-49.95.04-99.9-.34-149.85-.67-41.3-.27-82.63 0-123.92-1.35l-151.77-4.96c-21.23-.29-42.56-.42-63.75 1.09-11.64.83-25.74 1.13-35.57 8.21-21.7 15.64-45.2 28.79-67.33 43.81-14.32 9.71-28.35 19.88-41.81 30.75-12.54 10.12-25.48 20.66-34.49 34.19-6.43 9.65-10.39 21.15-8.44 32.8 1.79 10.71 8.73 19.63 17.13 26.15 19.75 15.31 47.24 21.83 71.92 21.99 25.66.16 51.4-4.37 76.51-9.17 31.08-5.94 61.9-13.21 92.76-20.17 31.44-7.1 62.95-14.08 94.78-19.24 32.26-5.23 65.07-8.23 97.68-4.5 43.43 4.96 88 24.18 108.96 64.63 3.89 7.51 8.17 17.83 6.63 25.49a11.94 11.94 0 0 1-4.13 7.51c-1.94 1.83-5.47 3.45-8.58 4.36-10.43 3.03-21.89 2.27-32.54 1.07-15.49-1.74-30.79-5.5-45.75-9.78-21.07-6.03-42.21-10.47-64.08-12.4-24.15-2.13-48.47-1.6-72.62.24-30.69 2.34-61.22 6.73-91.57 11.8-37.2 6.21-74.06 14.55-111.37 20.1-30.84 4.59-62.19 7.24-93.37 5.75-24.06-1.14-48.2-4.93-70.75-13.64-18.94-7.31-36.24-18.59-49.97-33.58-14.57-15.91-26.24-35.59-24.68-57.82 1.88-26.72 19.96-50.33 38.19-68.59 23.92-23.97 52.71-42.95 82.6-58.64 31.47-16.53 62.46-33.2 91.58-53.69 18.67-12.96 36.38-27.23 53-42.72 5.67-5.16 11.02-10.67 16.02-16.47 4.66-5.6-3.37-13.71-8.07-8.06h.01z" />
        <path
            d="M1044.54 1137.03c-2.72 8.4-6 16.65-9.34 24.82l-2.46 5.91c-.3.71.59-1.39.15-.35l-.37.88-.63 1.48-1.45 3.35-6.58 14.58a640.12 640.12 0 0 1-16.98 33.72 657.14 657.14 0 0 1-46.23 72.79l-11.37 15.2c-.84 1.09.54-.69 0 0l-.64.82-1.27 1.62-3.03 3.83-5.53 6.81c-7.04 8.54-14.35 16.86-21.91 24.96-15.63 16.76-32.27 32.55-49.04 48.17l-6.88 6.39c-2.2 2.24-2.2 5.82 0 8.06 2.25 2.16 5.81 2.16 8.07 0 17.18-15.92 34.32-31.92 50.52-48.84a576.55 576.55 0 0 0 45.2-53.5 663.23 663.23 0 0 0 47.14-71.83 637.81 637.81 0 0 0 31.79-64.98c4.21-9.98 8.47-20.09 11.71-30.44a7.17 7.17 0 0 0 .14-.43c.81-3.03-.96-6.15-3.98-7.01-3.03-.76-6.12.99-7.02 3.98h0z" />
        <path
            d="M944.94 1318.42c-1.29 1.75-1.28 4.46-1.33 6.52-.07 2.85.09 5.7.27 8.55.61 9.65 1.68 19.27 2.82 28.87 3.39 28.74 7.67 57.38 12.44 85.92 5.08 30.35 10.65 60.69 18.09 90.56 8.81 35.36 20.26 70 33.38 103.99l15.3 38.18c3.72 9.11 7.52 18.2 10.78 27.49 1.17 3.21 2.17 6.47 3.01 9.78.16.66.3 1.32.43 1.98.02.2.05.39.09.58.03.07-.16-1.69-.13-.95.01.36.07.71.08 1.07.02.54-.07 1.09-.05 1.62.03.57.41-1.76.07-.64-.08.25-.15.54-.21.8-.25 1.09.54-.94.29-.64-.13.15-.16.39-.3.54-.74.82.81-.8.46-.57-.19.15-.36.32-.5.5-.3.46 1.51-1.06.58-.47a5.45 5.45 0 0 0-.53.29c-.26.22 1.73-.49.67-.29a6.53 6.53 0 0 0-.76.2c-1.08.35 1.22-.04.69-.08-.24-.02-.51.03-.74.04-.26 0-.52 0-.78-.02-.82-.05-1.33-.56.35.08-1.25-.48-2.7-.58-3.99-1.04l-1.05-.4c-1.26-.47 1.32.62.05.02-.85-.41-1.7-.8-2.54-1.24-1.77-.93-3.49-1.97-5.16-3.08-.96-.64-1.91-1.29-2.85-1.97l-1.4-1.03-.57-.43c-.9-.67.99.79-.14-.11-2.16-1.73-4.28-3.51-6.33-5.36a177.65 177.65 0 0 1-13.68-13.9 227.74 227.74 0 0 1-7.39-8.75l-1.8-2.26-1.28-1.64-4.02-5.38c-11.25-15.39-21.18-31.69-29.7-48.74a328.59 328.59 0 0 1-18.46-45.94c-10.55-32.46-17.38-66.03-22.7-99.7l-3.56-24.02-.76-5.56-.15-1.1c-.25-1.82.15 1.13-.09-.69l-.44-3.28-1.46-11.25-5.3-41.3-2.46-16.8c-.49-3.04-4.28-4.73-7.02-3.98-3.24.89-4.48 3.96-3.98 7.01l2.58 17.68c.04.28.15 1.12-.03-.19l.18 1.34.3 2.26.66 5.07 1.28 10.07 5.97 45.73c4.73 33.71 10.57 67.35 19.56 100.21 4.45 16.55 9.91 32.82 16.36 48.71a335.44 335.44 0 0 0 25.56 49.69c9.11 14.91 19.53 28.98 31.13 42.05 8 8.88 16.82 17.37 26.91 23.87 5.99 3.86 13.59 7.87 20.96 6.49 7.45-1.39 9.66-8.75 8.67-15.35-1.08-7.17-4.07-14.21-6.67-20.93-4.09-10.59-8.48-21.06-12.75-31.57-12.5-30.78-24.13-61.89-33.69-93.72-9.78-32.53-17.07-65.64-23.18-99.03l-7.85-46.24-3.47-22.82-1.59-11.08-.7-5.01-.34-2.47-.13-.98-.13-.98c.1.71.1.72 0 .06l-4.26-35.63c-.74-7.34-1.58-14.8-1.48-22.19.01-.84.19-1.74.14-2.58.13 2.51-.35 1.19-.04.59.51-1-.86 1.5-.32.76 1.82-2.48.42-6.36-2.05-7.8-2.89-1.69-5.98-.44-7.81 2.04h0zm1.44-545.91a378.55 378.55 0 0 0-50.23-6.03c-3.14.02-5.68 2.56-5.71 5.7.07 3.12 2.58 5.63 5.71 5.7a364.77 364.77 0 0 1 24.25 2.07l2.86.35 1.64.21c.64.08.55.07-.29-.04l.82.11 5.72.83a361.28 361.28 0 0 1 12.2 2.09c1.49.36 3.05.16 4.4-.57a5.78 5.78 0 0 0 2.62-3.41c.64-2.8-.85-6.42-3.98-7.01h0zm-19.95 17.71c-10.79 1.36-21.44 3.73-31.79 7.09-2.83.93-4.97 3.98-3.98 7.01.91 2.82 3.98 4.98 7.02 3.98 4.86-1.6 9.78-2.97 14.77-4.11 2.43-.56 4.87-1.06 7.32-1.5l3.78-.64 2-.3.8-.11c1.4-.2-1.32.17.08-.01 1.5-.06 2.93-.65 4.03-1.67 2.23-2.22 2.23-5.83 0-8.06-1.03-.94-2.58-1.86-4.03-1.67zm-7.93 24.31l-13.16 10.56a5.7 5.7 0 0 0-1.67 4.03c.01 1.51.61 2.95 1.67 4.03a5.7 5.7 0 0 0 4.03 1.67l1.52-.2a5.7 5.7 0 0 0 2.52-1.47l13.16-10.56a5.7 5.7 0 0 0 1.67-4.03c-.01-1.51-.61-2.95-1.67-4.03a5.7 5.7 0 0 0-4.03-1.67l-1.52.2a5.7 5.7 0 0 0-2.52 1.47h0zm203.05 101.59l12.58 34.46c1.02 2.79 3.92 4.98 7.02 3.98 2.75-.89 5.08-4.01 3.98-7.01l-12.58-34.46c-1.02-2.79-3.92-4.98-7.02-3.98-2.75.89-5.08 4.01-3.98 7.01h0zm25.08-1.8c5.14 8.38 11.58 15.88 19.08 22.22a6.12 6.12 0 0 0 4.03 1.67c1.51-.01 2.96-.61 4.03-1.67 1.94-2.11 2.44-6.01 0-8.06-3.53-2.96-6.81-6.19-9.83-9.66-.71-.82-1.41-1.66-2.09-2.51l-.56-.71c-.44-.55.74.97.11.15l-.98-1.31a85.98 85.98 0 0 1-3.95-5.87c-1.56-2.54-5.18-3.74-7.81-2.04-2.68 1.62-3.58 5.07-2.05 7.8h0zm24.95-10.29l2.36.89-1.36-.57c2.32 1 4.51 2.28 6.51 3.82l-1.15-.89a29.9 29.9 0 0 1 3.98 3.73c2.23 2.23 5.84 2.23 8.07 0a5.7 5.7 0 0 0 1.67-4.03c-.05-1.5-.65-2.93-1.67-4.03-4.17-4.59-9.47-8-15.37-9.9-3.04-.84-6.18.95-7.02 3.98s.95 6.17 3.98 7.01h0zm-170.46 255.56c-5.29 11.88-11.65 23.26-18.99 34-1.68 2.47-.55 6.43 2.05 7.8a5.86 5.86 0 0 0 7.81-2.04c7.34-10.74 13.7-22.12 18.99-34a6.15 6.15 0 0 0 .57-4.39c-.41-1.43-1.34-2.65-2.62-3.4-2.48-1.31-6.51-.86-7.81 2.04h0zm-37.59 22.3c-.44 1.81-1.02 3.58-1.73 5.29l.58-1.36a35.71 35.71 0 0 1-4.63 7.92l.89-1.15c-1.03 1.32-2.15 2.56-3.36 3.73-2.21 2.25-2.17 5.85.08 8.06a5.72 5.72 0 0 0 7.99 0c5.48-5.31 9.35-12.05 11.18-19.45.7-2.89-.92-6.31-3.98-7.01-2.94-.67-6.27.88-7.02 3.98h0zm12.3 46.15l-9.45 13.01c-.77 1.33-.98 2.91-.57 4.39.41 1.43 1.34 2.65 2.62 3.4 1.33.77 2.91.98 4.4.57l1.36-.57c.85-.5 1.55-1.2 2.05-2.04l9.45-13.01c.77-1.33.98-2.91.58-4.39-.41-1.43-1.34-2.65-2.62-3.4-1.33-.77-2.91-.98-4.4-.57l-1.36.57c-.85.49-1.55 1.2-2.05 2.04h0zm-50.49 39.23l-14.55 23.67c-1.59 2.72-.67 6.21 2.05 7.8a5.71 5.71 0 0 0 7.8-2.04h0l14.56-23.67c1.59-2.72.67-6.21-2.05-7.8s-6.22-.67-7.81 2.05h0zm-73.89 50.49l-8.01 9.13c-1.04 1.09-1.64 2.52-1.67 4.03.01 1.51.61 2.95 1.67 4.03 1.07 1.07 2.52 1.66 4.03 1.67 1.51 0 2.97-.6 4.03-1.67l8-9.13c1.04-1.09 1.64-2.53 1.67-4.03-.01-1.51-.61-2.95-1.67-4.03-1.07-1.07-2.52-1.66-4.03-1.67-1.51 0-2.97.6-4.03 1.67h0zm41.45 20.93l-.1 1.09.2-1.51c-.19 1.39-.56 2.75-1.1 4.05l.58-1.36c-.55 1.29-1.26 2.52-2.11 3.64l.89-1.15a16.3 16.3 0 0 1-2.84 2.85l1.15-.89-.29.22c-1.24.8-2.17 2-2.62 3.4-.39 1.48-.19 3.06.58 4.39a5.75 5.75 0 0 0 3.41 2.62 5.57 5.57 0 0 0 4.4-.57c1.35-.94 2.59-2.03 3.71-3.25a23.08 23.08 0 0 0 2.87-4.01c1.59-2.93 2.51-6.18 2.7-9.51 0-3.15-2.56-5.7-5.71-5.7a5.7 5.7 0 0 0-4.03 1.67c-1.02 1.1-1.62 2.53-1.67 4.03h0z" />
        <path
            d="M1180.24 851.7c-12.56.99-24.93 3.65-36.78 7.92a141.94 141.94 0 0 0-50.04 30.88c-2.2 2.24-2.2 5.82 0 8.06 2.25 2.16 5.82 2.16 8.07 0 2.17-2.08 4.41-4.07 6.71-6l3.37-2.72.41-.32c.03-.02-.97.74-.47.36l.97-.73 1.81-1.34c4.82-3.49 9.86-6.65 15.09-9.48a138.48 138.48 0 0 1 7.9-3.95l2.05-.93.95-.42c.22-.1 1.45-.62.59-.25s.24-.1.44-.18l.96-.39 2.26-.88a136.9 136.9 0 0 1 17.04-5.25 138.04 138.04 0 0 1 9.68-1.93l2.57-.39.51-.07c.75-.11-1.24.16-.49.07l1.2-.15a127.4 127.4 0 0 1 5.17-.52c2.97-.24 5.85-2.45 5.7-5.7-.13-2.88-2.52-5.96-5.7-5.7h0z" />
    </g>
    <g clip-path="url(#C)">
        <path
            d="M1137.07 532.46c14.43 2.91 29.39-3.78 39.67-13.82 5.43-5.25 9.82-11.49 12.94-18.38 2.83-6.19 4.27-12.93 4.21-19.73-.19-7.92-2.65-15.99-8.61-21.45l-5.57 8.16c10.08 4.91 20.34 9.72 31.6 11.08 8.8 1.07 18.6-.32 26.22-5.14 4.41-2.68 8.09-6.41 10.73-10.86a43.22 43.22 0 0 0 5.14-15.78c.63-5.35.72-10.74.25-16.1-.34-5.16-.97-10.31-1.71-15.42-1.7-11.75-4.23-23.37-7.58-34.75a5.46 5.46 0 0 0-2.1-3.22 5.14 5.14 0 0 0-3.87-.8c-2.47.61-4.84 3.27-4.03 6.02 2.87 9.76 5.15 19.7 6.81 29.75.82 4.99 1.5 10.01 2.01 15.05l.33 3.54c.04.45.3 1.43.13 1.84.19-.46-.05-.93-.02-.32l.07 1.35a80.05 80.05 0 0 1 0 7.43 56.12 56.12 0 0 1-.77 6.96c-.08.45-.47 1.22.02-.05a7.82 7.82 0 0 0-.21.96 30.59 30.59 0 0 1-.41 1.58 35.95 35.95 0 0 1-1.12 3.37c-.21.55-.44 1.09-.69 1.63a3.94 3.94 0 0 0-.34.72l.33-.65-.3.57a27.27 27.27 0 0 1-1.88 2.99c-.32.44-.65.87-.99 1.28-.1.12-.63.61-.64.75 0-.36.73-.79.15-.2-.74.77-1.53 1.48-2.35 2.15-.36.29-.72.57-1.1.83-.22.17-.44.33-.68.47.04-.02 1.1-.69.4-.27-.91.55-1.81 1.07-2.77 1.54-.87.42-1.76.8-2.67 1.14-.26.1-.53.17-.78.28.06-.02 1.23-.39.44-.16l-1.61.47a37.82 37.82 0 0 1-6.07 1.07c-.28.03-.56.03-.84.07 1.36-.18.81-.05.47-.03-.56.02-1.13.05-1.69.05a39.84 39.84 0 0 1-3.09-.08 44.02 44.02 0 0 1-3.42-.35 52.47 52.47 0 0 1-2.13-.35l-.35-.07c-.56-.11-.47-.09.28.06-.36-.04-.71-.12-1.05-.23-2.92-.69-5.78-1.56-8.59-2.61-5.54-2.05-10.87-4.63-16.17-7.22a4.66 4.66 0 0 0-3.27.02c-1.05.32-1.97 1-2.6 1.91a6.23 6.23 0 0 0-.9 2.57c-.1 1.33.33 2.65 1.2 3.66 1.07.98 2.04 2.06 2.9 3.24.26.36.92 1.62.09.09.15.28.33.54.49.81a22.03 22.03 0 0 1 1.01 2c.27.62.48 1.25.73 1.87-.63-1.57-.14-.42-.02 0a21.89 21.89 0 0 1 .3 1.16 31.42 31.42 0 0 1 .68 4.31c.04.38.03 1.09-.02-.47 0 .16.02.33.02.49l.03.99c.01.79 0 1.58-.05 2.37-.08 1.56-.26 3.11-.53 4.65l-.18 1.01c-.15.81.12-.58.12-.59-.03.21-.08.42-.14.63-.18.79-.39 1.58-.61 2.36-.42 1.48-.92 2.93-1.49 4.37-.27.67-.55 1.34-.84 1.99l-.48 1.03-.22.45c-.44.9.64-1.21.16-.33-.76 1.41-1.55 2.8-2.42 4.14a51.18 51.18 0 0 1-2.86 4.01 58.82 58.82 0 0 1-1.56 1.91l-.72.83c1.08-1.3.07-.09-.23.23-2.26 2.39-4.73 4.57-7.38 6.51-.37.27-.74.53-1.11.78-.33.23-1.4.88-.04.03-.73.45-1.45.91-2.19 1.33-1.39.8-2.83 1.53-4.29 2.17a37.14 37.14 0 0 1-2.46.99c-.2.07-.41.17-.62.22l.74-.25c-.17.06-.33.11-.5.16l-1.26.38c-1.68.47-3.39.83-5.12 1.06-.43.06-.86.11-1.3.15-.17.02-.35.03-.52.05-.96.09 1.18-.06.27-.02-.87.03-1.74.05-2.62.02-1.86-.06-3.7-.28-5.52-.64-1.33-.09-2.63.35-3.64 1.22a5.2 5.2 0 0 0-1.78 3.56 5.23 5.23 0 0 0 1.2 3.66c.94.98 2.19 1.6 3.53 1.78z" />
        <path
            d="M1238.51 391.95c3.24 3.68 6.67 7.17 10.29 10.47 3.73 3.53 7.72 6.77 11.94 9.68a38.34 38.34 0 0 0 15.35 6.26 24.85 24.85 0 0 0 12.92-1.67c4.86-1.95 8.76-5.74 10.87-10.55 1.09-2.46-.63-5.77-3.12-6.51-2.82-.84-5.32.53-6.49 3.16-.07.17-.48.99-.03.11s.03-.08-.07.08c-.2.34-.41.67-.64.98-.23.32-.49.61-.72.92 1.02-1.35.09-.13-.29.22-.29.26-.59.52-.9.76a11.29 11.29 0 0 1-.42.31c-.37.27-1.04.48.22-.13-.75.36-1.45.84-2.22 1.18-.37.16-.74.3-1.11.45-.9.36.99-.3.35-.12-.22.06-.43.13-.64.19a19.93 19.93 0 0 1-2.64.54c-.36.05-.72.05-1.07.11 1.63-.29.18-.02-.3-.02a19.7 19.7 0 0 1-2.66-.18c-.23-.03-.46-.08-.69-.11-1.17-.16.88.22.14.04l-1.52-.38c-1.11-.32-2.21-.71-3.27-1.16-.54-.23-1.06-.48-1.59-.72-.31-.15-.71-.51.28.15-.19-.13-.42-.22-.62-.33-1.03-.56-2.04-1.17-3.02-1.81a87.57 87.57 0 0 1-10.61-8.4c-.24-.22-.82-.83.07.07-.25-.25-.52-.47-.77-.71l-1.27-1.2-2.74-2.7c-1.8-1.82-3.55-3.7-5.25-5.63-1.76-2-5.13-2.47-7.18-.56-2.1 1.86-2.36 5.06-.58 7.22h0z" />
    </g>
    <g clip-path="url(#D)">
        <path
            d="M1635.6 886.2l2.36-4.95 1.03-2.31.14-.32.49-1.17a152.44 152.44 0 0 0 3.74-10.08c2.23-6.75 4-13.64 5.28-20.63l3.64 6.47c-11.21-3.12-23.66-7.35-29.85-18.03-6.01-10.37-3.18-22.48 1.44-32.73 2.38-5.05 5.05-9.97 7.99-14.72a311.65 311.65 0 0 1 9.98-15.66c7.15-10.5 14.92-20.55 23.27-30.12a305.78 305.78 0 0 1 29.31-29.29l4.96 8.82c-9.88 3.33-20.24-.29-28.08-6.56-8.22-6.58-13-16.5-14.32-26.82-1.55-12.08.54-24.07 3.19-35.84a316.25 316.25 0 0 1 9.37-33.94c4.41-12.75 9.96-25.19 17.3-36.53 1.49-2.3 4.72-3.45 7.17-1.87 2.3 1.49 3.47 4.72 1.88 7.18a143.44 143.44 0 0 0-8.3 14.71c-1.24 2.53-2.39 5.1-3.51 7.68-.33.77.48-1.15-.04.09l-.32.76-.78 1.91-1.63 4.24c-3.83 10.52-7.02 21.26-9.55 32.16-1.3 5.43-2.56 10.88-3.53 16.38l-.34 2.01-.13.8c-.22 1.36.14-1.08-.04.28l-.48 4.03c-.29 2.8-.41 5.62-.38 8.43a68.26 68.26 0 0 0 .17 3.78l.09.99c.11 1.3-.11-.79 0 .03l.31 2.16c.46 2.67 1.14 5.3 2.06 7.85.15.42.55.92-.12-.29.1.17.16.39.24.58a37 37 0 0 0 .66 1.43 34.81 34.81 0 0 0 1.71 3.04c.28.45.58.89.88 1.33l.37.52c.67.96-.82-1.01-.08-.11.67.82 1.35 1.64 2.08 2.42a32.63 32.63 0 0 0 2.77 2.62 9.48 9.48 0 0 0 .49.4c.17.13.32.26.49.39l-.58-.45c.55.31 1.06.68 1.54 1.09a30.56 30.56 0 0 0 3.08 1.8c.49.25 1.06.43 1.53.72-1.18-.72-.52-.22-.1-.06.28.11.57.21.86.31 1.05.36 2.12.65 3.2.87a6.93 6.93 0 0 1 .89.16c-.55-.19-1-.13-.14-.04a21.23 21.23 0 0 0 1.79.11c.5.01 1 0 1.5-.02.3-.04.6-.06.9-.06-1.14-.13-.74.1-.15 0 1.21-.19 2.41-.48 3.57-.88 4.87-1.64 8.77 5.5 4.96 8.82a306.03 306.03 0 0 0-25.58 25.1c-3.96 4.38-7.8 8.86-11.51 13.46l-2.69 3.38-.53.68c-.89 1.14.66-.86-.23.29l-1.57 2.06-5.11 6.96c-6.91 9.6-13.21 19.63-18.87 30.03a97.97 97.97 0 0 0-3.19 6.51c-.52 1.15.43-1.07-.04.11l-.27.68-.64 1.7c-.44 1.24-.84 2.5-1.18 3.77-.3 1.14-.54 2.29-.75 3.45-.18.94 0-.23.04-.29-.13.21-.1.79-.12 1.03-.06.63-.1 1.26-.13 1.89a24.09 24.09 0 0 0 0 1.7c0 .28.02.57.04.85l.03.34c.04.45.04.45-.01 0l-.04-.34.09.67c.04.22.07.45.11.67.13.67.28 1.33.47 1.99l.31.98c.15.42.69 1.17-.02-.01.37.61.61 1.34.96 1.97a19.51 19.51 0 0 0 1.09 1.74l.11.15c.35.48.29.4-.18-.24.03.24.53.65.7.85.87 1 2.01 2.44 3.21 3.05-.94-.48-.49-.36-.19-.15l1.07.75a28.97 28.97 0 0 0 1.76 1.11 42.88 42.88 0 0 0 4.1 2.11c.23.1.47.24.71.31-1.32-.45.32.12.57.22l2.02.76c2.88 1.04 5.81 1.9 8.75 2.72 2.91.81 4.15 3.69 3.64 6.47-2.72 14.57-7.46 28.68-14.08 41.94-1.22 2.46-4.9 3.34-7.17 1.87-2.44-1.51-3.27-4.67-1.88-7.18z" />
    </g>
    <path
        d="M60.01 431.8c13.66 33.25 33.08 62.7 58.5 88.08 32.41 32.35 70.58 55.87 113.41 71.58 35.03 12.85 71.14 22.12 107.88 28.7 19.19 3.44 38.49 6.3 57.76 9.26 22.23 3.41 24.25 4.23 38.3 21.36 15.13 18.46 32.19 34.89 50.64 49.96 30.94 25.27 64.71 45.95 100.73 63.13 15.1 7.2 30.4 13.7 46.59 18.03 4.48 1.2 8.95 2.36 13.59 2.23 3.98-.11 6.8-5.29 4.62-8.68-1.51-2.35-3.56-4.39-5.53-6.41-9.17-9.42-17.92-19.16-24.93-30.36-9.23-14.76-17.9-29.84-25.5-45.49-8.65-17.81-12.41-36.87-13.63-56.54-.22-3.51 1.23-5.24 4.19-6.36l19.86-7.65c13.7-4.98 27.04-10.76 39.88-17.67 54.35-29.24 101.34-67.61 141.7-114.21 34.12-39.4 54.71-85.12 62.97-136.38 11.86-73.6-3.87-140.95-46.75-201.96-34.51-49.11-79.91-84.99-134.04-110.19-24.84-11.56-50.72-20.2-77.35-26.77C546.49 4.01 499.44-1.25 451.65.25c-60.39 1.9-117.85 16.58-173.11 40.42-56.73 24.47-106.94 58.49-149.65 103.29-28.19 29.57-50.73 62.87-66.47 102.71-6.06 16.65-11.92 35.24-15.28 54.55-7.8 44.72-4.49 88.34 12.87 130.58zm92.77-278.28c47.53-48.03 103.9-81.94 167.28-104.77 72.72-26.19 147.19-32.1 223.31-20.27 35.17 5.47 69.7 13.6 102.61 27.36 56.87 23.8 104.69 59.28 140.25 110.3 39.45 56.6 53.63 118.91 42.39 186.99-8.39 50.77-30.17 94.98-64.92 132.9-43.96 47.97-95.17 85.95-154.71 112.46-9.72 4.33-19.75 7.97-29.57 12.08-15.99 6.69-19.69 12.63-17.47 29.51 3.03 23.1 9.67 45.07 21.99 65.07 11.73 19.05 23.82 37.84 39.49 54.01.63.65 1.93 1.19 1.06 2.57-.77 1.22-1.86.73-2.66.35-5.13-2.42-10.33-4.75-15.3-7.48-55.62-30.53-107.01-66.84-152.15-111.68l-14.52-14.05c-6.36-5.89-13.68-10.13-22.25-11.9l-46.9-9.59c-42.12-8.57-83.68-19.17-124.06-34.11-37.71-13.95-71.78-33.92-101.43-61.14-30.37-27.88-52.49-61.28-66.22-100.2-11.46-32.5-13.54-65.81-8.65-99.71 3.01-20.82 8.52-40.97 15.63-58.1 15.42-40.09 38.58-72.07 66.81-100.59zm156.64 74.56c-.41 2.52-1.12 3.9-2.11 4.14-1.41.35-4.11-.03-8.1-1.14-4.22-1.17-6.63-2.35-7.22-3.52a3.24 3.24 0 0 1-.26-1.32c0-.35.07-.92.22-1.72.15-.79.22-1.45.22-1.98v-39.95c-2.76 5.4-6.37 17.54-10.82 36.43-.06.24-.09.5-.09.79 0 .59.1 1.53.31 2.82.2 1.29.31 2.11.31 2.46-.06 1.82-.15 2.99-.26 3.52-.29 1.17-.91 1.88-1.85 2.11-.59.18-1.61.26-3.08.26-7.63 0-12.88-1.32-15.75-3.96-.47-.41-.65-1.14-.53-2.2.12-1.29.12-2.14 0-2.55l-5.81-17.6c-4.11-12.2-6.78-19.39-8.01-21.56v35.02c0 .76.23 1.82.7 3.17.59 1.64.91 2.67.97 3.08.23 1.17.29 2.58.18 4.22-.12 1.99-.53 3.23-1.23 3.7-.35.23-1.03.35-2.02.35-2.17 0-4.75-.38-7.74-1.14-3.23-.76-5.13-1.56-5.72-2.38-.29-.41-.44-.91-.44-1.5 0-.35.1-.94.31-1.76.2-.82.31-1.47.31-1.94v-62.39c0-.7.29-1.51.88-2.42s1.26-1.51 2.02-1.8c1-.41 4.84.29 11.53 2.11 6.98 1.82 10.68 3.4 11.09 4.75.18.53.21 1.23.09 2.11-.18 1.23-.26 1.97-.26 2.2 0 .53.09 1 .26 1.41l11.88 31.94c1.64-5.22 4.63-15.81 8.98-31.77 2.17-8.15 3.93-12.41 5.28-12.76.41-.12.88-.18 1.41-.18 1 0 2.67.26 5.02.79 2.58.65 4.37 1 5.37 1.06l8.01.79c2.76.53 4.31 1.5 4.66 2.9a4.68 4.68 0 0 1 .18 1.32c0 .59-.15 1.42-.44 2.51s-.44 1.89-.44 2.42v53.86c0 .59.37 1.47 1.1 2.64s1.04 2.05.92 2.64zm44.08-48.58c.41.59.62 1.17.62 1.76s-.34 1.29-1.01 2.11-1.01 1.35-1.01 1.58v40.92c0 .35.19.97.57 1.85s.57 1.52.57 1.94c0 1.06-.91 1.82-2.73 2.29-.94.23-3.14-.09-6.6-.97-3.76-.94-5.81-1.88-6.16-2.82-.29-.76-.21-1.79.26-3.08.59-1.52.88-2.58.88-3.17s-.09-1.35-.26-2.29c-.88 2.93-2.11 5.54-3.7 7.83-1.94 2.7-3.87 4.05-5.81 4.05s-4.58-.68-7.74-2.02c-3.17-1.35-4.99-2.58-5.46-3.7-1.64-3.75-2.46-17.63-2.46-41.62-.47-1.11-.7-2.23-.7-3.34 0-1.82.67-3.05 2.02-3.7.41-.18 1.14-.26 2.2-.26 1.99 0 4.37.31 7.13.92 2.76.62 4.43 1.25 5.02 1.89.29.35.44.73.44 1.14 0 .65-.44 1.69-1.32 3.12-.88 1.44-1.32 2.48-1.32 3.12-.12 23.12.06 34.76.53 34.94.82.29 2.89-2.42 6.2-8.14s4.97-10.08 4.97-13.07v-16.46c-.76-.76-1.14-1.7-1.14-2.82 0-2.29 1-3.84 2.99-4.66.23-.12.59-.18 1.06-.18 1.58 0 3.9.37 6.95 1.1s4.72 1.31 5.02 1.72zM322 159.44c0-.76.48-1.44 1.45-2.02.97-.59 1.98-.88 3.04-.88.94 0 1.67.26 2.2.79 4.4 4.69 7.33 8.92 8.8 12.67.12.29.18.62.18.97 0 .94-.5 1.72-1.5 2.33-1 .62-2.14.92-3.43.92-.82 0-1.55-.15-2.2-.44s-1.32-1.23-2.02-2.82l-1.58-3.43c-.12-.18-1.14-1.44-3.08-3.78-1.23-1.47-1.85-2.9-1.85-4.31zm43.3 12.06c.7.65 1.06 1.5 1.06 2.55 0 3.17-1.06 6.34-3.17 9.5-2.46 2.93-5.69 4.93-9.68 5.98-.94-.06-2.05-.18-3.34-.35-1.41-.82-1.91-2.11-1.5-3.87 0-.41-.02-.85-.04-1.32-.03-.47.51-1.26 1.63-2.38 3.75-.12 5.78-1.17 6.07-3.17.35-2.23.75-3.84 1.19-4.84s1.07-1.91 1.89-2.73c.53-.47 1.14-.7 1.85-.7 1.41 0 2.76.44 4.05 1.32z" />
    <path
        d="M404.63 224.12c.47 1.12.7 2.23.7 3.34 0 1.76-.68 2.96-2.02 3.61-.41.18-1.14.26-2.2.26-2 0-4.37-.31-7.13-.92-2.76-.62-4.43-1.22-5.02-1.8-.29-.35-.44-.73-.44-1.14 0-.65.44-1.69 1.32-3.12.88-1.44 1.32-2.48 1.32-3.12.12-23.11-.06-34.76-.53-34.94-.82-.29-2.85 2.35-6.07 7.92-3.4 5.87-5.1 10.3-5.1 13.29v16.46c.76.76 1.14 1.7 1.14 2.82 0 2.23-1 3.75-2.99 4.58-.24.12-.59.18-1.06.18-1.58 0-3.9-.37-6.95-1.1s-4.75-1.33-5.1-1.8-.53-1-.53-1.58.34-1.29 1.01-2.11 1.01-1.35 1.01-1.58v-40.92c0-.47-.23-1.08-.7-1.85-.47-.76-.62-1.41-.44-1.94.35-1.23 1.26-2.02 2.73-2.38.94-.23 3.14.09 6.6.97 3.75.94 5.81 1.91 6.16 2.9.23.65.15 1.61-.26 2.9-.65 2.05-.97 3.23-.97 3.52 0 .65.12 1.35.35 2.11.88-2.93 2.11-5.54 3.7-7.83 1.94-2.76 3.87-4.14 5.81-4.14s4.58.69 7.74 2.07c3.17 1.38 4.99 2.63 5.46 3.74 1.64 3.76 2.46 17.63 2.46 41.62zm45.5-40.92c0 .06-.32.65-.97 1.76-.41.82-.62 1.47-.62 1.94v38.54c0 9.74-3.61 15.99-10.82 18.74-3.34 1.29-6.4 1.94-9.15 1.94-3.99 0-7.45-1.35-10.38-4.05-.82-.7-2.23-2.23-4.22-4.58l-1.67-1.67c-.59-.65-.91-1.32-.97-2.02-.06-.88.82-1.58 2.64-2.11.23-.06.59-.09 1.06-.09 1.29 0 2.83.26 4.62.79s3.06 1.17 3.83 1.94l2.9 3.61c1 1.23 2.17 1.91 3.52 2.02 2.4.23 3.96-1.41 4.66-4.93.35-1.7.53-4.72.53-9.06-.18.23-.73 1-1.67 2.29-.7.94-1.32 1.61-1.85 2.02-.65.59-1.32.88-2.02.88-3.11 0-5.72-.85-7.83-2.55-6.28-5.28-9.42-13.05-9.42-23.32 0-6.51 1.38-12.35 4.14-17.51 2.87-5.51 6.63-8.98 11.26-10.38.35-.12.67-.18.97-.18.94 0 1.99.44 3.17 1.32 1 .76 1.99 1.56 2.99 2.38.35-1 .72-1.98 1.1-2.95s.98-1.51 1.8-1.63c1.23-.18 3.42.22 6.56 1.19s4.91 1.8 5.32 2.51c.7 1.17.88 2.23.53 3.17zm-15.58 21.65c.47-4.05.7-7.36.7-9.94 0-4.75-.76-7.42-2.29-8.01-1.23-.47-2.73 1.61-4.49 6.25s-2.64 8.86-2.64 12.67c0 6.92.79 12.41 2.38 16.46 3.52-5.46 5.63-11.26 6.34-17.42zm72.69-18.22a4.87 4.87 0 0 1-1.06 2.82c-.65.82-1.35 1.23-2.11 1.23a1.93 1.93 0 0 1-.62-.09c-.82-.29-2.67-.44-5.54-.44v34.76c0-.06.19.41.57 1.41s.57 1.88.57 2.64c0 1.7-1.17 2.61-3.52 2.73-1.23.06-3.49-.47-6.78-1.58-3.58-1.17-5.49-2.26-5.72-3.26-.12-.41.09-1.28.62-2.6s.79-2.33.79-3.04v-31.15h-2.99c-1.11 0-2.49-.98-4.14-2.95-1.64-1.96-2.46-3.53-2.46-4.71 0-.88.34-1.67 1.01-2.38.67-.7 1.42-1.06 2.24-1.06h6.34v-7.92c-.88-1.17-1.32-2.43-1.32-3.78 0-1.23.53-1.99 1.58-2.29.53-.12 1.26-.18 2.2-.18 2.17 0 4.71.34 7.61 1.01s4.8 1.36 5.68 2.07c.41.35.62.76.62 1.23 0 .59-.47 1.47-1.41 2.64s-1.44 2-1.5 2.46v4.75h2.82c.59 0 1.82 1.06 3.7 3.17s2.82 3.61 2.82 4.49zm39.25-3.52c.23.94-.09 1.7-.97 2.29l-2.02 1.14-15.05 22.79.09 14.43c.06.29.28 1.04.66 2.24s.57 2.16.57 2.86c0 1.11-.5 1.88-1.5 2.29-.65.29-1.53.44-2.64.44-2.23 0-4.69-.5-7.39-1.5-3.4-1.17-5.1-2.67-5.1-4.49 0-.53.23-1.38.7-2.55s.7-2.14.7-2.9V185.3l-.97-5.1c0-1.82.82-2.96 2.46-3.43.7-.18 1.55-.26 2.55-.26 2.05 0 4.21.34 6.47 1.01s3.59 1.39 4 2.16c.12.24.18.53.18.88 0 .29-.41 1.7-1.23 4.22V189l4.14-7.57c1.82-3.17 3.17-4.84 4.05-5.02 1.29-.23 3.26.53 5.9 2.29s4.11 3.23 4.4 4.4zm31.5-3.78c3.23 1.53 5.72 4.61 7.48 9.24 1.58 4.22 2.38 9.21 2.38 14.96 0 7.92-1.35 14.78-4.05 20.59-2.99 6.22-6.72 9.03-11.18 8.45-1.64-.41-4.11-.91-7.39-1.5-2.41-.29-4.58-.73-6.51-1.32-3.34-.88-6.01-3.73-8.01-8.54-1.82-4.46-2.73-9.68-2.73-15.66s.94-11.53 2.82-16.46c2.11-5.4 5.07-9.18 8.89-11.35.64-.35 1.52-.53 2.64-.53 1.17 0 3.49.38 6.95 1.14 2.23 0 5.13.32 8.71.97zm-9.95-4.58c-1.82 0-3.12-.16-3.92-.48-.79-.32-1.19-.86-1.19-1.63 0-.65.19-1.1.57-1.36s.87-.48 1.45-.66c1.47-.47 2.65-.97 3.56-1.5s1.58-1.06 2.02-1.58c.44-.53.73-1.06.88-1.58a5.79 5.79 0 0 0 .22-1.58c0-1-.34-1.7-1.01-2.11-.68-.41-1.6-.62-2.77-.62-.65 0-1.17.07-1.58.22s-.76.31-1.06.48c-.29.24-.53.44-.7.62 0 .41-.09.73-.26.97-.12.24-.31.44-.57.62s-.6.26-1.01.26c-1.53 0-2.57-.45-3.12-1.36-.56-.91-.84-1.77-.84-2.6s.12-1.41.35-1.76a1.98 1.98 0 0 1 .88-.75c.35-.15.72-.25 1.1-.31s.72-.21 1.01-.44a74.67 74.67 0 0 1 1.85-.53c.59-.12 1.25-.23 1.98-.35s1.54-.18 2.42-.18c1.29 0 2.57.1 3.83.31s2.38.56 3.34 1.06a6.52 6.52 0 0 1 2.38 2.07c.62.88.92 2.02.92 3.43 0 1.17-.34 2.2-1.01 3.08-.68.88-1.42 1.64-2.24 2.29a21.55 21.55 0 0 1-3.17 1.94 5.09 5.09 0 0 1 .44.53c.35.47.53.85.53 1.14 0 1.58-1.76 2.38-5.28 2.38zm.09 12.5c-1.58 0-3.05 1.92-4.4 5.76s-2.02 7.52-2.02 11.04c0 4.22.5 8.39 1.5 12.5 1.11 4.46 2.4 6.86 3.87 7.22 1.88.41 3.55-1.7 5.02-6.34 1.41-4.46 2.11-9.39 2.11-14.78 0-2.99-.38-5.95-1.14-8.89-1.06-4.34-2.7-6.51-4.93-6.51zm27.37-15.75c.7.65 1.06 1.5 1.06 2.55 0 3.17-1.06 6.34-3.17 9.5-2.46 2.93-5.69 4.93-9.68 5.98-.94-.06-2.05-.18-3.34-.35-1.41-.82-1.91-2.11-1.5-3.87 0-.41-.02-.85-.04-1.32-.03-.47.51-1.26 1.63-2.38 3.75-.12 5.78-1.17 6.07-3.17.35-2.23.75-3.84 1.19-4.84s1.07-1.91 1.89-2.73c.53-.47 1.14-.7 1.85-.7 1.41 0 2.76.44 4.05 1.32zm39.42-10.21c0 .41-.13.97-.4 1.67l-.48 1.32c-.35 1.17-.7 2.99-1.06 5.46v54.03c0 .7.18 1.34.53 1.89.35.56.53 1.01.53 1.36 0 3.75-.7 5.78-2.11 6.07-.53.12-2.39-.28-5.59-1.19s-5.12-1.63-5.76-2.16c-1.29-1.11-1.94-2.14-1.94-3.08 0-.23.12-.5.35-.79s.35-.79.35-1.5v-62.04c0-.35-.1-.72-.31-1.1s-.31-.75-.31-1.1c.12-1.41 1.2-2.35 3.26-2.82.59-.12 1.82-.12 3.7 0 2.17.18 4.05.5 5.63.97 2.4.7 3.61 1.7 3.61 2.99zm44.53 66.53c-.06.82-.41 1.52-1.06 2.11s-1.38.82-2.2.7c-7.28-1-11.32-2.38-12.14-4.14a1.52 1.52 0 0 1-.18-.7c0-.29.13-.62.4-.97.26-.35.42-.66.48-.92a2.13 2.13 0 0 1 .35-.75c.12-.47.15-1.5.09-3.08-.7.53-1.76 1.94-3.17 4.22-1.47 2.52-2.76 4.28-3.87 5.28-1.88 1.76-4.02 2.64-6.42 2.64-1.41 0-2.79-.56-4.14-1.67-.65-.53-1.79-1.67-3.43-3.43l-4.58-5.19c-1.23-1.64-1.85-3.2-1.85-4.66a5.68 5.68 0 0 1 .18-1.41c1.11-5.16 4.58-10.06 10.38-14.7 4.22-3.34 10.21-6.89 17.95-10.65 0-1.88-.47-3.08-1.41-3.61-.59-.35-2.64.31-6.16 1.98s-5.98 3.09-7.39 4.27c-.47.47-1.23 1.12-2.29 1.94-1 .59-1.91.76-2.73.53-.65-.18-2.02-1.23-4.14-3.17s-3.26-3.23-3.43-3.87c-.47-1.58.03-2.82 1.5-3.7.06-.06 1.23-.41 3.52-1.06l6.51-3.52c4.58-2.17 8.45-3.34 11.62-3.52 1.35-.06 2.87.65 4.58 2.11l4.62 4c1.55 1.32 3.15 2.6 4.8 3.83 1.88 1.64 2.82 3.23 2.82 4.75v33.26c.59 1.53.85 2.55.79 3.08zm-14.08-25.7a19.11 19.11 0 0 0-7.39 5.1l-4.58 5.54c-1.23 1.23-2.39 2.83-3.48 4.8s-1.63 3.42-1.63 4.36c0 .47.18.7.53.7 1.23 0 3.99-2.65 8.27-7.96s7.04-9.49 8.27-12.54zm1.32 36.26c.12.7.06 1.52-.18 2.46l-.79 2.46-.22 2.9c-.09 1-.41 1.82-.97 2.46s-1.66.97-3.3.97-3.08-.32-4.31-.97c-1.47-.76-2.23-1.76-2.29-2.99 0-.59.15-1.2.44-1.85.35-.88.57-1.51.66-1.89s.1-1.51.04-3.39c0-1.35.34-2.35 1.01-2.99.67-.65 1.75-.97 3.21-.97a9.31 9.31 0 0 1 4.31 1.06c1.35.7 2.14 1.61 2.38 2.73zm33.79-10.39c.23 2.11-.5 3.43-2.2 3.96-.29.06-.7.09-1.23.09-2.11 0-4.72-.44-7.83-1.32-3.34-.94-5.31-1.94-5.9-2.99-.29-.47-.03-1.38.79-2.73.53-.88.79-2.49.79-4.84V183.2c-.7-2.23-1.06-3.72-1.06-4.49s1.08-1.14 3.26-1.14c1.76 0 4.21.54 7.35 1.63s5.03 2.04 5.68 2.86c.18.24.26.53.26.88 0 .47-.34 1.35-1.01 2.64s-1.01 2.26-1.01 2.9v35.38c0 .59.34 1.32 1.01 2.2s1.04 1.53 1.1 1.94zm.27-60.81c.06.12.09.35.09.7 0 1.29-.26 2.96-.79 5.02-.59 2.23-1.14 3.46-1.67 3.7-.59.24-3.11-.4-7.57-1.89-4.46-1.5-6.84-2.57-7.13-3.21-.18-.29-.26-.73-.26-1.32 0-1.58.41-3.26 1.23-5.02.94-1.99 1.99-3.11 3.17-3.34 1.35-.23 3.7.28 7.04 1.54s5.31 2.54 5.9 3.83z" />
    <g fill="#f15224">
        <use xlink:href="#F" />
        <use xlink:href="#G" />
        <use xlink:href="#H" />
        <use xlink:href="#I" />
        <use xlink:href="#H" x="158.64" />
        <use xlink:href="#I" x="158.64" />
        <path
            d="M685.87 298.19c3.56 5.58 6.54 12.7 6.54 16.74 0 9.43-14.91 12.99-22.32 12.99-2.21 0-4.43-.19-6.54-.39-6.93 13.66-13.18 27.61-19.34 41.56-5.87 13.37-15.01 15.2-28.28 18.18-2.89.67-5.77 1.06-8.75 1.06-7.12 0-16.84-3.46-16.84-12.03s21.36-52.72 26.65-62.63c6.16-3.17 15.1-5.1 22.03-5.1h1.54c-4.04 5.58-11.35 18.66-19.24 33.86-2.5 4.71-8.47 18.18-8.47 23.28 0 .87.1 1.92 1.25 1.92 4.52 0 10.58-2.12 12.7-6.35 2.69-5.29 5.1-10.97 7.7-16.35l14.05-28.09c7.5-2.21 15.49-3.66 23.28-4.91l-2.31 4.14c3.17-.1 7.31-1.15 7.31-4.91 0-2.89-2.6-6.73-4.62-8.85l13.66-4.14zm55.42 32.13c-.58 9.24-5.1 19.92-10.01 27.42-7.7 11.64-21.17 28.96-38.1 28.96-11.26 0-16.55-5.96-16.93-15.78-.29-9.33 3.66-20.88 7.98-29.34 8.18-15.78 20.3-28.48 41.27-28.48 6.93 0 11.45 1.83 13.85 5.77 1.92-.58 3.46-1.83 3.37-4.04-.1-2.69-2.89-6.35-4.91-8.37l13.47-3.94c3.75 5.29 7.02 12.03 7.12 15.87.19 7.22-9.43 10.87-17.12 11.93zm-20.97 5.77c0-2.31-1.25-4.91-4.33-4.91-7.12 0-15.78 13.66-17.7 19.05-1.25 3.46-2.79 8.37-2.69 12.12.1 2.02.67 4.43 3.46 4.43 9.04 0 21.55-23.38 21.26-30.69zm5-25.3c-7.12-1.35-13.37-4.52-17.12-6.35 1.54-3.94 8.75-8.95 12.6-10.97 4.04 4.04 10.39 8.95 16.45 11.83-2.98 2.41-8.85 5-11.93 5.48zm42.43.96c7.12-1.83 14.62-2.02 21.94-2.02-12.7 22.9-24.73 47.24-33.58 71.87-6.06 2.31-12.41 3.75-18.86 4.81 7.6-25.59 18.86-50.7 30.5-74.66z" />
        <use xlink:href="#F" y="115.45" />
        <use xlink:href="#G" y="115.45" />
        <use xlink:href="#H" y="115.45" />
        <path
            d="M374.74 482.23c0-9.52 4.62-20.4 9.33-28.48 12.31-21.07 33.29-33.1 57.63-33.19-4.62 6.06-8.56 12.89-11.74 19.82-1.15-.19-2.31-.29-3.56-.29-15.59 0-35.4 20.49-35.4 35.88 0 4.91 2.98 6.83 7.6 6.83 6.64 0 13.47-6.54 15.01-12.8l-13.08 2.6c2.79-5.39 5.87-10.97 9.72-15.68 9.52-2.5 19.72-3.75 29.54-4.52-6.54 17.7-25.21 48.01-46.76 48.01-11.54 0-18.28-6.73-18.28-18.18zm121.22-52.72l18.76-5.2c-8.37 14.33-15.39 30.79-19.15 46.95l1.92-.19c7.6-16.07 16.64-32.61 27.71-46.47l24.24-2.69c-17.22 20.01-35.12 48.87-47.91 71.67-6.64 3.85-22.13 7.02-30.02 8.18 5.2-23.86 12.7-50.8 24.44-72.25zm54.45-2.31c7.12-1.83 14.62-2.02 21.94-2.02-12.7 22.9-24.73 47.24-33.58 71.87-6.06 2.31-12.41 3.75-18.86 4.81 7.6-25.59 18.86-50.7 30.5-74.66zm24.73 5.3c13.76-3.46 28.86-4.71 43.29-5.58l-7.31 15.3-21.84 3.85c-2.31 3.46-4.33 7.12-5.96 10.78l19.05-1.35-5.2 12.31-17.89 2.79c-2.6 2.41-4.71 8.08-5.58 11.26l17.61-1.64-4.52 13.47c-12.7 2.98-25.98 4.62-39.06 6.16 7.6-22.99 17.32-45.41 27.42-67.34zm-22.42 78.31c-.48-6.73 8.37-10.77 15.01-10.77 3.94 0 6.35.87 6.64 4.71.38 5.77-8.37 10.58-14.05 10.58-2.98 0-7.41-1.25-7.6-4.52zm30.4-95.73c4.52-3.37 10.01-6.35 15.1-9.04 7.31 2.41 11.35 5.2 17.32 9.72-1.83 2.98-4.04 5.77-6.45 8.47l-12.89-6.73c-6.06 1.54-11.83 4.71-16.36 8.18.77-3.56 1.83-7.22 3.27-10.58zm17.51 67.64c0-6.73 2.41-13.95 5.29-20.01 8.95-18.76 28-38.48 50.32-38.48 4.23 0 8.75.87 12.12 3.56-4.62 7.5-10.01 15.39-16.35 21.55-1.15-.48-3.46-.77-4.81-.77-10.87 0-21.26 7.7-25.59 17.7-1.15 2.69-2.12 5.58-2.12 8.56 0 5.87 4.14 8.37 9.52 8.37 4.52 0 9.24-1.54 12.99-3.94.29 1.15.29 2.41.29 3.56 0 4.81-1.06 9.52-2.4 14.05-5.77 3.17-12.22 5.29-18.86 5.29-12.03 0-20.4-7.02-20.4-19.43z" />
    </g>
</svg>